G75*
%MOIN*%
%OFA0B0*%
%FSLAX25Y25*%
%IPPOS*%
%LPD*%
%AMOC8*
5,1,8,0,0,1.08239X$1,22.5*
%
%ADD10C,0.00000*%
%ADD11OC8,0.06000*%
%ADD12C,0.05156*%
D10*
X0001000Y0001301D02*
X0001000Y0081261D01*
X0230999Y0081260D01*
X0230999Y0001300D01*
X0001000Y0001301D01*
D11*
X0011000Y0011301D03*
X0021000Y0011301D03*
X0031000Y0011301D03*
X0041000Y0011301D03*
X0051000Y0011301D03*
X0061000Y0011301D03*
X0071000Y0011301D03*
X0081000Y0011301D03*
X0091000Y0011301D03*
X0101000Y0011301D03*
X0111000Y0011301D03*
X0121000Y0011301D03*
X0131000Y0011301D03*
X0141000Y0011301D03*
X0151000Y0011301D03*
X0161000Y0011301D03*
X0171000Y0011301D03*
X0181000Y0011301D03*
X0191000Y0011301D03*
X0201000Y0011301D03*
X0211000Y0011301D03*
X0221000Y0011301D03*
X0145999Y0016300D03*
X0135999Y0016300D03*
X0125999Y0016300D03*
X0115999Y0016300D03*
X0105999Y0016300D03*
X0095999Y0016300D03*
X0085999Y0016300D03*
X0075999Y0016300D03*
X0075999Y0026300D03*
X0085999Y0026300D03*
X0085999Y0036300D03*
X0075999Y0036300D03*
X0075999Y0046300D03*
X0085999Y0046300D03*
X0085999Y0056300D03*
X0075999Y0056300D03*
X0075999Y0066300D03*
X0085999Y0066300D03*
X0095999Y0066300D03*
X0105999Y0066300D03*
X0115999Y0066300D03*
X0125999Y0066300D03*
X0135999Y0066300D03*
X0145999Y0066300D03*
X0141000Y0071301D03*
X0131000Y0071301D03*
X0121000Y0071301D03*
X0111000Y0071301D03*
X0101000Y0071301D03*
X0091000Y0071301D03*
X0081000Y0071301D03*
X0071000Y0071301D03*
X0061000Y0071301D03*
X0051000Y0071301D03*
X0041000Y0071301D03*
X0031000Y0071301D03*
X0021000Y0071301D03*
X0011000Y0071301D03*
X0085999Y0076300D03*
X0095999Y0076300D03*
X0105999Y0076300D03*
X0115999Y0076300D03*
X0125999Y0076300D03*
X0135999Y0076300D03*
X0151000Y0071301D03*
X0161000Y0071301D03*
X0171000Y0071301D03*
X0181000Y0071301D03*
X0191000Y0071301D03*
X0201000Y0071301D03*
X0211000Y0071301D03*
X0221000Y0071301D03*
X0145999Y0056300D03*
X0135999Y0056300D03*
X0135999Y0046300D03*
X0145999Y0046300D03*
X0145999Y0036300D03*
X0135999Y0036300D03*
X0135999Y0026300D03*
X0145999Y0026300D03*
X0135999Y0006300D03*
X0125999Y0006300D03*
X0115999Y0006300D03*
X0105999Y0006300D03*
X0095999Y0006300D03*
X0085999Y0006300D03*
D12*
X0125999Y0026300D03*
M02*
