G75*
%MOIN*%
%OFA0B0*%
%FSLAX25Y25*%
%IPPOS*%
%LPD*%
%AMOC8*
5,1,8,0,0,1.08239X$1,22.5*
%
%ADD10C,0.00000*%
%ADD11OC8,0.05200*%
%ADD12C,0.01200*%
%ADD13C,0.04356*%
D10*
X0001000Y0001301D02*
X0001000Y0081261D01*
X0230999Y0081260D01*
X0230999Y0001300D01*
X0001000Y0001301D01*
D11*
X0011000Y0011301D03*
X0021000Y0011301D03*
X0031000Y0011301D03*
X0041000Y0011301D03*
X0051000Y0011301D03*
X0061000Y0011301D03*
X0071000Y0011301D03*
X0081000Y0011301D03*
X0091000Y0011301D03*
X0101000Y0011301D03*
X0111000Y0011301D03*
X0121000Y0011301D03*
X0131000Y0011301D03*
X0141000Y0011301D03*
X0151000Y0011301D03*
X0161000Y0011301D03*
X0171000Y0011301D03*
X0181000Y0011301D03*
X0191000Y0011301D03*
X0201000Y0011301D03*
X0211000Y0011301D03*
X0221000Y0011301D03*
X0145999Y0016300D03*
X0135999Y0016300D03*
X0125999Y0016300D03*
X0115999Y0016300D03*
X0105999Y0016300D03*
X0095999Y0016300D03*
X0085999Y0016300D03*
X0075999Y0016300D03*
X0075999Y0026300D03*
X0085999Y0026300D03*
X0085999Y0036300D03*
X0075999Y0036300D03*
X0075999Y0046300D03*
X0085999Y0046300D03*
X0085999Y0056300D03*
X0075999Y0056300D03*
X0075999Y0066300D03*
X0085999Y0066300D03*
X0095999Y0066300D03*
X0105999Y0066300D03*
X0115999Y0066300D03*
X0125999Y0066300D03*
X0135999Y0066300D03*
X0145999Y0066300D03*
X0141000Y0071301D03*
X0131000Y0071301D03*
X0121000Y0071301D03*
X0111000Y0071301D03*
X0101000Y0071301D03*
X0091000Y0071301D03*
X0081000Y0071301D03*
X0071000Y0071301D03*
X0061000Y0071301D03*
X0051000Y0071301D03*
X0041000Y0071301D03*
X0031000Y0071301D03*
X0021000Y0071301D03*
X0011000Y0071301D03*
X0085999Y0076300D03*
X0095999Y0076300D03*
X0105999Y0076300D03*
X0115999Y0076300D03*
X0125999Y0076300D03*
X0135999Y0076300D03*
X0151000Y0071301D03*
X0161000Y0071301D03*
X0171000Y0071301D03*
X0181000Y0071301D03*
X0191000Y0071301D03*
X0201000Y0071301D03*
X0211000Y0071301D03*
X0221000Y0071301D03*
X0145999Y0056300D03*
X0135999Y0056300D03*
X0135999Y0046300D03*
X0145999Y0046300D03*
X0145999Y0036300D03*
X0135999Y0036300D03*
X0135999Y0026300D03*
X0145999Y0026300D03*
X0135999Y0006300D03*
X0125999Y0006300D03*
X0115999Y0006300D03*
X0105999Y0006300D03*
X0095999Y0006300D03*
X0085999Y0006300D03*
D12*
X0079999Y0006300D01*
X0074999Y0011300D01*
X0071999Y0011300D01*
X0071000Y0011301D01*
X0069999Y0016300D02*
X0065999Y0012300D01*
X0061999Y0012300D01*
X0061000Y0011301D01*
X0055999Y0012300D02*
X0065999Y0022300D01*
X0081999Y0022300D01*
X0085999Y0026300D01*
X0075999Y0026300D02*
X0059999Y0026300D01*
X0045999Y0012300D01*
X0041999Y0012300D01*
X0041000Y0011301D01*
X0035999Y0012300D02*
X0055999Y0032300D01*
X0081999Y0032300D01*
X0085999Y0036300D01*
X0075999Y0036300D02*
X0049999Y0036300D01*
X0025999Y0012300D01*
X0021999Y0012300D01*
X0021000Y0011301D01*
X0015999Y0012300D02*
X0045999Y0042300D01*
X0081999Y0042300D01*
X0085999Y0046300D01*
X0075999Y0046300D02*
X0036999Y0046300D01*
X0011999Y0071300D01*
X0011000Y0071301D01*
X0021000Y0071301D02*
X0021999Y0071300D01*
X0041999Y0051300D01*
X0076999Y0051300D01*
X0081999Y0056300D01*
X0085999Y0056300D01*
X0075999Y0056300D02*
X0046999Y0056300D01*
X0031999Y0071300D01*
X0031000Y0071301D01*
X0041000Y0071301D02*
X0041999Y0071300D01*
X0050999Y0062300D01*
X0077999Y0062300D01*
X0081999Y0066300D01*
X0085999Y0066300D01*
X0091999Y0064300D02*
X0093999Y0062300D01*
X0101999Y0062300D01*
X0105999Y0066300D01*
X0111999Y0071300D02*
X0115999Y0067300D01*
X0115999Y0066300D01*
X0125999Y0066300D02*
X0130999Y0071300D01*
X0131000Y0071301D01*
X0121000Y0071301D02*
X0120999Y0072300D01*
X0116999Y0076300D01*
X0115999Y0076300D01*
X0105999Y0076300D02*
X0101999Y0072300D01*
X0101000Y0071301D01*
X0091999Y0071300D02*
X0091000Y0071301D01*
X0091999Y0071300D02*
X0091999Y0064300D01*
X0075999Y0066300D02*
X0056999Y0066300D01*
X0051999Y0071300D01*
X0051000Y0071301D01*
X0061000Y0071301D02*
X0061999Y0072300D01*
X0065999Y0072300D01*
X0069999Y0076300D01*
X0085999Y0076300D01*
X0111000Y0071301D02*
X0111999Y0071300D01*
X0135999Y0076300D02*
X0151999Y0076300D01*
X0155999Y0072300D01*
X0160999Y0072300D01*
X0161000Y0071301D01*
X0165999Y0066300D02*
X0170999Y0071300D01*
X0171000Y0071301D01*
X0180999Y0071300D02*
X0181000Y0071301D01*
X0180999Y0071300D02*
X0169999Y0060300D01*
X0143999Y0060300D01*
X0139999Y0056300D01*
X0135999Y0056300D01*
X0145999Y0056300D02*
X0175999Y0056300D01*
X0190999Y0071300D01*
X0191000Y0071301D01*
X0200999Y0071300D02*
X0201000Y0071301D01*
X0200999Y0071300D02*
X0181999Y0052300D01*
X0145999Y0052300D01*
X0139999Y0046300D01*
X0135999Y0046300D01*
X0145999Y0046300D02*
X0185999Y0046300D01*
X0210999Y0071300D01*
X0211000Y0071301D01*
X0220999Y0071300D02*
X0221000Y0071301D01*
X0220999Y0071300D02*
X0191999Y0042300D01*
X0145999Y0042300D01*
X0139999Y0036300D01*
X0135999Y0036300D01*
X0145999Y0036300D02*
X0191999Y0036300D01*
X0215999Y0012300D01*
X0220999Y0012300D01*
X0221000Y0011301D01*
X0211000Y0011301D02*
X0210999Y0012300D01*
X0205999Y0012300D01*
X0187999Y0030300D01*
X0144342Y0030300D01*
X0140342Y0026300D01*
X0135999Y0026300D01*
X0125999Y0026300D02*
X0123499Y0023800D01*
X0123499Y0018800D01*
X0125999Y0016300D01*
X0120999Y0017300D02*
X0117999Y0020300D01*
X0109999Y0020300D01*
X0105999Y0016300D01*
X0100999Y0012300D02*
X0096999Y0016300D01*
X0095999Y0016300D01*
X0085999Y0016300D02*
X0081999Y0012300D01*
X0081000Y0011301D01*
X0091000Y0011301D02*
X0091999Y0011300D01*
X0095999Y0007300D01*
X0095999Y0006300D01*
X0105999Y0006300D02*
X0110999Y0011300D01*
X0111000Y0011301D01*
X0101000Y0011301D02*
X0100999Y0012300D01*
X0120999Y0012300D02*
X0121000Y0011301D01*
X0120999Y0012300D02*
X0120999Y0017300D01*
X0135999Y0016300D02*
X0140342Y0016300D01*
X0144342Y0020300D01*
X0177657Y0020300D01*
X0186657Y0011301D01*
X0191000Y0011301D01*
X0195999Y0012300D02*
X0181999Y0026300D01*
X0145999Y0026300D01*
X0145999Y0016300D02*
X0171999Y0016300D01*
X0175999Y0012300D01*
X0180999Y0012300D01*
X0181000Y0011301D01*
X0171000Y0011301D02*
X0170999Y0011300D01*
X0165999Y0006300D01*
X0135999Y0006300D01*
X0195999Y0012300D02*
X0200999Y0012300D01*
X0201000Y0011301D01*
X0075999Y0016300D02*
X0069999Y0016300D01*
X0055999Y0012300D02*
X0051999Y0012300D01*
X0051000Y0011301D01*
X0035999Y0012300D02*
X0031999Y0012300D01*
X0031000Y0011301D01*
X0015999Y0012300D02*
X0011999Y0012300D01*
X0011000Y0011301D01*
X0145999Y0066300D02*
X0165999Y0066300D01*
D13*
X0125999Y0026300D03*
M02*
