G75*
%MOIN*%
%OFA0B0*%
%FSLAX25Y25*%
%IPPOS*%
%LPD*%
%AMOC8*
5,1,8,0,0,1.08239X$1,22.5*
%
%ADD10C,0.00000*%
%ADD11OC8,0.05200*%
%ADD12C,0.05600*%
%ADD13C,0.00900*%
%ADD14C,0.00800*%
%ADD15C,0.00600*%
%ADD16R,0.03169X0.03169*%
D10*
X0001000Y0001300D02*
X0001000Y0081261D01*
X0229701Y0081261D01*
X0229701Y0001300D01*
X0001000Y0001300D01*
D11*
X0011000Y0011300D03*
X0021000Y0011300D03*
X0031000Y0011300D03*
X0041000Y0011300D03*
X0051000Y0011300D03*
X0061000Y0011300D03*
X0071000Y0011300D03*
X0081000Y0011300D03*
X0091000Y0011300D03*
X0101000Y0011300D03*
X0111000Y0011300D03*
X0121000Y0011300D03*
X0131000Y0011300D03*
X0141000Y0011300D03*
X0151000Y0011300D03*
X0161000Y0011300D03*
X0171000Y0011300D03*
X0181000Y0011300D03*
X0191000Y0011300D03*
X0201000Y0011300D03*
X0211000Y0011300D03*
X0221000Y0011300D03*
X0146000Y0016300D03*
X0136000Y0016300D03*
X0126000Y0016300D03*
X0116000Y0016300D03*
X0106000Y0016300D03*
X0096000Y0016300D03*
X0086000Y0016300D03*
X0076000Y0016300D03*
X0076000Y0026300D03*
X0086000Y0026300D03*
X0086000Y0036300D03*
X0076000Y0036300D03*
X0076000Y0046300D03*
X0086000Y0046300D03*
X0086000Y0056300D03*
X0076000Y0056300D03*
X0076000Y0066300D03*
X0086000Y0066300D03*
X0096000Y0066300D03*
X0106000Y0066300D03*
X0116000Y0066300D03*
X0126000Y0066300D03*
X0136000Y0066300D03*
X0146000Y0066300D03*
X0141000Y0071300D03*
X0151000Y0071300D03*
X0161000Y0071300D03*
X0171000Y0071300D03*
X0181000Y0071300D03*
X0191000Y0071300D03*
X0201000Y0071300D03*
X0211000Y0071300D03*
X0221000Y0071300D03*
X0146000Y0056300D03*
X0136000Y0056300D03*
X0136000Y0046300D03*
X0146000Y0046300D03*
X0146000Y0036300D03*
X0136000Y0036300D03*
X0136000Y0026300D03*
X0146000Y0026300D03*
X0136000Y0006300D03*
X0126000Y0006300D03*
X0116000Y0006300D03*
X0106000Y0006300D03*
X0096000Y0006300D03*
X0086000Y0006300D03*
X0081000Y0071300D03*
X0091000Y0071300D03*
X0101000Y0071300D03*
X0111000Y0071300D03*
X0121000Y0071300D03*
X0131000Y0071300D03*
X0126000Y0076300D03*
X0116000Y0076300D03*
X0106000Y0076300D03*
X0096000Y0076300D03*
X0086000Y0076300D03*
X0071000Y0071300D03*
X0061000Y0071300D03*
X0051000Y0071300D03*
X0041000Y0071300D03*
X0031000Y0071300D03*
X0021000Y0071300D03*
X0011000Y0071300D03*
X0136000Y0076300D03*
D12*
X0014512Y0046475D02*
X0008913Y0046475D01*
X0008913Y0036475D02*
X0014512Y0036475D01*
D13*
X0040450Y0042100D02*
X0011650Y0070900D01*
X0011000Y0071300D01*
X0031000Y0071300D02*
X0031650Y0070900D01*
X0050050Y0052500D01*
X0075650Y0052500D01*
X0081250Y0046900D01*
X0085250Y0046900D01*
X0086000Y0046300D01*
X0081250Y0036500D02*
X0075650Y0042100D01*
X0040450Y0042100D01*
X0045200Y0030850D02*
X0080000Y0030850D01*
X0085250Y0026100D01*
X0086000Y0026300D01*
X0081250Y0020500D02*
X0085250Y0016500D01*
X0086000Y0016300D01*
X0091650Y0017300D02*
X0094850Y0020500D01*
X0101250Y0020500D01*
X0105250Y0016500D01*
X0106000Y0016300D01*
X0101000Y0011300D02*
X0101250Y0010900D01*
X0105250Y0006900D01*
X0106000Y0006300D01*
X0116000Y0006300D02*
X0116450Y0006900D01*
X0120450Y0010900D01*
X0121000Y0011300D01*
X0126050Y0016500D02*
X0130850Y0011700D01*
X0131000Y0011300D01*
X0136450Y0006900D02*
X0136000Y0006300D01*
X0136450Y0006900D02*
X0156450Y0006900D01*
X0160450Y0010900D01*
X0161000Y0011300D01*
X0162050Y0015700D02*
X0166050Y0011700D01*
X0170850Y0011700D01*
X0171000Y0011300D01*
X0162050Y0015700D02*
X0146050Y0015700D01*
X0146000Y0016300D01*
X0146050Y0026100D02*
X0146000Y0026300D01*
X0146050Y0026100D02*
X0171650Y0026100D01*
X0186050Y0011700D01*
X0190850Y0011700D01*
X0191000Y0011300D01*
X0206050Y0011700D02*
X0182050Y0035700D01*
X0146050Y0035700D01*
X0146000Y0036300D01*
X0146000Y0046300D02*
X0146050Y0046900D01*
X0196450Y0046900D01*
X0220450Y0070900D01*
X0221000Y0071300D01*
X0201000Y0071300D02*
X0200450Y0070900D01*
X0186050Y0056500D01*
X0146050Y0056500D01*
X0146000Y0056300D01*
X0150050Y0060500D02*
X0136450Y0060500D01*
X0130850Y0066100D01*
X0126050Y0066100D01*
X0126000Y0066300D01*
X0120450Y0065300D02*
X0120450Y0070900D01*
X0121000Y0071300D01*
X0111000Y0071300D02*
X0110850Y0071700D01*
X0106050Y0076500D01*
X0106000Y0076300D01*
X0096000Y0076300D02*
X0095650Y0075700D01*
X0091650Y0071700D01*
X0091000Y0071300D01*
X0086000Y0076300D02*
X0085250Y0075700D01*
X0079650Y0075700D01*
X0075650Y0071700D01*
X0071650Y0071700D01*
X0071000Y0071300D01*
X0060450Y0062100D02*
X0051650Y0070900D01*
X0051000Y0071300D01*
X0060450Y0062100D02*
X0075650Y0062100D01*
X0081250Y0056500D01*
X0085250Y0056500D01*
X0086000Y0056300D01*
X0106050Y0066100D02*
X0106000Y0066300D01*
X0106050Y0066100D02*
X0110850Y0066100D01*
X0114850Y0062100D01*
X0117250Y0062100D01*
X0120450Y0065300D01*
X0136000Y0066300D02*
X0136450Y0066100D01*
X0140450Y0066100D01*
X0144450Y0062100D01*
X0147650Y0062100D01*
X0157250Y0071700D01*
X0157250Y0073300D01*
X0159650Y0075700D01*
X0186850Y0075700D01*
X0190850Y0071700D01*
X0191000Y0071300D01*
X0161000Y0071300D02*
X0160450Y0070900D01*
X0150050Y0060500D01*
X0086000Y0036300D02*
X0085250Y0036500D01*
X0081250Y0036500D01*
X0045200Y0030850D02*
X0026050Y0011700D01*
X0021250Y0011700D01*
X0021000Y0011300D01*
X0041000Y0011300D02*
X0041250Y0011700D01*
X0046050Y0011700D01*
X0054850Y0020500D01*
X0081250Y0020500D01*
X0091650Y0017300D02*
X0091650Y0011700D01*
X0091000Y0011300D01*
X0206050Y0011700D02*
X0210850Y0011700D01*
X0211000Y0011300D01*
D14*
X0141000Y0011300D02*
X0141000Y0017875D01*
X0137425Y0021450D01*
X0130750Y0021450D01*
X0126300Y0015887D02*
X0121850Y0020338D01*
X0121850Y0053712D01*
X0130750Y0051050D02*
X0130750Y0033688D01*
X0125625Y0028562D01*
X0125625Y0028125D01*
X0095150Y0028125D02*
X0095150Y0025450D01*
X0086000Y0016300D01*
X0086000Y0016750D01*
X0076000Y0016300D02*
X0076238Y0009213D01*
X0072900Y0005875D01*
X0056212Y0005875D01*
X0051000Y0011300D01*
X0041000Y0011300D02*
X0040500Y0011300D01*
X0035075Y0005875D01*
X0019500Y0005875D01*
X0016162Y0009213D01*
X0016162Y0032025D01*
X0011712Y0036475D01*
X0126000Y0076300D02*
X0131000Y0076300D01*
X0141000Y0076300D02*
X0146000Y0076300D01*
X0151000Y0071300D01*
X0136000Y0056300D02*
X0130750Y0051050D01*
X0140763Y0011537D02*
X0141000Y0011300D01*
D15*
X0137250Y0072550D02*
X0134750Y0072550D01*
X0131000Y0076300D01*
X0137250Y0072550D02*
X0141000Y0076300D01*
D16*
X0121850Y0053712D03*
X0125625Y0028125D03*
X0130750Y0021450D03*
X0095150Y0028125D03*
M02*
