%
M48
M72
T01C0.0276
T02C0.0320
%
T01
X12600Y2630
T02
X1100Y1130
X2100Y1130
X3100Y1130
X4100Y1130
X5100Y1130
X6100Y1130
X7100Y1130
X8100Y1130
X9100Y1130
X10100Y1130
X11100Y1130
X12100Y1130
X13100Y1130
X14100Y1130
X15100Y1130
X16100Y1130
X17100Y1130
X18100Y1130
X19100Y1130
X20100Y1130
X21100Y1130
X22100Y1130
X14600Y1630
X13600Y1630
X12600Y1630
X11600Y1630
X10600Y1630
X9600Y1630
X8600Y1630
X7600Y1630
X7600Y2630
X8600Y2630
X8600Y3630
X7600Y3630
X7600Y4630
X8600Y4630
X8600Y5630
X7600Y5630
X7600Y6630
X8600Y6630
X9600Y6630
X10600Y6630
X11600Y6630
X12600Y6630
X13600Y6630
X14600Y6630
X14100Y7130
X13100Y7130
X12100Y7130
X11100Y7130
X10100Y7130
X9100Y7130
X8100Y7130
X7100Y7130
X6100Y7130
X5100Y7130
X4100Y7130
X3100Y7130
X2100Y7130
X1100Y7130
X8600Y7630
X9600Y7630
X10600Y7630
X11600Y7630
X12600Y7630
X13600Y7630
X15100Y7130
X16100Y7130
X17100Y7130
X18100Y7130
X19100Y7130
X20100Y7130
X21100Y7130
X22100Y7130
X14600Y5630
X13600Y5630
X13600Y4630
X14600Y4630
X14600Y3630
X13600Y3630
X13600Y2630
X14600Y2630
X13600Y630
X12600Y630
X11600Y630
X10600Y630
X9600Y630
X8600Y630
M30
