G75*
%MOIN*%
%OFA0B0*%
%FSLAX25Y25*%
%IPPOS*%
%LPD*%
%AMOC8*
5,1,8,0,0,1.08239X$1,22.5*
%
%ADD10C,0.00000*%
%ADD11C,0.00800*%
%ADD12C,0.00400*%
%ADD13C,0.00600*%
%ADD14C,0.00500*%
D10*
X0001000Y0001300D02*
X0001000Y0081261D01*
X0229701Y0081261D01*
X0229701Y0001300D01*
X0001000Y0001300D01*
D11*
X0004898Y0011300D02*
X0004898Y0069843D01*
X0227102Y0069843D02*
X0227102Y0012757D01*
D12*
X0220800Y0016539D02*
X0217731Y0019608D01*
X0216963Y0019608D01*
X0216196Y0018841D01*
X0216196Y0017306D01*
X0216963Y0016539D01*
X0220800Y0016539D02*
X0220800Y0019608D01*
X0220033Y0021143D02*
X0220800Y0021910D01*
X0220800Y0023445D01*
X0220033Y0024212D01*
X0219265Y0024212D01*
X0218498Y0023445D01*
X0218498Y0022678D01*
X0218498Y0023445D02*
X0217731Y0024212D01*
X0216963Y0024212D01*
X0216196Y0023445D01*
X0216196Y0021910D01*
X0216963Y0021143D01*
X0216963Y0061539D02*
X0216196Y0062306D01*
X0216196Y0063841D01*
X0216963Y0064608D01*
X0217731Y0064608D01*
X0220800Y0061539D01*
X0220800Y0064608D01*
X0220800Y0066143D02*
X0217731Y0069212D01*
X0216963Y0069212D01*
X0216196Y0068445D01*
X0216196Y0066910D01*
X0216963Y0066143D01*
X0220800Y0066143D02*
X0220800Y0069212D01*
X0023749Y0054479D02*
X0019145Y0054503D01*
X0021435Y0052189D01*
X0021451Y0055259D01*
X0021427Y0050655D02*
X0021410Y0047586D01*
X0019121Y0049900D01*
X0023724Y0049875D01*
X0022937Y0046043D02*
X0023700Y0045272D01*
X0023692Y0043737D01*
X0022921Y0042974D01*
X0019852Y0042990D01*
X0019088Y0043761D01*
X0019096Y0045296D01*
X0019868Y0046059D01*
X0019844Y0041455D02*
X0019072Y0040692D01*
X0019064Y0039157D01*
X0019828Y0038386D01*
X0022897Y0038370D01*
X0023668Y0039133D01*
X0023676Y0040668D01*
X0022913Y0041439D01*
X0023656Y0036831D02*
X0023640Y0033762D01*
X0019036Y0033786D01*
X0019796Y0032247D02*
X0021330Y0032239D01*
X0022093Y0031468D01*
X0022081Y0029166D01*
X0023616Y0029158D02*
X0019012Y0029182D01*
X0019024Y0031484D01*
X0019796Y0032247D01*
X0013498Y0024212D02*
X0013498Y0021143D01*
X0011196Y0023445D01*
X0015800Y0023445D01*
X0013498Y0019608D02*
X0013498Y0016539D01*
X0011196Y0018841D01*
X0015800Y0018841D01*
X0015800Y0061539D02*
X0015800Y0064608D01*
X0015800Y0063074D02*
X0011196Y0063074D01*
X0012731Y0061539D01*
D13*
X0015712Y0051475D02*
X0007712Y0051475D01*
X0006712Y0050475D01*
X0006712Y0042475D01*
X0007712Y0041475D01*
X0006712Y0040475D01*
X0006712Y0032475D01*
X0007712Y0031475D01*
X0015712Y0031475D01*
X0016713Y0032475D01*
X0016713Y0040475D01*
X0015712Y0041475D01*
X0016713Y0042475D01*
X0016713Y0050475D01*
X0015712Y0051475D01*
X0066000Y0046300D02*
X0066000Y0036300D01*
X0071000Y0036300D01*
X0071000Y0016300D01*
X0071000Y0006300D02*
X0076000Y0001300D01*
X0151000Y0001300D02*
X0151000Y0006300D01*
X0151000Y0016300D02*
X0151000Y0066300D01*
X0151000Y0076300D02*
X0151000Y0081300D01*
X0071000Y0081300D02*
X0071000Y0076300D01*
X0071000Y0066300D02*
X0071000Y0046300D01*
X0066000Y0046300D01*
D14*
X0104746Y0045362D02*
X0109250Y0045362D01*
X0107749Y0045362D02*
X0104746Y0048364D01*
X0104746Y0049966D02*
X0109250Y0049966D01*
X0109250Y0052968D01*
X0106998Y0051467D02*
X0106998Y0049966D01*
X0104746Y0049966D02*
X0104746Y0052968D01*
X0104746Y0054570D02*
X0104746Y0057572D01*
X0104746Y0056071D02*
X0109250Y0056071D01*
X0109250Y0048364D02*
X0106998Y0046112D01*
X0105497Y0043760D02*
X0104746Y0043010D01*
X0104746Y0041508D01*
X0105497Y0040758D01*
X0108499Y0040758D01*
X0109250Y0041508D01*
X0109250Y0043010D01*
X0108499Y0043760D01*
X0108499Y0039156D02*
X0105497Y0039156D01*
X0104746Y0038406D01*
X0104746Y0036905D01*
X0105497Y0036154D01*
X0108499Y0036154D01*
X0109250Y0036905D01*
X0109250Y0038406D01*
X0108499Y0039156D01*
X0108499Y0034553D02*
X0107749Y0034553D01*
X0106998Y0033802D01*
X0106998Y0032301D01*
X0106247Y0031550D01*
X0105497Y0031550D01*
X0104746Y0032301D01*
X0104746Y0033802D01*
X0105497Y0034553D01*
X0108499Y0034553D02*
X0109250Y0033802D01*
X0109250Y0032301D01*
X0108499Y0031550D01*
X0022962Y0048622D02*
X0022212Y0048622D01*
X0021461Y0048622D02*
X0019960Y0050124D01*
X0019209Y0050124D01*
X0018459Y0049373D01*
X0018459Y0047872D01*
X0019209Y0047121D01*
M02*
