G75*
%MOIN*%
%OFA0B0*%
%FSLAX25Y25*%
%IPPOS*%
%LPD*%
%AMOC8*
5,1,8,0,0,1.08239X$1,22.5*
%
%ADD10C,0.00000*%
%ADD11C,0.00600*%
%ADD12C,0.00500*%
D10*
X0001000Y0001300D02*
X0001000Y0081261D01*
X0229701Y0081261D01*
X0229701Y0001300D01*
X0001000Y0001300D01*
D11*
X0098662Y0025125D02*
X0098662Y0031125D01*
X0098664Y0031185D01*
X0098669Y0031246D01*
X0098678Y0031305D01*
X0098691Y0031364D01*
X0098707Y0031423D01*
X0098727Y0031480D01*
X0098750Y0031535D01*
X0098777Y0031590D01*
X0098806Y0031642D01*
X0098839Y0031693D01*
X0098875Y0031742D01*
X0098913Y0031788D01*
X0098955Y0031832D01*
X0098999Y0031874D01*
X0099045Y0031912D01*
X0099094Y0031948D01*
X0099145Y0031981D01*
X0099197Y0032010D01*
X0099252Y0032037D01*
X0099307Y0032060D01*
X0099364Y0032080D01*
X0099423Y0032096D01*
X0099482Y0032109D01*
X0099541Y0032118D01*
X0099602Y0032123D01*
X0099662Y0032125D01*
X0110662Y0032125D01*
X0110722Y0032123D01*
X0110783Y0032118D01*
X0110842Y0032109D01*
X0110901Y0032096D01*
X0110960Y0032080D01*
X0111017Y0032060D01*
X0111072Y0032037D01*
X0111127Y0032010D01*
X0111179Y0031981D01*
X0111230Y0031948D01*
X0111279Y0031912D01*
X0111325Y0031874D01*
X0111369Y0031832D01*
X0111411Y0031788D01*
X0111449Y0031742D01*
X0111485Y0031693D01*
X0111518Y0031642D01*
X0111547Y0031590D01*
X0111574Y0031535D01*
X0111597Y0031480D01*
X0111617Y0031423D01*
X0111633Y0031364D01*
X0111646Y0031305D01*
X0111655Y0031246D01*
X0111660Y0031185D01*
X0111662Y0031125D01*
X0111662Y0025125D01*
X0111660Y0025065D01*
X0111655Y0025004D01*
X0111646Y0024945D01*
X0111633Y0024886D01*
X0111617Y0024827D01*
X0111597Y0024770D01*
X0111574Y0024715D01*
X0111547Y0024660D01*
X0111518Y0024608D01*
X0111485Y0024557D01*
X0111449Y0024508D01*
X0111411Y0024462D01*
X0111369Y0024418D01*
X0111325Y0024376D01*
X0111279Y0024338D01*
X0111230Y0024302D01*
X0111179Y0024269D01*
X0111127Y0024240D01*
X0111072Y0024213D01*
X0111017Y0024190D01*
X0110960Y0024170D01*
X0110901Y0024154D01*
X0110842Y0024141D01*
X0110783Y0024132D01*
X0110722Y0024127D01*
X0110662Y0024125D01*
X0099662Y0024125D01*
X0099602Y0024127D01*
X0099541Y0024132D01*
X0099482Y0024141D01*
X0099423Y0024154D01*
X0099364Y0024170D01*
X0099307Y0024190D01*
X0099252Y0024213D01*
X0099197Y0024240D01*
X0099145Y0024269D01*
X0099094Y0024302D01*
X0099045Y0024338D01*
X0098999Y0024376D01*
X0098955Y0024418D01*
X0098913Y0024462D01*
X0098875Y0024508D01*
X0098839Y0024557D01*
X0098806Y0024608D01*
X0098777Y0024660D01*
X0098750Y0024715D01*
X0098727Y0024770D01*
X0098707Y0024827D01*
X0098691Y0024886D01*
X0098678Y0024945D01*
X0098669Y0025004D01*
X0098664Y0025065D01*
X0098662Y0025125D01*
X0093325Y0037475D02*
X0110325Y0037475D01*
X0110385Y0037477D01*
X0110446Y0037482D01*
X0110505Y0037491D01*
X0110564Y0037504D01*
X0110623Y0037520D01*
X0110680Y0037540D01*
X0110735Y0037563D01*
X0110790Y0037590D01*
X0110842Y0037619D01*
X0110893Y0037652D01*
X0110942Y0037688D01*
X0110988Y0037726D01*
X0111032Y0037768D01*
X0111074Y0037812D01*
X0111112Y0037858D01*
X0111148Y0037907D01*
X0111181Y0037958D01*
X0111210Y0038010D01*
X0111237Y0038065D01*
X0111260Y0038120D01*
X0111280Y0038177D01*
X0111296Y0038236D01*
X0111309Y0038295D01*
X0111318Y0038354D01*
X0111323Y0038415D01*
X0111325Y0038475D01*
X0111325Y0044475D01*
X0111323Y0044535D01*
X0111318Y0044596D01*
X0111309Y0044655D01*
X0111296Y0044714D01*
X0111280Y0044773D01*
X0111260Y0044830D01*
X0111237Y0044885D01*
X0111210Y0044940D01*
X0111181Y0044992D01*
X0111148Y0045043D01*
X0111112Y0045092D01*
X0111074Y0045138D01*
X0111032Y0045182D01*
X0110988Y0045224D01*
X0110942Y0045262D01*
X0110893Y0045298D01*
X0110842Y0045331D01*
X0110790Y0045360D01*
X0110735Y0045387D01*
X0110680Y0045410D01*
X0110623Y0045430D01*
X0110564Y0045446D01*
X0110505Y0045459D01*
X0110446Y0045468D01*
X0110385Y0045473D01*
X0110325Y0045475D01*
X0093325Y0045475D01*
X0093265Y0045473D01*
X0093204Y0045468D01*
X0093145Y0045459D01*
X0093086Y0045446D01*
X0093027Y0045430D01*
X0092970Y0045410D01*
X0092915Y0045387D01*
X0092860Y0045360D01*
X0092808Y0045331D01*
X0092757Y0045298D01*
X0092708Y0045262D01*
X0092662Y0045224D01*
X0092618Y0045182D01*
X0092576Y0045138D01*
X0092538Y0045092D01*
X0092502Y0045043D01*
X0092469Y0044992D01*
X0092440Y0044940D01*
X0092413Y0044885D01*
X0092390Y0044830D01*
X0092370Y0044773D01*
X0092354Y0044714D01*
X0092341Y0044655D01*
X0092332Y0044596D01*
X0092327Y0044535D01*
X0092325Y0044475D01*
X0092325Y0038475D01*
X0092327Y0038415D01*
X0092332Y0038354D01*
X0092341Y0038295D01*
X0092354Y0038236D01*
X0092370Y0038177D01*
X0092390Y0038120D01*
X0092413Y0038065D01*
X0092440Y0038010D01*
X0092469Y0037958D01*
X0092502Y0037907D01*
X0092538Y0037858D01*
X0092576Y0037812D01*
X0092618Y0037768D01*
X0092662Y0037726D01*
X0092708Y0037688D01*
X0092757Y0037652D01*
X0092808Y0037619D01*
X0092860Y0037590D01*
X0092915Y0037563D01*
X0092970Y0037540D01*
X0093027Y0037520D01*
X0093086Y0037504D01*
X0093145Y0037491D01*
X0093204Y0037482D01*
X0093265Y0037477D01*
X0093325Y0037475D01*
X0099662Y0049712D02*
X0110662Y0049712D01*
X0110722Y0049714D01*
X0110783Y0049719D01*
X0110842Y0049728D01*
X0110901Y0049741D01*
X0110960Y0049757D01*
X0111017Y0049777D01*
X0111072Y0049800D01*
X0111127Y0049827D01*
X0111179Y0049856D01*
X0111230Y0049889D01*
X0111279Y0049925D01*
X0111325Y0049963D01*
X0111369Y0050005D01*
X0111411Y0050049D01*
X0111449Y0050095D01*
X0111485Y0050144D01*
X0111518Y0050195D01*
X0111547Y0050247D01*
X0111574Y0050302D01*
X0111597Y0050357D01*
X0111617Y0050414D01*
X0111633Y0050473D01*
X0111646Y0050532D01*
X0111655Y0050591D01*
X0111660Y0050652D01*
X0111662Y0050712D01*
X0111662Y0056712D01*
X0111660Y0056772D01*
X0111655Y0056833D01*
X0111646Y0056892D01*
X0111633Y0056951D01*
X0111617Y0057010D01*
X0111597Y0057067D01*
X0111574Y0057122D01*
X0111547Y0057177D01*
X0111518Y0057229D01*
X0111485Y0057280D01*
X0111449Y0057329D01*
X0111411Y0057375D01*
X0111369Y0057419D01*
X0111325Y0057461D01*
X0111279Y0057499D01*
X0111230Y0057535D01*
X0111179Y0057568D01*
X0111127Y0057597D01*
X0111072Y0057624D01*
X0111017Y0057647D01*
X0110960Y0057667D01*
X0110901Y0057683D01*
X0110842Y0057696D01*
X0110783Y0057705D01*
X0110722Y0057710D01*
X0110662Y0057712D01*
X0099662Y0057712D01*
X0099602Y0057710D01*
X0099541Y0057705D01*
X0099482Y0057696D01*
X0099423Y0057683D01*
X0099364Y0057667D01*
X0099307Y0057647D01*
X0099252Y0057624D01*
X0099197Y0057597D01*
X0099145Y0057568D01*
X0099094Y0057535D01*
X0099045Y0057499D01*
X0098999Y0057461D01*
X0098955Y0057419D01*
X0098913Y0057375D01*
X0098875Y0057329D01*
X0098839Y0057280D01*
X0098806Y0057229D01*
X0098777Y0057177D01*
X0098750Y0057122D01*
X0098727Y0057067D01*
X0098707Y0057010D01*
X0098691Y0056951D01*
X0098678Y0056892D01*
X0098669Y0056833D01*
X0098664Y0056772D01*
X0098662Y0056712D01*
X0098662Y0050712D01*
X0098664Y0050652D01*
X0098669Y0050591D01*
X0098678Y0050532D01*
X0098691Y0050473D01*
X0098707Y0050414D01*
X0098727Y0050357D01*
X0098750Y0050302D01*
X0098777Y0050247D01*
X0098806Y0050195D01*
X0098839Y0050144D01*
X0098875Y0050095D01*
X0098913Y0050049D01*
X0098955Y0050005D01*
X0098999Y0049963D01*
X0099045Y0049925D01*
X0099094Y0049889D01*
X0099145Y0049856D01*
X0099197Y0049827D01*
X0099252Y0049800D01*
X0099307Y0049777D01*
X0099364Y0049757D01*
X0099423Y0049741D01*
X0099482Y0049728D01*
X0099541Y0049719D01*
X0099602Y0049714D01*
X0099662Y0049712D01*
D12*
X0098865Y0049728D02*
X0098865Y0050478D01*
X0099615Y0051229D01*
X0101117Y0051229D01*
X0101867Y0050478D01*
X0103469Y0050478D02*
X0103469Y0049728D01*
X0104970Y0048226D01*
X0104970Y0047476D02*
X0104970Y0046725D01*
X0108072Y0049728D02*
X0109574Y0048226D01*
X0109574Y0047476D02*
X0109574Y0046725D01*
X0108072Y0049728D02*
X0108072Y0050478D01*
X0108823Y0051229D01*
X0110324Y0051229D01*
X0111075Y0050478D01*
X0106471Y0050478D02*
X0105720Y0051229D01*
X0104219Y0051229D01*
X0103469Y0050478D01*
X0100366Y0048226D02*
X0098865Y0049728D01*
X0100366Y0047476D02*
X0100366Y0046725D01*
X0100703Y0058462D02*
X0100703Y0059213D01*
X0100703Y0059964D02*
X0099202Y0061465D01*
X0099202Y0062216D01*
X0099953Y0062966D01*
X0101454Y0062966D01*
X0102205Y0062216D01*
X0103806Y0062216D02*
X0103806Y0061465D01*
X0105307Y0059964D01*
X0105307Y0059213D02*
X0105307Y0058462D01*
X0108410Y0061465D02*
X0109911Y0059964D01*
X0109911Y0059213D02*
X0109911Y0058462D01*
X0108410Y0061465D02*
X0108410Y0062216D01*
X0109161Y0062966D01*
X0110662Y0062966D01*
X0111412Y0062216D01*
X0106809Y0062216D02*
X0106058Y0062966D01*
X0104557Y0062966D01*
X0103806Y0062216D01*
X0097601Y0062216D02*
X0096850Y0062966D01*
X0095349Y0062966D01*
X0094598Y0062216D01*
X0094598Y0061465D01*
X0096099Y0059964D01*
X0096099Y0059213D02*
X0096099Y0058462D01*
X0100765Y0023379D02*
X0100014Y0022628D01*
X0100014Y0021878D01*
X0101515Y0020376D01*
X0101515Y0019626D02*
X0101515Y0018875D01*
X0106119Y0018875D02*
X0106119Y0019626D01*
X0106119Y0020376D02*
X0104618Y0021878D01*
X0104618Y0022628D01*
X0105368Y0023379D01*
X0106870Y0023379D01*
X0107620Y0022628D01*
X0103016Y0022628D02*
X0102266Y0023379D01*
X0100765Y0023379D01*
M02*
