G75*
%MOIN*%
%OFA0B0*%
%FSLAX25Y25*%
%IPPOS*%
%LPD*%
%AMOC8*
5,1,8,0,0,1.08239X$1,22.5*
%
%ADD10C,0.00000*%
%ADD11C,0.00600*%
%ADD12C,0.00800*%
%ADD13C,0.00400*%
%ADD14C,0.00500*%
D10*
X0001000Y0001301D02*
X0001000Y0081261D01*
X0230999Y0081260D01*
X0230999Y0001300D01*
X0001000Y0001301D01*
D11*
X0070999Y0006300D02*
X0075999Y0001300D01*
X0070999Y0016300D02*
X0070999Y0036300D01*
X0065999Y0036300D01*
X0065999Y0046300D01*
X0070999Y0046300D01*
X0070999Y0066300D01*
X0070999Y0076300D02*
X0070999Y0081300D01*
X0150999Y0081300D02*
X0150999Y0076300D01*
X0150999Y0066300D02*
X0150999Y0016300D01*
X0153799Y0024100D02*
X0153799Y0030505D01*
X0157002Y0030505D01*
X0158070Y0029438D01*
X0158070Y0027303D01*
X0157002Y0026235D01*
X0153799Y0026235D01*
X0160245Y0025168D02*
X0161312Y0024100D01*
X0163447Y0024100D01*
X0164515Y0025168D01*
X0160245Y0025168D02*
X0160245Y0029438D01*
X0161312Y0030505D01*
X0163447Y0030505D01*
X0164515Y0029438D01*
X0173136Y0030505D02*
X0173136Y0026235D01*
X0175271Y0024100D01*
X0177406Y0026235D01*
X0177406Y0030505D01*
X0179581Y0028370D02*
X0181716Y0030505D01*
X0181716Y0024100D01*
X0179581Y0024100D02*
X0183852Y0024100D01*
X0186027Y0024100D02*
X0186027Y0025168D01*
X0187094Y0025168D01*
X0187094Y0024100D01*
X0186027Y0024100D01*
X0189249Y0024100D02*
X0193520Y0024100D01*
X0191385Y0024100D02*
X0191385Y0030505D01*
X0189249Y0028370D01*
X0192472Y0036600D02*
X0192472Y0043005D01*
X0196743Y0036600D01*
X0196743Y0043005D01*
X0198918Y0041938D02*
X0198918Y0037668D01*
X0199985Y0036600D01*
X0202120Y0036600D01*
X0203188Y0037668D01*
X0205363Y0039803D02*
X0209634Y0039803D01*
X0211809Y0040870D02*
X0212876Y0039803D01*
X0215011Y0039803D01*
X0216079Y0038735D01*
X0216079Y0037668D01*
X0215011Y0036600D01*
X0212876Y0036600D01*
X0211809Y0037668D01*
X0218254Y0036600D02*
X0218254Y0040870D01*
X0220389Y0043005D01*
X0222524Y0040870D01*
X0222524Y0036600D01*
X0222524Y0039803D02*
X0218254Y0039803D01*
X0216079Y0041938D02*
X0215011Y0043005D01*
X0212876Y0043005D01*
X0211809Y0041938D01*
X0211809Y0040870D01*
X0203188Y0041938D02*
X0202120Y0043005D01*
X0199985Y0043005D01*
X0198918Y0041938D01*
X0190297Y0039803D02*
X0186027Y0039803D01*
X0183852Y0041938D02*
X0183852Y0043005D01*
X0183852Y0041938D02*
X0181716Y0039803D01*
X0181716Y0036600D01*
X0177406Y0037668D02*
X0177406Y0038735D01*
X0176338Y0039803D01*
X0173136Y0039803D01*
X0176338Y0039803D02*
X0177406Y0040870D01*
X0177406Y0041938D01*
X0176338Y0043005D01*
X0173136Y0043005D01*
X0173136Y0036600D01*
X0176338Y0036600D01*
X0177406Y0037668D01*
X0179581Y0041938D02*
X0181716Y0039803D01*
X0179581Y0041938D02*
X0179581Y0043005D01*
X0182784Y0049100D02*
X0182784Y0055505D01*
X0179581Y0052303D01*
X0183852Y0052303D01*
X0189229Y0055505D02*
X0190297Y0054438D01*
X0190297Y0050168D01*
X0189229Y0049100D01*
X0186027Y0049100D01*
X0186027Y0055505D01*
X0189229Y0055505D01*
X0192472Y0055505D02*
X0194607Y0055505D01*
X0193540Y0055505D02*
X0193540Y0049100D01*
X0194607Y0049100D02*
X0192472Y0049100D01*
X0196769Y0049100D02*
X0196769Y0055505D01*
X0199972Y0055505D01*
X0201040Y0054438D01*
X0201040Y0052303D01*
X0199972Y0051235D01*
X0196769Y0051235D01*
X0203215Y0052303D02*
X0207485Y0052303D01*
X0209660Y0052303D02*
X0213930Y0052303D01*
X0212863Y0055505D02*
X0209660Y0052303D01*
X0206417Y0055505D02*
X0203215Y0052303D01*
X0206417Y0055505D02*
X0206417Y0049100D01*
X0212863Y0049100D02*
X0212863Y0055505D01*
X0177406Y0052303D02*
X0173136Y0052303D01*
X0176338Y0055505D01*
X0176338Y0049100D01*
X0170961Y0049100D02*
X0170961Y0053370D01*
X0168825Y0055505D01*
X0166690Y0053370D01*
X0166690Y0049100D01*
X0164515Y0050168D02*
X0164515Y0052303D01*
X0162380Y0052303D01*
X0158070Y0052303D02*
X0157002Y0051235D01*
X0153799Y0051235D01*
X0158070Y0052303D02*
X0158070Y0054438D01*
X0157002Y0055505D01*
X0153799Y0055505D01*
X0153799Y0049100D01*
X0160245Y0050168D02*
X0161312Y0049100D01*
X0163447Y0049100D01*
X0164515Y0050168D01*
X0160245Y0050168D02*
X0160245Y0054438D01*
X0161312Y0055505D01*
X0163447Y0055505D01*
X0164515Y0054438D01*
X0166690Y0052303D02*
X0170961Y0052303D01*
X0163447Y0043005D02*
X0161312Y0043005D01*
X0160245Y0041938D01*
X0160245Y0037668D01*
X0161312Y0036600D01*
X0163447Y0036600D01*
X0164515Y0037668D01*
X0158070Y0037668D02*
X0157002Y0036600D01*
X0154867Y0036600D01*
X0153799Y0037668D01*
X0153799Y0041938D01*
X0154867Y0043005D01*
X0157002Y0043005D01*
X0158070Y0041938D01*
X0163447Y0043005D02*
X0164515Y0041938D01*
X0150999Y0006300D02*
X0150999Y0001300D01*
D12*
X0227102Y0012757D02*
X0227102Y0069844D01*
X0004898Y0069844D02*
X0004898Y0011301D01*
D13*
X0011196Y0018074D02*
X0012731Y0016540D01*
X0011196Y0018074D02*
X0015800Y0018074D01*
X0015800Y0016540D02*
X0015800Y0019609D01*
X0013498Y0056540D02*
X0013498Y0059609D01*
X0011196Y0058841D02*
X0013498Y0056540D01*
X0015800Y0058841D02*
X0011196Y0058841D01*
X0013498Y0061143D02*
X0013498Y0064213D01*
X0011196Y0063445D02*
X0013498Y0061143D01*
X0015800Y0063445D02*
X0011196Y0063445D01*
X0216196Y0063445D02*
X0216196Y0061911D01*
X0216963Y0061143D01*
X0218498Y0062678D02*
X0218498Y0063445D01*
X0219265Y0064213D01*
X0220033Y0064213D01*
X0220800Y0063445D01*
X0220800Y0061911D01*
X0220033Y0061143D01*
X0220800Y0059609D02*
X0220800Y0056540D01*
X0217731Y0059609D01*
X0216963Y0059609D01*
X0216196Y0058841D01*
X0216196Y0057307D01*
X0216963Y0056540D01*
X0216196Y0063445D02*
X0216963Y0064213D01*
X0217731Y0064213D01*
X0218498Y0063445D01*
X0217731Y0024213D02*
X0216963Y0024213D01*
X0216196Y0023445D01*
X0216196Y0021911D01*
X0216963Y0021143D01*
X0216963Y0019609D02*
X0216196Y0018841D01*
X0216196Y0017307D01*
X0216963Y0016540D01*
X0217731Y0019609D02*
X0220800Y0016540D01*
X0220800Y0019609D01*
X0220800Y0021143D02*
X0217731Y0024213D01*
X0220800Y0024213D02*
X0220800Y0021143D01*
X0217731Y0019609D02*
X0216963Y0019609D01*
D14*
X0109249Y0031550D02*
X0104745Y0031550D01*
X0104745Y0033802D01*
X0105496Y0034553D01*
X0106997Y0034553D01*
X0107748Y0033802D01*
X0107748Y0031550D01*
X0109249Y0036154D02*
X0104745Y0036154D01*
X0109249Y0036154D02*
X0109249Y0039156D01*
X0108499Y0040758D02*
X0105496Y0040758D01*
X0104745Y0041508D01*
X0104745Y0043010D01*
X0105496Y0043760D01*
X0108499Y0043760D02*
X0109249Y0043010D01*
X0109249Y0041508D01*
X0108499Y0040758D01*
X0108499Y0045362D02*
X0105496Y0045362D01*
X0104745Y0046112D01*
X0104745Y0047614D01*
X0105496Y0048364D01*
X0108499Y0048364D02*
X0109249Y0047614D01*
X0109249Y0046112D01*
X0108499Y0045362D01*
X0106997Y0049966D02*
X0106997Y0052968D01*
X0104745Y0052218D02*
X0106997Y0049966D01*
X0109249Y0052218D02*
X0104745Y0052218D01*
X0106997Y0054570D02*
X0106997Y0057572D01*
X0104745Y0056822D02*
X0106997Y0054570D01*
X0109249Y0056822D02*
X0104745Y0056822D01*
M02*
