G75*
%MOIN*%
%OFA0B0*%
%FSLAX25Y25*%
%IPPOS*%
%LPD*%
%AMOC8*
5,1,8,0,0,1.08239X$1,22.5*
%
%ADD10C,0.00000*%
%ADD11R,0.08100X0.08100*%
%ADD12C,0.08100*%
%ADD13OC8,0.05200*%
%ADD14C,0.06000*%
%ADD15OC8,0.06000*%
%ADD16C,0.03200*%
%ADD17C,0.04000*%
%ADD18C,0.01000*%
%ADD19C,0.00600*%
%ADD20C,0.01600*%
D10*
X0001000Y0001301D02*
X0001000Y0081261D01*
X0230999Y0081260D01*
X0230999Y0001300D01*
X0001000Y0001301D01*
D11*
X0017499Y0028800D03*
D12*
X0017499Y0038800D03*
X0017499Y0048800D03*
D13*
X0050999Y0051300D03*
X0070999Y0051300D03*
X0085999Y0046300D03*
X0095999Y0046300D03*
X0095999Y0056300D03*
X0085999Y0056300D03*
X0085999Y0066300D03*
X0095999Y0066300D03*
X0105999Y0066300D03*
X0115999Y0066300D03*
X0125999Y0066300D03*
X0135999Y0066300D03*
X0145999Y0066300D03*
X0155999Y0066300D03*
X0150999Y0071300D03*
X0160999Y0071300D03*
X0170999Y0071300D03*
X0180999Y0071300D03*
X0190999Y0071300D03*
X0200999Y0071300D03*
X0210999Y0071300D03*
X0220999Y0071300D03*
X0185999Y0051300D03*
X0165999Y0051300D03*
X0155999Y0046300D03*
X0145999Y0046300D03*
X0145999Y0056300D03*
X0155999Y0056300D03*
X0140999Y0071300D03*
X0130999Y0071300D03*
X0120999Y0071300D03*
X0110999Y0071300D03*
X0100999Y0071300D03*
X0090999Y0071300D03*
X0080999Y0071300D03*
X0070999Y0071300D03*
X0060999Y0071300D03*
X0050999Y0071300D03*
X0040999Y0071300D03*
X0030999Y0071300D03*
X0020999Y0071300D03*
X0010999Y0071300D03*
X0015999Y0066300D03*
X0025999Y0066300D03*
X0033499Y0063800D03*
X0043499Y0063800D03*
X0095999Y0076300D03*
X0105999Y0076300D03*
X0115999Y0076300D03*
X0125999Y0076300D03*
X0135999Y0076300D03*
X0145999Y0076300D03*
X0145999Y0036300D03*
X0155999Y0036300D03*
X0165999Y0033800D03*
X0155999Y0026300D03*
X0145999Y0026300D03*
X0145999Y0016300D03*
X0135999Y0016300D03*
X0125999Y0016300D03*
X0115999Y0016300D03*
X0105999Y0016300D03*
X0095999Y0016300D03*
X0085999Y0016300D03*
X0080999Y0011300D03*
X0070999Y0011300D03*
X0060999Y0011300D03*
X0050999Y0011300D03*
X0040999Y0011300D03*
X0030999Y0011300D03*
X0020999Y0011300D03*
X0010999Y0011300D03*
X0050999Y0033800D03*
X0070999Y0033800D03*
X0085999Y0036300D03*
X0095999Y0036300D03*
X0095999Y0026300D03*
X0085999Y0026300D03*
X0090999Y0011300D03*
X0100999Y0011300D03*
X0110999Y0011300D03*
X0120999Y0011300D03*
X0130999Y0011300D03*
X0140999Y0011300D03*
X0150999Y0011300D03*
X0160999Y0011300D03*
X0170999Y0011300D03*
X0180999Y0011300D03*
X0190999Y0011300D03*
X0200999Y0011300D03*
X0210999Y0011300D03*
X0220999Y0011300D03*
X0185999Y0033800D03*
X0155999Y0016300D03*
X0145999Y0006300D03*
X0135999Y0006300D03*
X0125999Y0006300D03*
X0115999Y0006300D03*
X0105999Y0006300D03*
X0095999Y0006300D03*
D14*
X0036499Y0028800D02*
X0030499Y0028800D01*
X0030499Y0038800D02*
X0036499Y0038800D01*
X0036499Y0048800D02*
X0030499Y0048800D01*
X0207999Y0051300D02*
X0213999Y0051300D01*
X0213999Y0041300D02*
X0207999Y0041300D01*
X0207999Y0031300D02*
X0213999Y0031300D01*
X0213999Y0021300D02*
X0207999Y0021300D01*
X0207999Y0061300D02*
X0213999Y0061300D01*
D15*
X0198499Y0021300D03*
D16*
X0208499Y0011300D01*
X0210999Y0011300D01*
X0185999Y0033800D02*
X0180999Y0028800D01*
X0163499Y0028800D01*
X0160799Y0031500D01*
X0150799Y0031500D01*
X0145999Y0036300D01*
X0141199Y0041100D01*
X0141199Y0053800D01*
X0125999Y0053800D01*
X0113499Y0051300D02*
X0138499Y0026300D01*
X0145999Y0026300D01*
X0185999Y0033800D02*
X0185999Y0051300D01*
X0141199Y0053800D02*
X0141199Y0071100D01*
X0140999Y0071300D01*
X0136639Y0075661D01*
X0050999Y0051300D02*
X0050999Y0033800D01*
X0033499Y0028800D02*
X0017499Y0028800D01*
X0017499Y0048800D02*
X0033499Y0048800D01*
D17*
X0063699Y0059800D03*
X0113499Y0058000D03*
X0125999Y0053800D03*
X0113499Y0051300D03*
D18*
X0107199Y0051700D02*
X0113499Y0058000D01*
X0107199Y0061600D02*
X0094599Y0061600D01*
X0090999Y0065200D01*
X0090999Y0071300D01*
X0085599Y0067000D02*
X0085999Y0066300D01*
X0085599Y0067000D02*
X0054999Y0067000D01*
X0051399Y0070600D01*
X0050999Y0071300D01*
X0045986Y0070468D02*
X0045986Y0073787D01*
X0045999Y0073800D01*
X0043799Y0076000D01*
X0026199Y0076000D01*
X0021699Y0071500D01*
X0020999Y0071300D01*
X0030999Y0071300D02*
X0034799Y0067500D01*
X0046692Y0067500D01*
X0050592Y0063600D01*
X0072799Y0063600D01*
X0079299Y0057100D01*
X0085599Y0057100D01*
X0085999Y0056300D01*
X0090999Y0057100D02*
X0086499Y0061600D01*
X0077499Y0061600D01*
X0073899Y0065200D01*
X0051255Y0065200D01*
X0045986Y0070468D01*
X0060999Y0071300D02*
X0065999Y0076300D01*
X0095999Y0076300D01*
X0107199Y0061600D02*
X0111699Y0066100D01*
X0115299Y0066100D01*
X0115999Y0066300D01*
X0095999Y0056300D02*
X0095499Y0057100D01*
X0090999Y0057100D01*
X0081999Y0051700D02*
X0107199Y0051700D01*
X0095999Y0046300D02*
X0095499Y0046300D01*
X0090999Y0041800D01*
X0066499Y0041800D01*
X0048499Y0023800D01*
X0023499Y0023800D01*
X0010999Y0011300D01*
X0040999Y0011300D02*
X0055299Y0025600D01*
X0085599Y0025600D01*
X0085999Y0026300D01*
X0092014Y0022315D02*
X0062014Y0022315D01*
X0050999Y0011300D01*
X0070999Y0011300D02*
X0075999Y0006300D01*
X0095999Y0006300D01*
X0080999Y0011300D02*
X0081099Y0012100D01*
X0081099Y0017500D01*
X0083799Y0020200D01*
X0091899Y0020200D01*
X0095499Y0016600D01*
X0095999Y0016300D01*
X0092014Y0022315D02*
X0095999Y0026300D01*
X0085999Y0046300D02*
X0081232Y0046300D01*
X0071232Y0056300D01*
X0020999Y0056300D01*
X0015999Y0061300D01*
X0013499Y0061300D01*
X0010999Y0063800D01*
X0010999Y0071300D01*
X0063699Y0059800D02*
X0073899Y0059800D01*
X0081999Y0051700D01*
X0145999Y0076300D02*
X0155999Y0076300D01*
X0160999Y0071300D01*
X0165999Y0066300D02*
X0170999Y0071300D01*
X0165999Y0066300D02*
X0155999Y0066300D01*
X0155999Y0056300D02*
X0175999Y0056300D01*
X0190999Y0071300D01*
X0190999Y0066300D02*
X0206399Y0066300D01*
X0210699Y0070600D01*
X0210999Y0071300D01*
X0190999Y0066300D02*
X0170999Y0046300D01*
X0155999Y0046300D01*
D19*
X0102499Y0072800D02*
X0100999Y0071300D01*
X0102499Y0072800D02*
X0107449Y0072800D01*
X0110949Y0076300D01*
X0115999Y0076300D01*
X0096049Y0011300D02*
X0090999Y0011300D01*
X0096049Y0011300D02*
X0099549Y0007800D01*
X0104499Y0007800D01*
X0105999Y0006300D01*
X0135999Y0006300D02*
X0141049Y0006300D01*
X0144549Y0009800D01*
X0149499Y0009800D01*
X0150999Y0011300D01*
D20*
X0155999Y0006300D01*
X0222619Y0006300D01*
X0225524Y0009205D01*
X0225524Y0041775D01*
X0215999Y0051300D01*
X0210999Y0051300D01*
X0208499Y0041300D02*
X0194499Y0055300D01*
X0183699Y0055300D01*
X0170699Y0042300D01*
X0154342Y0042300D01*
X0150999Y0045643D01*
X0150999Y0061300D01*
X0145999Y0066300D01*
X0150999Y0071300D01*
X0208499Y0041300D02*
X0210999Y0041300D01*
X0215672Y0035850D02*
X0193949Y0035850D01*
X0173399Y0015300D01*
X0169342Y0015300D01*
X0165342Y0011300D01*
X0160999Y0011300D01*
X0159999Y0012300D01*
X0159999Y0018923D01*
X0157822Y0021100D01*
X0140799Y0021100D01*
X0135999Y0016300D01*
X0170999Y0011300D02*
X0173499Y0011300D01*
X0193499Y0031300D01*
X0210999Y0031300D01*
X0215672Y0035850D02*
X0218399Y0033123D01*
X0218399Y0026200D01*
X0213499Y0021300D01*
X0210999Y0021300D01*
X0033499Y0063800D02*
X0030999Y0066300D01*
X0025999Y0066300D01*
M02*
