G75*
%MOIN*%
%OFA0B0*%
%FSLAX25Y25*%
%IPPOS*%
%LPD*%
%AMOC8*
5,1,8,0,0,1.08239X$1,22.5*
%
%ADD10C,0.00000*%
%ADD11R,0.08100X0.08100*%
%ADD12C,0.08100*%
%ADD13OC8,0.05200*%
%ADD14C,0.06000*%
%ADD15OC8,0.06000*%
%ADD16C,0.03200*%
%ADD17C,0.01600*%
%ADD18C,0.04000*%
%ADD19C,0.01000*%
%ADD20C,0.00600*%
D10*
X0001000Y0001301D02*
X0001000Y0081261D01*
X0230999Y0081260D01*
X0230999Y0001300D01*
X0001000Y0001301D01*
D11*
X0017499Y0028800D03*
D12*
X0017499Y0038800D03*
X0017499Y0048800D03*
D13*
X0050999Y0051300D03*
X0070999Y0051300D03*
X0085999Y0046300D03*
X0095999Y0046300D03*
X0095999Y0056300D03*
X0085999Y0056300D03*
X0085999Y0066300D03*
X0095999Y0066300D03*
X0105999Y0066300D03*
X0115999Y0066300D03*
X0125999Y0066300D03*
X0135999Y0066300D03*
X0145999Y0066300D03*
X0155999Y0066300D03*
X0150999Y0071300D03*
X0160999Y0071300D03*
X0170999Y0071300D03*
X0180999Y0071300D03*
X0190999Y0071300D03*
X0200999Y0071300D03*
X0210999Y0071300D03*
X0220999Y0071300D03*
X0185999Y0051300D03*
X0165999Y0051300D03*
X0155999Y0046300D03*
X0145999Y0046300D03*
X0145999Y0056300D03*
X0155999Y0056300D03*
X0140999Y0071300D03*
X0130999Y0071300D03*
X0120999Y0071300D03*
X0110999Y0071300D03*
X0100999Y0071300D03*
X0090999Y0071300D03*
X0080999Y0071300D03*
X0070999Y0071300D03*
X0060999Y0071300D03*
X0050999Y0071300D03*
X0040999Y0071300D03*
X0030999Y0071300D03*
X0020999Y0071300D03*
X0010999Y0071300D03*
X0015999Y0066300D03*
X0025999Y0066300D03*
X0033499Y0063800D03*
X0043499Y0063800D03*
X0095999Y0076300D03*
X0105999Y0076300D03*
X0115999Y0076300D03*
X0125999Y0076300D03*
X0135999Y0076300D03*
X0145999Y0076300D03*
X0145999Y0036300D03*
X0155999Y0036300D03*
X0165999Y0033800D03*
X0155999Y0026300D03*
X0145999Y0026300D03*
X0145999Y0016300D03*
X0135999Y0016300D03*
X0125999Y0016300D03*
X0115999Y0016300D03*
X0105999Y0016300D03*
X0095999Y0016300D03*
X0085999Y0016300D03*
X0080999Y0011300D03*
X0070999Y0011300D03*
X0060999Y0011300D03*
X0050999Y0011300D03*
X0040999Y0011300D03*
X0030999Y0011300D03*
X0020999Y0011300D03*
X0010999Y0011300D03*
X0050999Y0033800D03*
X0070999Y0033800D03*
X0085999Y0036300D03*
X0095999Y0036300D03*
X0095999Y0026300D03*
X0085999Y0026300D03*
X0090999Y0011300D03*
X0100999Y0011300D03*
X0110999Y0011300D03*
X0120999Y0011300D03*
X0130999Y0011300D03*
X0140999Y0011300D03*
X0150999Y0011300D03*
X0160999Y0011300D03*
X0170999Y0011300D03*
X0180999Y0011300D03*
X0190999Y0011300D03*
X0200999Y0011300D03*
X0210999Y0011300D03*
X0220999Y0011300D03*
X0185999Y0033800D03*
X0155999Y0016300D03*
X0145999Y0006300D03*
X0135999Y0006300D03*
X0125999Y0006300D03*
X0115999Y0006300D03*
X0105999Y0006300D03*
X0095999Y0006300D03*
D14*
X0036499Y0028800D02*
X0030499Y0028800D01*
X0030499Y0038800D02*
X0036499Y0038800D01*
X0036499Y0048800D02*
X0030499Y0048800D01*
X0207999Y0051300D02*
X0213999Y0051300D01*
X0213999Y0041300D02*
X0207999Y0041300D01*
X0207999Y0031300D02*
X0213999Y0031300D01*
X0213999Y0021300D02*
X0207999Y0021300D01*
X0207999Y0061300D02*
X0213999Y0061300D01*
D15*
X0198499Y0021300D03*
D16*
X0191659Y0028140D01*
X0191659Y0035640D01*
X0188499Y0038800D01*
X0183499Y0038800D01*
X0178499Y0033800D01*
X0165999Y0033800D01*
X0160570Y0033800D01*
X0157870Y0031100D01*
X0154011Y0031100D01*
X0149211Y0026300D01*
X0145999Y0026300D01*
X0120999Y0041300D02*
X0100999Y0041300D01*
X0078499Y0041300D01*
X0070999Y0033800D01*
X0065999Y0028800D01*
X0033499Y0028800D01*
X0033499Y0038800D02*
X0038499Y0038800D01*
X0043499Y0043800D01*
X0063499Y0043800D01*
X0070999Y0051300D01*
X0080999Y0061300D01*
X0090999Y0061300D01*
X0095999Y0066300D01*
X0098499Y0066300D01*
X0113499Y0051300D01*
X0120999Y0041300D02*
X0130999Y0051300D01*
X0165999Y0051300D01*
X0130999Y0051300D02*
X0130999Y0066300D01*
X0135999Y0066300D01*
X0130999Y0066300D02*
X0130999Y0071300D01*
X0100999Y0041300D02*
X0100999Y0011300D01*
X0043499Y0043800D02*
X0043499Y0063800D01*
X0043499Y0068800D01*
X0040999Y0071300D01*
D17*
X0044999Y0071543D02*
X0044999Y0072957D01*
X0042656Y0075300D01*
X0039342Y0075300D01*
X0036999Y0072957D01*
X0036999Y0069643D01*
X0039342Y0067300D01*
X0040499Y0067300D01*
X0040499Y0066457D01*
X0039499Y0065457D01*
X0039499Y0062143D01*
X0040499Y0061143D01*
X0040499Y0050641D01*
X0040229Y0051292D01*
X0038992Y0052530D01*
X0037374Y0053200D01*
X0029624Y0053200D01*
X0028007Y0052530D01*
X0026769Y0051292D01*
X0026099Y0049675D01*
X0026099Y0047925D01*
X0026769Y0046308D01*
X0028007Y0045070D01*
X0029624Y0044400D01*
X0037374Y0044400D01*
X0038992Y0045070D01*
X0040229Y0046308D01*
X0040499Y0046959D01*
X0040499Y0045043D01*
X0038281Y0042824D01*
X0037374Y0043200D01*
X0029624Y0043200D01*
X0028007Y0042530D01*
X0026769Y0041292D01*
X0026099Y0039675D01*
X0026099Y0037925D01*
X0026769Y0036308D01*
X0028007Y0035070D01*
X0029624Y0034400D01*
X0037374Y0034400D01*
X0038992Y0035070D01*
X0040164Y0036243D01*
X0040199Y0036257D01*
X0044742Y0040800D01*
X0064096Y0040800D01*
X0065199Y0041257D01*
X0066042Y0042101D01*
X0071242Y0047300D01*
X0072656Y0047300D01*
X0074999Y0049643D01*
X0074999Y0051057D01*
X0082242Y0058300D01*
X0082342Y0058300D01*
X0081999Y0057957D01*
X0081999Y0054643D01*
X0084342Y0052300D01*
X0087656Y0052300D01*
X0089999Y0054643D01*
X0089999Y0057957D01*
X0089656Y0058300D01*
X0091596Y0058300D01*
X0092699Y0058757D01*
X0096242Y0062300D01*
X0097656Y0062300D01*
X0097956Y0062600D01*
X0110217Y0050340D01*
X0110617Y0049374D01*
X0111573Y0048418D01*
X0112823Y0047900D01*
X0114176Y0047900D01*
X0115425Y0048418D01*
X0116382Y0049374D01*
X0116899Y0050624D01*
X0116899Y0051976D01*
X0116382Y0053226D01*
X0115425Y0054182D01*
X0114459Y0054582D01*
X0114364Y0054678D01*
X0115425Y0055118D01*
X0116382Y0056074D01*
X0116899Y0057324D01*
X0116899Y0058676D01*
X0116475Y0059700D01*
X0117886Y0059700D01*
X0118999Y0060813D01*
X0122386Y0064200D01*
X0122442Y0064200D01*
X0124342Y0062300D01*
X0127656Y0062300D01*
X0127999Y0062643D01*
X0127999Y0052543D01*
X0119757Y0044300D01*
X0099656Y0044300D01*
X0099999Y0044643D01*
X0099999Y0047957D01*
X0097656Y0050300D01*
X0094342Y0050300D01*
X0091999Y0047957D01*
X0091999Y0044643D01*
X0092342Y0044300D01*
X0089656Y0044300D01*
X0089999Y0044643D01*
X0089999Y0047957D01*
X0087656Y0050300D01*
X0084342Y0050300D01*
X0081999Y0047957D01*
X0081999Y0044643D01*
X0082342Y0044300D01*
X0077902Y0044300D01*
X0076800Y0043843D01*
X0075956Y0042999D01*
X0070757Y0037800D01*
X0069342Y0037800D01*
X0066999Y0035457D01*
X0066999Y0034043D01*
X0064757Y0031800D01*
X0055222Y0031800D01*
X0055399Y0031977D01*
X0055399Y0033800D01*
X0055399Y0035623D01*
X0052822Y0038200D01*
X0050999Y0038200D01*
X0049177Y0038200D01*
X0046599Y0035623D01*
X0046599Y0033800D01*
X0050999Y0033800D01*
X0050999Y0033800D01*
X0050999Y0033800D01*
X0046599Y0033800D01*
X0046599Y0035623D01*
X0049177Y0038200D01*
X0050999Y0038200D01*
X0050999Y0033800D01*
X0046599Y0033800D01*
X0046599Y0031977D01*
X0046777Y0031800D01*
X0039722Y0031800D01*
X0038992Y0032530D01*
X0037374Y0033200D01*
X0029624Y0033200D01*
X0028007Y0032530D01*
X0026769Y0031292D01*
X0026099Y0029675D01*
X0026099Y0027925D01*
X0026769Y0026308D01*
X0028007Y0025070D01*
X0029624Y0024400D01*
X0031412Y0024400D01*
X0022312Y0015300D01*
X0019342Y0015300D01*
X0016999Y0012957D01*
X0016999Y0009643D01*
X0019342Y0007300D01*
X0022656Y0007300D01*
X0024999Y0009643D01*
X0024999Y0012613D01*
X0034900Y0022514D01*
X0068056Y0022514D01*
X0079942Y0034400D01*
X0082242Y0034400D01*
X0084342Y0032300D01*
X0087656Y0032300D01*
X0089999Y0034643D01*
X0089999Y0037957D01*
X0089656Y0038300D01*
X0092342Y0038300D01*
X0091999Y0037957D01*
X0091999Y0034687D01*
X0091112Y0033800D01*
X0089999Y0032687D01*
X0089999Y0026713D01*
X0089999Y0027957D01*
X0087656Y0030300D01*
X0084342Y0030300D01*
X0081999Y0027957D01*
X0081999Y0024643D01*
X0084242Y0022400D01*
X0039412Y0022400D01*
X0038299Y0021287D01*
X0032312Y0015300D01*
X0029342Y0015300D01*
X0026999Y0012957D01*
X0026999Y0009643D01*
X0029342Y0007300D01*
X0032656Y0007300D01*
X0034999Y0009643D01*
X0034999Y0012613D01*
X0040986Y0018600D01*
X0082643Y0018600D01*
X0081999Y0017957D01*
X0081999Y0017254D01*
X0064266Y0017254D01*
X0063153Y0016141D01*
X0062312Y0015300D01*
X0059342Y0015300D01*
X0056999Y0012957D01*
X0056999Y0009643D01*
X0059342Y0007300D01*
X0062656Y0007300D01*
X0064999Y0009643D01*
X0064999Y0012613D01*
X0065840Y0013454D01*
X0067496Y0013454D01*
X0066999Y0012957D01*
X0066999Y0009643D01*
X0069342Y0007300D01*
X0072656Y0007300D01*
X0074999Y0009643D01*
X0074999Y0012957D01*
X0074502Y0013454D01*
X0077496Y0013454D01*
X0076999Y0012957D01*
X0076999Y0009643D01*
X0079342Y0007300D01*
X0082656Y0007300D01*
X0084999Y0009643D01*
X0084999Y0012300D01*
X0086999Y0012300D01*
X0086999Y0009643D01*
X0089342Y0007300D01*
X0091999Y0007300D01*
X0091999Y0006100D01*
X0005800Y0006100D01*
X0005800Y0076461D01*
X0083756Y0076461D01*
X0082595Y0075300D01*
X0079342Y0075300D01*
X0076999Y0072957D01*
X0076999Y0069643D01*
X0079342Y0067300D01*
X0081999Y0067300D01*
X0081999Y0064643D01*
X0082342Y0064300D01*
X0080402Y0064300D01*
X0079300Y0063843D01*
X0078456Y0062999D01*
X0070757Y0055300D01*
X0069342Y0055300D01*
X0066999Y0052957D01*
X0066999Y0051543D01*
X0062257Y0046800D01*
X0046499Y0046800D01*
X0046499Y0061143D01*
X0047499Y0062143D01*
X0047499Y0065457D01*
X0046499Y0066457D01*
X0046499Y0069397D01*
X0046042Y0070499D01*
X0045199Y0071343D01*
X0044999Y0071543D01*
X0044999Y0072957D01*
X0042656Y0075300D01*
X0039342Y0075300D01*
X0036999Y0072957D01*
X0036999Y0069643D01*
X0039342Y0067300D01*
X0040499Y0067300D01*
X0040499Y0066457D01*
X0039499Y0065457D01*
X0039499Y0062143D01*
X0040499Y0061143D01*
X0040499Y0050641D01*
X0040229Y0051292D01*
X0038992Y0052530D01*
X0037374Y0053200D01*
X0029624Y0053200D01*
X0028007Y0052530D01*
X0026769Y0051292D01*
X0026099Y0049675D01*
X0026099Y0047925D01*
X0026769Y0046308D01*
X0028007Y0045070D01*
X0029624Y0044400D01*
X0037374Y0044400D01*
X0038992Y0045070D01*
X0040229Y0046308D01*
X0040499Y0046959D01*
X0040499Y0045043D01*
X0038281Y0042824D01*
X0037374Y0043200D01*
X0029624Y0043200D01*
X0028007Y0042530D01*
X0026769Y0041292D01*
X0026099Y0039675D01*
X0026099Y0037925D01*
X0026769Y0036308D01*
X0028007Y0035070D01*
X0029624Y0034400D01*
X0037374Y0034400D01*
X0038992Y0035070D01*
X0040164Y0036243D01*
X0040199Y0036257D01*
X0044742Y0040800D01*
X0064096Y0040800D01*
X0065199Y0041257D01*
X0066042Y0042101D01*
X0066042Y0042101D01*
X0071242Y0047300D01*
X0072656Y0047300D01*
X0074999Y0049643D01*
X0074999Y0051057D01*
X0082242Y0058300D01*
X0082342Y0058300D01*
X0081999Y0057957D01*
X0081999Y0054643D01*
X0084342Y0052300D01*
X0087656Y0052300D01*
X0089999Y0054643D01*
X0089999Y0057957D01*
X0089656Y0058300D01*
X0091596Y0058300D01*
X0092699Y0058757D01*
X0096242Y0062300D01*
X0097656Y0062300D01*
X0097956Y0062600D01*
X0110217Y0050340D01*
X0110617Y0049374D01*
X0111573Y0048418D01*
X0112823Y0047900D01*
X0114176Y0047900D01*
X0115425Y0048418D01*
X0116382Y0049374D01*
X0116899Y0050624D01*
X0116899Y0051976D01*
X0116382Y0053226D01*
X0115425Y0054182D01*
X0114459Y0054582D01*
X0114364Y0054678D01*
X0115425Y0055118D01*
X0116382Y0056074D01*
X0116899Y0057324D01*
X0116899Y0058676D01*
X0116475Y0059700D01*
X0117886Y0059700D01*
X0118999Y0060813D01*
X0122386Y0064200D01*
X0122442Y0064200D01*
X0124342Y0062300D01*
X0127656Y0062300D01*
X0127999Y0062643D01*
X0127999Y0052543D01*
X0119757Y0044300D01*
X0099656Y0044300D01*
X0099999Y0044643D01*
X0099999Y0047957D01*
X0097656Y0050300D01*
X0094342Y0050300D01*
X0091999Y0047957D01*
X0091999Y0044643D01*
X0092342Y0044300D01*
X0089656Y0044300D01*
X0089999Y0044643D01*
X0089999Y0047957D01*
X0087656Y0050300D01*
X0084342Y0050300D01*
X0081999Y0047957D01*
X0081999Y0044643D01*
X0082342Y0044300D01*
X0077902Y0044300D01*
X0076800Y0043843D01*
X0075956Y0042999D01*
X0070757Y0037800D01*
X0069342Y0037800D01*
X0066999Y0035457D01*
X0066999Y0034043D01*
X0064757Y0031800D01*
X0055222Y0031800D01*
X0055399Y0031977D01*
X0055399Y0033800D01*
X0050999Y0033800D01*
X0046599Y0033800D01*
X0046599Y0031977D01*
X0046777Y0031800D01*
X0039722Y0031800D01*
X0038992Y0032530D01*
X0037374Y0033200D01*
X0029624Y0033200D01*
X0028007Y0032530D01*
X0026769Y0031292D01*
X0026099Y0029675D01*
X0026099Y0027925D01*
X0026769Y0026308D01*
X0028007Y0025070D01*
X0029624Y0024400D01*
X0031412Y0024400D01*
X0022312Y0015300D01*
X0019342Y0015300D01*
X0016999Y0012957D01*
X0016999Y0009643D01*
X0019342Y0007300D01*
X0022656Y0007300D01*
X0024999Y0009643D01*
X0024999Y0012613D01*
X0034900Y0022514D01*
X0068056Y0022514D01*
X0079942Y0034400D01*
X0082242Y0034400D01*
X0084342Y0032300D01*
X0087656Y0032300D01*
X0089999Y0034643D01*
X0089999Y0037957D01*
X0089656Y0038300D01*
X0092342Y0038300D01*
X0091999Y0037957D01*
X0091999Y0034687D01*
X0091112Y0033800D01*
X0089999Y0032687D01*
X0089999Y0026713D01*
X0089999Y0026713D01*
X0089999Y0027957D01*
X0087656Y0030300D01*
X0084342Y0030300D01*
X0081999Y0027957D01*
X0081999Y0024643D01*
X0084242Y0022400D01*
X0039412Y0022400D01*
X0038299Y0021287D01*
X0032312Y0015300D01*
X0029342Y0015300D01*
X0026999Y0012957D01*
X0026999Y0009643D01*
X0029342Y0007300D01*
X0032656Y0007300D01*
X0034999Y0009643D01*
X0034999Y0012613D01*
X0040986Y0018600D01*
X0082643Y0018600D01*
X0081999Y0017957D01*
X0081999Y0017254D01*
X0064266Y0017254D01*
X0063153Y0016141D01*
X0062312Y0015300D01*
X0059342Y0015300D01*
X0056999Y0012957D01*
X0056999Y0009643D01*
X0059342Y0007300D01*
X0062656Y0007300D01*
X0064999Y0009643D01*
X0064999Y0012613D01*
X0065840Y0013454D01*
X0067496Y0013454D01*
X0066999Y0012957D01*
X0066999Y0009643D01*
X0069342Y0007300D01*
X0072656Y0007300D01*
X0074999Y0009643D01*
X0074999Y0012957D01*
X0074502Y0013454D01*
X0077496Y0013454D01*
X0076999Y0012957D01*
X0076999Y0009643D01*
X0079342Y0007300D01*
X0082656Y0007300D01*
X0084999Y0009643D01*
X0084999Y0012300D01*
X0086999Y0012300D01*
X0086999Y0009643D01*
X0089342Y0007300D01*
X0091999Y0007300D01*
X0091999Y0006100D01*
X0005800Y0006100D01*
X0005800Y0076461D01*
X0083756Y0076461D01*
X0082595Y0075300D01*
X0079342Y0075300D01*
X0076999Y0072957D01*
X0076999Y0069643D01*
X0079342Y0067300D01*
X0081999Y0067300D01*
X0081999Y0064643D01*
X0082342Y0064300D01*
X0080402Y0064300D01*
X0079300Y0063843D01*
X0078456Y0062999D01*
X0070757Y0055300D01*
X0069342Y0055300D01*
X0066999Y0052957D01*
X0066999Y0051543D01*
X0062257Y0046800D01*
X0046499Y0046800D01*
X0046499Y0061143D01*
X0047499Y0062143D01*
X0047499Y0065457D01*
X0046499Y0066457D01*
X0046499Y0069397D01*
X0046042Y0070499D01*
X0045199Y0071343D01*
X0044999Y0071543D01*
X0044999Y0071634D02*
X0046999Y0071634D01*
X0044999Y0071634D01*
X0044723Y0073233D02*
X0047275Y0073233D01*
X0044723Y0073233D01*
X0046999Y0072957D02*
X0046999Y0069643D01*
X0049342Y0067300D01*
X0052656Y0067300D01*
X0054999Y0069643D01*
X0054999Y0072957D01*
X0052656Y0075300D01*
X0049342Y0075300D01*
X0046999Y0072957D01*
X0046999Y0069643D01*
X0049342Y0067300D01*
X0052656Y0067300D01*
X0054999Y0069643D01*
X0054999Y0072957D01*
X0052656Y0075300D01*
X0049342Y0075300D01*
X0046999Y0072957D01*
X0048874Y0074832D02*
X0043125Y0074832D01*
X0048874Y0074832D01*
X0053125Y0074832D02*
X0058874Y0074832D01*
X0053125Y0074832D01*
X0054723Y0073233D02*
X0057275Y0073233D01*
X0054723Y0073233D01*
X0056999Y0072957D02*
X0056999Y0069643D01*
X0059342Y0067300D01*
X0060275Y0067300D01*
X0059099Y0066124D01*
X0059099Y0060513D01*
X0060212Y0059400D01*
X0060299Y0059313D01*
X0060299Y0059124D01*
X0060817Y0057874D01*
X0061773Y0056918D01*
X0063023Y0056400D01*
X0064376Y0056400D01*
X0065625Y0056918D01*
X0066582Y0057874D01*
X0067099Y0059124D01*
X0067099Y0060476D01*
X0066582Y0061726D01*
X0065625Y0062682D01*
X0064376Y0063200D01*
X0063023Y0063200D01*
X0062899Y0063149D01*
X0062899Y0064550D01*
X0067496Y0069147D01*
X0069342Y0067300D01*
X0072656Y0067300D01*
X0074999Y0069643D01*
X0074999Y0072957D01*
X0072656Y0075300D01*
X0069342Y0075300D01*
X0067242Y0073200D01*
X0066175Y0073200D01*
X0064999Y0072024D01*
X0064999Y0072957D01*
X0062656Y0075300D01*
X0059342Y0075300D01*
X0056999Y0072957D01*
X0056999Y0069643D01*
X0059342Y0067300D01*
X0060275Y0067300D01*
X0059099Y0066124D01*
X0059099Y0060513D01*
X0060212Y0059400D01*
X0060299Y0059313D01*
X0060299Y0059124D01*
X0060817Y0057874D01*
X0061773Y0056918D01*
X0063023Y0056400D01*
X0064376Y0056400D01*
X0065625Y0056918D01*
X0066582Y0057874D01*
X0067099Y0059124D01*
X0067099Y0060476D01*
X0066582Y0061726D01*
X0065625Y0062682D01*
X0064376Y0063200D01*
X0063023Y0063200D01*
X0062899Y0063149D01*
X0062899Y0064550D01*
X0067496Y0069147D01*
X0069342Y0067300D01*
X0072656Y0067300D01*
X0074999Y0069643D01*
X0074999Y0072957D01*
X0072656Y0075300D01*
X0069342Y0075300D01*
X0067242Y0073200D01*
X0066175Y0073200D01*
X0064999Y0072024D01*
X0064999Y0072957D01*
X0062656Y0075300D01*
X0059342Y0075300D01*
X0056999Y0072957D01*
X0056999Y0071634D02*
X0054999Y0071634D01*
X0056999Y0071634D01*
X0056999Y0070036D02*
X0054999Y0070036D01*
X0056999Y0070036D01*
X0058205Y0068437D02*
X0053794Y0068437D01*
X0058205Y0068437D01*
X0059814Y0066839D02*
X0046499Y0066839D01*
X0059814Y0066839D01*
X0059099Y0065240D02*
X0047499Y0065240D01*
X0059099Y0065240D01*
X0059099Y0063642D02*
X0047499Y0063642D01*
X0059099Y0063642D01*
X0059099Y0062043D02*
X0047399Y0062043D01*
X0059099Y0062043D01*
X0059167Y0060445D02*
X0046499Y0060445D01*
X0059167Y0060445D01*
X0060414Y0058846D02*
X0046499Y0058846D01*
X0060414Y0058846D01*
X0061443Y0057248D02*
X0046499Y0057248D01*
X0061443Y0057248D01*
X0065955Y0057248D02*
X0072704Y0057248D01*
X0065955Y0057248D01*
X0066984Y0058846D02*
X0074303Y0058846D01*
X0066984Y0058846D01*
X0067099Y0060445D02*
X0075901Y0060445D01*
X0067099Y0060445D01*
X0066264Y0062043D02*
X0077500Y0062043D01*
X0066264Y0062043D01*
X0062899Y0063642D02*
X0079099Y0063642D01*
X0062899Y0063642D01*
X0063589Y0065240D02*
X0081999Y0065240D01*
X0063589Y0065240D01*
X0065188Y0066839D02*
X0081999Y0066839D01*
X0065188Y0066839D01*
X0066786Y0068437D02*
X0068205Y0068437D01*
X0066786Y0068437D01*
X0073794Y0068437D02*
X0078205Y0068437D01*
X0073794Y0068437D01*
X0074999Y0070036D02*
X0076999Y0070036D01*
X0074999Y0070036D01*
X0074999Y0071634D02*
X0076999Y0071634D01*
X0074999Y0071634D01*
X0074723Y0073233D02*
X0077275Y0073233D01*
X0074723Y0073233D01*
X0073125Y0074832D02*
X0078874Y0074832D01*
X0073125Y0074832D01*
X0068874Y0074832D02*
X0063125Y0074832D01*
X0068874Y0074832D01*
X0067275Y0073233D02*
X0064723Y0073233D01*
X0067275Y0073233D01*
X0083725Y0076430D02*
X0005800Y0076430D01*
X0083725Y0076430D01*
X0048205Y0068437D02*
X0046499Y0068437D01*
X0048205Y0068437D01*
X0046999Y0070036D02*
X0046234Y0070036D01*
X0046999Y0070036D01*
X0040499Y0066839D02*
X0036117Y0066839D01*
X0040499Y0066839D01*
X0037499Y0065457D02*
X0035156Y0067800D01*
X0033156Y0067800D01*
X0034999Y0069643D01*
X0034999Y0072957D01*
X0032656Y0075300D01*
X0029342Y0075300D01*
X0026999Y0072957D01*
X0026999Y0070300D01*
X0024999Y0070300D01*
X0024999Y0072957D01*
X0022656Y0075300D01*
X0019342Y0075300D01*
X0016999Y0072957D01*
X0016999Y0070700D01*
X0015999Y0070700D01*
X0014999Y0070700D01*
X0014999Y0072957D01*
X0012656Y0075300D01*
X0009342Y0075300D01*
X0006999Y0072957D01*
X0006999Y0069643D01*
X0009342Y0067300D01*
X0011599Y0067300D01*
X0011599Y0066300D01*
X0015999Y0066300D01*
X0015999Y0066300D01*
X0015999Y0066300D01*
X0011599Y0066300D01*
X0011599Y0067300D01*
X0009342Y0067300D01*
X0006999Y0069643D01*
X0006999Y0072957D01*
X0009342Y0075300D01*
X0012656Y0075300D01*
X0014999Y0072957D01*
X0014999Y0070700D01*
X0015999Y0070700D01*
X0015999Y0066300D01*
X0011599Y0066300D01*
X0011599Y0064477D01*
X0014177Y0061900D01*
X0015999Y0061900D01*
X0015999Y0066300D01*
X0011599Y0066300D01*
X0011599Y0064477D01*
X0014177Y0061900D01*
X0015999Y0061900D01*
X0015999Y0066300D01*
X0015999Y0066300D01*
X0015999Y0070700D01*
X0015999Y0066300D01*
X0015999Y0066300D01*
X0015999Y0066300D01*
X0015999Y0066300D01*
X0015999Y0061900D01*
X0017822Y0061900D01*
X0020399Y0064477D01*
X0020399Y0066300D01*
X0020399Y0067300D01*
X0021999Y0067300D01*
X0021999Y0064643D01*
X0024342Y0062300D01*
X0027656Y0062300D01*
X0029499Y0064143D01*
X0029499Y0062143D01*
X0031842Y0059800D01*
X0035156Y0059800D01*
X0037499Y0062143D01*
X0037499Y0065457D01*
X0035156Y0067800D01*
X0033156Y0067800D01*
X0034999Y0069643D01*
X0034999Y0072957D01*
X0032656Y0075300D01*
X0029342Y0075300D01*
X0026999Y0072957D01*
X0026999Y0070300D01*
X0024999Y0070300D01*
X0024999Y0072957D01*
X0022656Y0075300D01*
X0019342Y0075300D01*
X0016999Y0072957D01*
X0016999Y0070700D01*
X0015999Y0070700D01*
X0015999Y0066300D01*
X0015999Y0061900D01*
X0017822Y0061900D01*
X0020399Y0064477D01*
X0020399Y0066300D01*
X0015999Y0066300D01*
X0015999Y0066300D01*
X0020399Y0066300D01*
X0020399Y0067300D01*
X0021999Y0067300D01*
X0021999Y0064643D01*
X0024342Y0062300D01*
X0027656Y0062300D01*
X0029499Y0064143D01*
X0029499Y0062143D01*
X0031842Y0059800D01*
X0035156Y0059800D01*
X0037499Y0062143D01*
X0037499Y0065457D01*
X0037499Y0065240D02*
X0039499Y0065240D01*
X0037499Y0065240D01*
X0037499Y0063642D02*
X0039499Y0063642D01*
X0037499Y0063642D01*
X0037399Y0062043D02*
X0039599Y0062043D01*
X0037399Y0062043D01*
X0035801Y0060445D02*
X0040499Y0060445D01*
X0035801Y0060445D01*
X0031197Y0060445D02*
X0005800Y0060445D01*
X0031197Y0060445D01*
X0029599Y0062043D02*
X0017965Y0062043D01*
X0029599Y0062043D01*
X0029499Y0063642D02*
X0028998Y0063642D01*
X0029499Y0063642D01*
X0023000Y0063642D02*
X0019564Y0063642D01*
X0023000Y0063642D01*
X0021999Y0065240D02*
X0020399Y0065240D01*
X0021999Y0065240D01*
X0021999Y0066839D02*
X0020399Y0066839D01*
X0021999Y0066839D01*
X0020399Y0066300D02*
X0015999Y0066300D01*
X0015999Y0066300D01*
X0020399Y0066300D01*
X0015999Y0066839D02*
X0015999Y0066839D01*
X0015999Y0066839D01*
X0015999Y0068437D02*
X0015999Y0068437D01*
X0015999Y0068437D01*
X0015999Y0070036D02*
X0015999Y0070036D01*
X0015999Y0070036D01*
X0014999Y0071634D02*
X0016999Y0071634D01*
X0014999Y0071634D01*
X0014723Y0073233D02*
X0017275Y0073233D01*
X0014723Y0073233D01*
X0013125Y0074832D02*
X0018874Y0074832D01*
X0013125Y0074832D01*
X0008874Y0074832D02*
X0005800Y0074832D01*
X0008874Y0074832D01*
X0007275Y0073233D02*
X0005800Y0073233D01*
X0007275Y0073233D01*
X0006999Y0071634D02*
X0005800Y0071634D01*
X0006999Y0071634D01*
X0006999Y0070036D02*
X0005800Y0070036D01*
X0006999Y0070036D01*
X0005800Y0068437D02*
X0008205Y0068437D01*
X0005800Y0068437D01*
X0005800Y0066839D02*
X0011599Y0066839D01*
X0005800Y0066839D01*
X0005800Y0065240D02*
X0011599Y0065240D01*
X0005800Y0065240D01*
X0005800Y0063642D02*
X0012435Y0063642D01*
X0005800Y0063642D01*
X0005800Y0062043D02*
X0014033Y0062043D01*
X0005800Y0062043D01*
X0005800Y0058846D02*
X0040499Y0058846D01*
X0005800Y0058846D01*
X0005800Y0057248D02*
X0040499Y0057248D01*
X0005800Y0057248D01*
X0005800Y0055649D02*
X0040499Y0055649D01*
X0005800Y0055649D01*
X0005800Y0054051D02*
X0015934Y0054051D01*
X0005800Y0054051D01*
X0005800Y0052452D02*
X0013444Y0052452D01*
X0005800Y0052452D01*
X0005800Y0050854D02*
X0012451Y0050854D01*
X0005800Y0050854D01*
X0005800Y0049255D02*
X0012049Y0049255D01*
X0005800Y0049255D01*
X0005800Y0047657D02*
X0012074Y0047657D01*
X0005800Y0047657D01*
X0005800Y0046058D02*
X0012736Y0046058D01*
X0005800Y0046058D01*
X0005800Y0044460D02*
X0014132Y0044460D01*
X0005800Y0044460D01*
X0005800Y0042861D02*
X0013287Y0042861D01*
X0005800Y0042861D01*
X0005800Y0041263D02*
X0012188Y0041263D01*
X0005800Y0041263D01*
X0005800Y0039664D02*
X0011713Y0039664D01*
X0005800Y0039664D01*
X0005800Y0038066D02*
X0011693Y0038066D01*
X0005800Y0038066D01*
X0005800Y0036467D02*
X0012122Y0036467D01*
X0005800Y0036467D01*
X0005800Y0034869D02*
X0013157Y0034869D01*
X0005800Y0034869D01*
X0005800Y0033270D02*
X0012049Y0033270D01*
X0005800Y0033270D01*
X0005800Y0031672D02*
X0012049Y0031672D01*
X0005800Y0031672D01*
X0005800Y0030073D02*
X0012049Y0030073D01*
X0005800Y0030073D01*
X0005800Y0028475D02*
X0012049Y0028475D01*
X0005800Y0028475D01*
X0005800Y0026876D02*
X0012049Y0026876D01*
X0005800Y0026876D01*
X0005800Y0025278D02*
X0012049Y0025278D01*
X0005800Y0025278D01*
X0005800Y0023679D02*
X0012540Y0023679D01*
X0005800Y0023679D01*
X0005800Y0022081D02*
X0029093Y0022081D01*
X0005800Y0022081D01*
X0005800Y0020482D02*
X0027494Y0020482D01*
X0005800Y0020482D01*
X0005800Y0018884D02*
X0025896Y0018884D01*
X0005800Y0018884D01*
X0005800Y0017285D02*
X0024297Y0017285D01*
X0005800Y0017285D01*
X0005800Y0015687D02*
X0022699Y0015687D01*
X0005800Y0015687D01*
X0005800Y0014088D02*
X0008130Y0014088D01*
X0005800Y0014088D01*
X0005800Y0012490D02*
X0006999Y0012490D01*
X0005800Y0012490D01*
X0006999Y0012957D02*
X0006999Y0009643D01*
X0009342Y0007300D01*
X0012656Y0007300D01*
X0014999Y0009643D01*
X0014999Y0012957D01*
X0012656Y0015300D01*
X0009342Y0015300D01*
X0006999Y0012957D01*
X0006999Y0009643D01*
X0009342Y0007300D01*
X0012656Y0007300D01*
X0014999Y0009643D01*
X0014999Y0012957D01*
X0012656Y0015300D01*
X0009342Y0015300D01*
X0006999Y0012957D01*
X0006999Y0010891D02*
X0005800Y0010891D01*
X0006999Y0010891D01*
X0007350Y0009293D02*
X0005800Y0009293D01*
X0007350Y0009293D01*
X0005800Y0007694D02*
X0008948Y0007694D01*
X0005800Y0007694D01*
X0013050Y0007694D02*
X0018948Y0007694D01*
X0013050Y0007694D01*
X0014649Y0009293D02*
X0017350Y0009293D01*
X0014649Y0009293D01*
X0014999Y0010891D02*
X0016999Y0010891D01*
X0014999Y0010891D01*
X0014999Y0012490D02*
X0016999Y0012490D01*
X0014999Y0012490D01*
X0013868Y0014088D02*
X0018130Y0014088D01*
X0013868Y0014088D01*
X0024999Y0012490D02*
X0026999Y0012490D01*
X0024999Y0012490D01*
X0024999Y0010891D02*
X0026999Y0010891D01*
X0024999Y0010891D01*
X0024649Y0009293D02*
X0027350Y0009293D01*
X0024649Y0009293D01*
X0023050Y0007694D02*
X0028948Y0007694D01*
X0023050Y0007694D01*
X0033050Y0007694D02*
X0038948Y0007694D01*
X0033050Y0007694D01*
X0034649Y0009293D02*
X0037350Y0009293D01*
X0034649Y0009293D01*
X0036999Y0009643D02*
X0039342Y0007300D01*
X0042656Y0007300D01*
X0044999Y0009643D01*
X0044999Y0012957D01*
X0042656Y0015300D01*
X0039342Y0015300D01*
X0036999Y0012957D01*
X0036999Y0009643D01*
X0039342Y0007300D01*
X0042656Y0007300D01*
X0044999Y0009643D01*
X0044999Y0012957D01*
X0042656Y0015300D01*
X0039342Y0015300D01*
X0036999Y0012957D01*
X0036999Y0009643D01*
X0036999Y0010891D02*
X0034999Y0010891D01*
X0036999Y0010891D01*
X0036999Y0012490D02*
X0034999Y0012490D01*
X0036999Y0012490D01*
X0036474Y0014088D02*
X0038130Y0014088D01*
X0036474Y0014088D01*
X0038073Y0015687D02*
X0062699Y0015687D01*
X0038073Y0015687D01*
X0039671Y0017285D02*
X0081999Y0017285D01*
X0039671Y0017285D01*
X0035896Y0018884D02*
X0031270Y0018884D01*
X0035896Y0018884D01*
X0037494Y0020482D02*
X0032868Y0020482D01*
X0037494Y0020482D01*
X0039093Y0022081D02*
X0034467Y0022081D01*
X0039093Y0022081D01*
X0030691Y0023679D02*
X0022458Y0023679D01*
X0030691Y0023679D01*
X0027799Y0025278D02*
X0022949Y0025278D01*
X0027799Y0025278D01*
X0026534Y0026876D02*
X0022949Y0026876D01*
X0026534Y0026876D01*
X0026099Y0028475D02*
X0022949Y0028475D01*
X0026099Y0028475D01*
X0026264Y0030073D02*
X0022949Y0030073D01*
X0026264Y0030073D01*
X0027148Y0031672D02*
X0022949Y0031672D01*
X0027148Y0031672D01*
X0022949Y0033270D02*
X0046599Y0033270D01*
X0022949Y0033270D01*
X0022949Y0033430D02*
X0022129Y0034250D01*
X0021189Y0034250D01*
X0021310Y0034338D01*
X0021961Y0034989D01*
X0022503Y0035734D01*
X0022921Y0036554D01*
X0023205Y0037430D01*
X0023335Y0038250D01*
X0018049Y0038250D01*
X0018049Y0039350D01*
X0023335Y0039350D01*
X0023205Y0040170D01*
X0022921Y0041046D01*
X0022503Y0041866D01*
X0021961Y0042611D01*
X0021310Y0043262D01*
X0020565Y0043803D01*
X0020167Y0044006D01*
X0020586Y0044180D01*
X0022119Y0045713D01*
X0022949Y0047716D01*
X0022949Y0049884D01*
X0022119Y0051887D01*
X0020586Y0053420D01*
X0018583Y0054250D01*
X0016415Y0054250D01*
X0014412Y0053420D01*
X0012879Y0051887D01*
X0012049Y0049884D01*
X0012049Y0047716D01*
X0012879Y0045713D01*
X0014412Y0044180D01*
X0014831Y0044006D01*
X0014433Y0043803D01*
X0013688Y0043262D01*
X0013037Y0042611D01*
X0012496Y0041866D01*
X0012078Y0041046D01*
X0011793Y0040170D01*
X0011663Y0039350D01*
X0016949Y0039350D01*
X0016949Y0038250D01*
X0011663Y0038250D01*
X0011793Y0037430D01*
X0012078Y0036554D01*
X0012496Y0035734D01*
X0013037Y0034989D01*
X0013688Y0034338D01*
X0013809Y0034250D01*
X0012869Y0034250D01*
X0012049Y0033430D01*
X0012049Y0024170D01*
X0012869Y0023350D01*
X0022129Y0023350D01*
X0022949Y0024170D01*
X0022949Y0033430D01*
X0022129Y0034250D01*
X0021189Y0034250D01*
X0021310Y0034338D01*
X0021961Y0034989D01*
X0022503Y0035734D01*
X0022921Y0036554D01*
X0023205Y0037430D01*
X0023335Y0038250D01*
X0018049Y0038250D01*
X0018049Y0039350D01*
X0023335Y0039350D01*
X0023205Y0040170D01*
X0022921Y0041046D01*
X0022503Y0041866D01*
X0021961Y0042611D01*
X0021310Y0043262D01*
X0020565Y0043803D01*
X0020167Y0044006D01*
X0020586Y0044180D01*
X0022119Y0045713D01*
X0022949Y0047716D01*
X0022949Y0049884D01*
X0022119Y0051887D01*
X0020586Y0053420D01*
X0018583Y0054250D01*
X0016415Y0054250D01*
X0014412Y0053420D01*
X0012879Y0051887D01*
X0012049Y0049884D01*
X0012049Y0047716D01*
X0012879Y0045713D01*
X0014412Y0044180D01*
X0014831Y0044006D01*
X0014433Y0043803D01*
X0013688Y0043262D01*
X0013037Y0042611D01*
X0012496Y0041866D01*
X0012078Y0041046D01*
X0011793Y0040170D01*
X0011663Y0039350D01*
X0016949Y0039350D01*
X0016949Y0038250D01*
X0011663Y0038250D01*
X0011793Y0037430D01*
X0012078Y0036554D01*
X0012496Y0035734D01*
X0013037Y0034989D01*
X0013688Y0034338D01*
X0013809Y0034250D01*
X0012869Y0034250D01*
X0012049Y0033430D01*
X0012049Y0024170D01*
X0012869Y0023350D01*
X0022129Y0023350D01*
X0022949Y0024170D01*
X0022949Y0033430D01*
X0021841Y0034869D02*
X0028492Y0034869D01*
X0021841Y0034869D01*
X0022876Y0036467D02*
X0026703Y0036467D01*
X0022876Y0036467D01*
X0023306Y0038066D02*
X0026099Y0038066D01*
X0023306Y0038066D01*
X0023285Y0039664D02*
X0026099Y0039664D01*
X0023285Y0039664D01*
X0022810Y0041263D02*
X0026757Y0041263D01*
X0022810Y0041263D01*
X0021711Y0042861D02*
X0028806Y0042861D01*
X0021711Y0042861D01*
X0020866Y0044460D02*
X0029480Y0044460D01*
X0020866Y0044460D01*
X0022263Y0046058D02*
X0027018Y0046058D01*
X0022263Y0046058D01*
X0022925Y0047657D02*
X0026210Y0047657D01*
X0022925Y0047657D01*
X0022949Y0049255D02*
X0026099Y0049255D01*
X0022949Y0049255D01*
X0022548Y0050854D02*
X0026587Y0050854D01*
X0022548Y0050854D01*
X0021554Y0052452D02*
X0027929Y0052452D01*
X0021554Y0052452D01*
X0019064Y0054051D02*
X0040499Y0054051D01*
X0019064Y0054051D01*
X0039069Y0052452D02*
X0040499Y0052452D01*
X0039069Y0052452D01*
X0040411Y0050854D02*
X0040499Y0050854D01*
X0040411Y0050854D01*
X0046499Y0050854D02*
X0046599Y0050854D01*
X0046499Y0050854D01*
X0046599Y0051300D02*
X0046599Y0049477D01*
X0049177Y0046900D01*
X0050999Y0046900D01*
X0050999Y0051300D01*
X0050999Y0051300D01*
X0046599Y0051300D01*
X0046599Y0053123D01*
X0049177Y0055700D01*
X0050999Y0055700D01*
X0050999Y0051300D01*
X0050999Y0051300D01*
X0046599Y0051300D01*
X0046599Y0053123D01*
X0049177Y0055700D01*
X0050999Y0055700D01*
X0050999Y0051300D01*
X0046599Y0051300D01*
X0046599Y0049477D01*
X0049177Y0046900D01*
X0050999Y0046900D01*
X0050999Y0051300D01*
X0046599Y0051300D01*
X0046599Y0052452D02*
X0046499Y0052452D01*
X0046599Y0052452D01*
X0050999Y0052452D02*
X0050999Y0052452D01*
X0050999Y0052452D01*
X0050999Y0051300D02*
X0050999Y0051300D01*
X0050999Y0051300D01*
X0050999Y0051300D01*
X0050999Y0051300D01*
X0050999Y0046900D01*
X0052822Y0046900D01*
X0055399Y0049477D01*
X0055399Y0051300D01*
X0055399Y0053123D01*
X0052822Y0055700D01*
X0050999Y0055700D01*
X0050999Y0051300D01*
X0050999Y0046900D01*
X0052822Y0046900D01*
X0055399Y0049477D01*
X0055399Y0051300D01*
X0050999Y0051300D01*
X0050999Y0055700D01*
X0052822Y0055700D01*
X0055399Y0053123D01*
X0055399Y0051300D01*
X0050999Y0051300D01*
X0050999Y0051300D01*
X0055399Y0051300D01*
X0050999Y0051300D01*
X0050999Y0051300D01*
X0050999Y0050854D02*
X0050999Y0050854D01*
X0050999Y0050854D01*
X0050999Y0049255D02*
X0050999Y0049255D01*
X0050999Y0049255D01*
X0046821Y0049255D02*
X0046499Y0049255D01*
X0046821Y0049255D01*
X0046499Y0047657D02*
X0048420Y0047657D01*
X0046499Y0047657D01*
X0050999Y0047657D02*
X0050999Y0047657D01*
X0050999Y0047657D01*
X0053579Y0047657D02*
X0063113Y0047657D01*
X0053579Y0047657D01*
X0055177Y0049255D02*
X0064712Y0049255D01*
X0055177Y0049255D01*
X0055399Y0050854D02*
X0066310Y0050854D01*
X0055399Y0050854D01*
X0055399Y0052452D02*
X0066999Y0052452D01*
X0055399Y0052452D01*
X0054471Y0054051D02*
X0068093Y0054051D01*
X0054471Y0054051D01*
X0052872Y0055649D02*
X0071106Y0055649D01*
X0052872Y0055649D01*
X0050999Y0055649D02*
X0050999Y0055649D01*
X0050999Y0055649D01*
X0049126Y0055649D02*
X0046499Y0055649D01*
X0049126Y0055649D01*
X0047528Y0054051D02*
X0046499Y0054051D01*
X0047528Y0054051D01*
X0050999Y0054051D02*
X0050999Y0054051D01*
X0050999Y0054051D01*
X0040499Y0046058D02*
X0039980Y0046058D01*
X0040499Y0046058D01*
X0039916Y0044460D02*
X0037519Y0044460D01*
X0039916Y0044460D01*
X0038318Y0042861D02*
X0038192Y0042861D01*
X0038318Y0042861D01*
X0043606Y0039664D02*
X0072621Y0039664D01*
X0043606Y0039664D01*
X0042008Y0038066D02*
X0049042Y0038066D01*
X0042008Y0038066D01*
X0040409Y0036467D02*
X0047444Y0036467D01*
X0040409Y0036467D01*
X0038506Y0034869D02*
X0046599Y0034869D01*
X0038506Y0034869D01*
X0050999Y0034869D02*
X0050999Y0034869D01*
X0050999Y0034869D01*
X0050999Y0033800D02*
X0050999Y0033800D01*
X0050999Y0038200D01*
X0050999Y0033800D01*
X0050999Y0033800D01*
X0050999Y0038200D01*
X0052822Y0038200D01*
X0055399Y0035623D01*
X0055399Y0033800D01*
X0050999Y0033800D01*
X0050999Y0033800D01*
X0055399Y0033800D01*
X0050999Y0033800D01*
X0050999Y0033800D01*
X0055399Y0033270D02*
X0066227Y0033270D01*
X0055399Y0033270D01*
X0055399Y0034869D02*
X0066999Y0034869D01*
X0055399Y0034869D01*
X0054554Y0036467D02*
X0068010Y0036467D01*
X0054554Y0036467D01*
X0052956Y0038066D02*
X0071022Y0038066D01*
X0052956Y0038066D01*
X0050999Y0038066D02*
X0050999Y0038066D01*
X0050999Y0038066D01*
X0050999Y0036467D02*
X0050999Y0036467D01*
X0050999Y0036467D01*
X0065205Y0041263D02*
X0074219Y0041263D01*
X0065205Y0041263D01*
X0066042Y0042101D02*
X0066042Y0042101D01*
X0066803Y0042861D02*
X0075818Y0042861D01*
X0066803Y0042861D01*
X0068402Y0044460D02*
X0082183Y0044460D01*
X0068402Y0044460D01*
X0070000Y0046058D02*
X0081999Y0046058D01*
X0070000Y0046058D01*
X0073013Y0047657D02*
X0081999Y0047657D01*
X0073013Y0047657D01*
X0074611Y0049255D02*
X0083298Y0049255D01*
X0074611Y0049255D01*
X0074999Y0050854D02*
X0109703Y0050854D01*
X0074999Y0050854D01*
X0076394Y0052452D02*
X0084190Y0052452D01*
X0076394Y0052452D01*
X0077993Y0054051D02*
X0082591Y0054051D01*
X0077993Y0054051D01*
X0079591Y0055649D02*
X0081999Y0055649D01*
X0079591Y0055649D01*
X0081190Y0057248D02*
X0081999Y0057248D01*
X0081190Y0057248D01*
X0089999Y0057248D02*
X0091999Y0057248D01*
X0089999Y0057248D01*
X0091999Y0057957D02*
X0091999Y0054643D01*
X0094342Y0052300D01*
X0097656Y0052300D01*
X0099999Y0054643D01*
X0099999Y0057957D01*
X0097656Y0060300D01*
X0094342Y0060300D01*
X0091999Y0057957D01*
X0091999Y0054643D01*
X0094342Y0052300D01*
X0097656Y0052300D01*
X0099999Y0054643D01*
X0099999Y0057957D01*
X0097656Y0060300D01*
X0094342Y0060300D01*
X0091999Y0057957D01*
X0092788Y0058846D02*
X0092889Y0058846D01*
X0092788Y0058846D01*
X0094387Y0060445D02*
X0100112Y0060445D01*
X0094387Y0060445D01*
X0095985Y0062043D02*
X0098513Y0062043D01*
X0095985Y0062043D01*
X0099110Y0058846D02*
X0101710Y0058846D01*
X0099110Y0058846D01*
X0099999Y0057248D02*
X0103309Y0057248D01*
X0099999Y0057248D01*
X0099999Y0055649D02*
X0104907Y0055649D01*
X0099999Y0055649D01*
X0099407Y0054051D02*
X0106506Y0054051D01*
X0099407Y0054051D01*
X0097808Y0052452D02*
X0108104Y0052452D01*
X0097808Y0052452D01*
X0094190Y0052452D02*
X0087808Y0052452D01*
X0094190Y0052452D01*
X0092591Y0054051D02*
X0089407Y0054051D01*
X0092591Y0054051D01*
X0091999Y0055649D02*
X0089999Y0055649D01*
X0091999Y0055649D01*
X0093298Y0049255D02*
X0088701Y0049255D01*
X0093298Y0049255D01*
X0091999Y0047657D02*
X0089999Y0047657D01*
X0091999Y0047657D01*
X0091999Y0046058D02*
X0089999Y0046058D01*
X0091999Y0046058D01*
X0092183Y0044460D02*
X0089816Y0044460D01*
X0092183Y0044460D01*
X0099816Y0044460D02*
X0119916Y0044460D01*
X0099816Y0044460D01*
X0099999Y0046058D02*
X0121515Y0046058D01*
X0099999Y0046058D01*
X0099999Y0047657D02*
X0123113Y0047657D01*
X0099999Y0047657D01*
X0098701Y0049255D02*
X0110736Y0049255D01*
X0098701Y0049255D01*
X0115557Y0054051D02*
X0127999Y0054051D01*
X0115557Y0054051D01*
X0115957Y0055649D02*
X0127999Y0055649D01*
X0115957Y0055649D01*
X0116868Y0057248D02*
X0127999Y0057248D01*
X0116868Y0057248D01*
X0116829Y0058846D02*
X0127999Y0058846D01*
X0116829Y0058846D01*
X0118631Y0060445D02*
X0127999Y0060445D01*
X0118631Y0060445D01*
X0120230Y0062043D02*
X0127999Y0062043D01*
X0120230Y0062043D01*
X0121828Y0063642D02*
X0123000Y0063642D01*
X0121828Y0063642D01*
X0133999Y0062643D02*
X0134342Y0062300D01*
X0137656Y0062300D01*
X0139999Y0064643D01*
X0139999Y0066900D01*
X0140999Y0066900D01*
X0140999Y0071300D01*
X0140999Y0071300D01*
X0136599Y0071300D01*
X0136599Y0071900D01*
X0135999Y0071900D01*
X0134999Y0071900D01*
X0134999Y0070300D01*
X0136599Y0070300D01*
X0136599Y0071300D01*
X0140999Y0071300D01*
X0140999Y0071300D01*
X0136599Y0071300D01*
X0136599Y0071900D01*
X0135999Y0071900D01*
X0135999Y0076300D01*
X0135999Y0076300D01*
X0131599Y0076300D01*
X0131599Y0076461D01*
X0129999Y0076461D01*
X0129999Y0075300D01*
X0131599Y0075300D01*
X0131599Y0076300D01*
X0135999Y0076300D01*
X0135999Y0076300D01*
X0131599Y0076300D01*
X0131599Y0076461D01*
X0129999Y0076461D01*
X0129999Y0075300D01*
X0131599Y0075300D01*
X0131599Y0076300D01*
X0135999Y0076300D01*
X0135999Y0076300D01*
X0135999Y0076300D01*
X0135999Y0071900D01*
X0134999Y0071900D01*
X0134999Y0070300D01*
X0136599Y0070300D01*
X0136599Y0071300D01*
X0140999Y0071300D01*
X0140999Y0075700D01*
X0140399Y0075700D01*
X0140399Y0076300D01*
X0140399Y0076461D01*
X0141999Y0076461D01*
X0141999Y0075700D01*
X0140999Y0075700D01*
X0140999Y0071300D01*
X0140999Y0071300D01*
X0140999Y0071300D01*
X0140999Y0071300D01*
X0140999Y0071300D01*
X0140999Y0066900D01*
X0139999Y0066900D01*
X0139999Y0064643D01*
X0137656Y0062300D01*
X0134342Y0062300D01*
X0133999Y0062643D01*
X0133999Y0054300D01*
X0142342Y0054300D01*
X0141999Y0054643D01*
X0141999Y0057957D01*
X0144342Y0060300D01*
X0147656Y0060300D01*
X0148956Y0059000D01*
X0149612Y0059000D01*
X0152999Y0062387D01*
X0153627Y0063015D01*
X0151999Y0064643D01*
X0151999Y0067300D01*
X0149999Y0067300D01*
X0149999Y0064643D01*
X0147656Y0062300D01*
X0144342Y0062300D01*
X0141999Y0064643D01*
X0141999Y0066900D01*
X0140999Y0066900D01*
X0140999Y0071300D01*
X0140999Y0075700D01*
X0140399Y0075700D01*
X0140399Y0076300D01*
X0135999Y0076300D01*
X0135999Y0071900D01*
X0135999Y0076300D01*
X0135999Y0076300D01*
X0140399Y0076300D01*
X0140399Y0076461D01*
X0141999Y0076461D01*
X0141999Y0075700D01*
X0140999Y0075700D01*
X0140999Y0071300D01*
X0140999Y0066900D01*
X0141999Y0066900D01*
X0141999Y0064643D01*
X0144342Y0062300D01*
X0147656Y0062300D01*
X0149999Y0064643D01*
X0149999Y0067300D01*
X0151999Y0067300D01*
X0151999Y0064643D01*
X0153627Y0063015D01*
X0152999Y0062387D01*
X0149612Y0059000D01*
X0148956Y0059000D01*
X0147656Y0060300D01*
X0144342Y0060300D01*
X0141999Y0057957D01*
X0141999Y0054643D01*
X0142342Y0054300D01*
X0133999Y0054300D01*
X0133999Y0062643D01*
X0133999Y0062043D02*
X0152656Y0062043D01*
X0133999Y0062043D01*
X0133999Y0060445D02*
X0151057Y0060445D01*
X0133999Y0060445D01*
X0133999Y0058846D02*
X0142889Y0058846D01*
X0133999Y0058846D01*
X0133999Y0057248D02*
X0141999Y0057248D01*
X0133999Y0057248D01*
X0133999Y0055649D02*
X0141999Y0055649D01*
X0133999Y0055649D01*
X0127909Y0052452D02*
X0116702Y0052452D01*
X0127909Y0052452D01*
X0126310Y0050854D02*
X0116899Y0050854D01*
X0126310Y0050854D01*
X0124712Y0049255D02*
X0116263Y0049255D01*
X0124712Y0049255D01*
X0131599Y0047657D02*
X0141999Y0047657D01*
X0131599Y0047657D01*
X0132242Y0048300D02*
X0142342Y0048300D01*
X0141999Y0047957D01*
X0141999Y0044643D01*
X0144342Y0042300D01*
X0147656Y0042300D01*
X0149684Y0044328D01*
X0154027Y0039985D01*
X0151999Y0037957D01*
X0151999Y0034643D01*
X0152798Y0033845D01*
X0152312Y0033643D01*
X0148312Y0029644D01*
X0147656Y0030300D01*
X0144342Y0030300D01*
X0141999Y0027957D01*
X0141999Y0024643D01*
X0144342Y0022300D01*
X0147656Y0022300D01*
X0148656Y0023300D01*
X0149808Y0023300D01*
X0150910Y0023757D01*
X0151999Y0024846D01*
X0151999Y0024643D01*
X0154342Y0022300D01*
X0157656Y0022300D01*
X0157734Y0022378D01*
X0158212Y0021900D01*
X0148912Y0021900D01*
X0147799Y0020787D01*
X0147312Y0020300D01*
X0144342Y0020300D01*
X0142534Y0018491D01*
X0141786Y0019239D01*
X0138900Y0022125D01*
X0129137Y0022125D01*
X0128024Y0021012D01*
X0127312Y0020300D01*
X0124342Y0020300D01*
X0121999Y0017957D01*
X0121999Y0015300D01*
X0120186Y0015300D01*
X0119999Y0015487D01*
X0119999Y0017957D01*
X0117656Y0020300D01*
X0114342Y0020300D01*
X0111999Y0017957D01*
X0111999Y0015300D01*
X0110399Y0015300D01*
X0110399Y0016300D01*
X0110399Y0018123D01*
X0107822Y0020700D01*
X0105999Y0020700D01*
X0104177Y0020700D01*
X0103999Y0020523D01*
X0103999Y0038300D01*
X0121596Y0038300D01*
X0122699Y0038757D01*
X0123542Y0039601D01*
X0132242Y0048300D01*
X0142342Y0048300D01*
X0141999Y0047957D01*
X0141999Y0044643D01*
X0144342Y0042300D01*
X0147656Y0042300D01*
X0149684Y0044328D01*
X0154027Y0039985D01*
X0151999Y0037957D01*
X0151999Y0034643D01*
X0152798Y0033845D01*
X0152312Y0033643D01*
X0148312Y0029644D01*
X0147656Y0030300D01*
X0144342Y0030300D01*
X0141999Y0027957D01*
X0141999Y0024643D01*
X0144342Y0022300D01*
X0147656Y0022300D01*
X0148656Y0023300D01*
X0149808Y0023300D01*
X0150910Y0023757D01*
X0151999Y0024846D01*
X0151999Y0024643D01*
X0154342Y0022300D01*
X0157656Y0022300D01*
X0157734Y0022378D01*
X0158212Y0021900D01*
X0148912Y0021900D01*
X0147799Y0020787D01*
X0147312Y0020300D01*
X0144342Y0020300D01*
X0142534Y0018491D01*
X0141786Y0019239D01*
X0138900Y0022125D01*
X0129137Y0022125D01*
X0128024Y0021012D01*
X0127312Y0020300D01*
X0124342Y0020300D01*
X0121999Y0017957D01*
X0121999Y0015300D01*
X0120186Y0015300D01*
X0119999Y0015487D01*
X0119999Y0017957D01*
X0117656Y0020300D01*
X0114342Y0020300D01*
X0111999Y0017957D01*
X0111999Y0015300D01*
X0110399Y0015300D01*
X0110399Y0016300D01*
X0105999Y0016300D01*
X0105999Y0020700D01*
X0104177Y0020700D01*
X0103999Y0020523D01*
X0103999Y0038300D01*
X0121596Y0038300D01*
X0122699Y0038757D01*
X0123542Y0039601D01*
X0132242Y0048300D01*
X0130000Y0046058D02*
X0141999Y0046058D01*
X0130000Y0046058D01*
X0128402Y0044460D02*
X0142183Y0044460D01*
X0128402Y0044460D01*
X0126803Y0042861D02*
X0143781Y0042861D01*
X0126803Y0042861D01*
X0125205Y0041263D02*
X0152749Y0041263D01*
X0125205Y0041263D01*
X0123606Y0039664D02*
X0143141Y0039664D01*
X0123606Y0039664D01*
X0141599Y0038123D02*
X0141599Y0036300D01*
X0145999Y0036300D01*
X0145999Y0036300D01*
X0145999Y0036300D01*
X0141599Y0036300D01*
X0141599Y0038123D01*
X0144177Y0040700D01*
X0145999Y0040700D01*
X0145999Y0036300D01*
X0141599Y0036300D01*
X0141599Y0034477D01*
X0144177Y0031900D01*
X0145999Y0031900D01*
X0145999Y0036300D01*
X0141599Y0036300D01*
X0141599Y0034477D01*
X0144177Y0031900D01*
X0145999Y0031900D01*
X0145999Y0036300D01*
X0145999Y0036300D01*
X0145999Y0040700D01*
X0144177Y0040700D01*
X0141599Y0038123D01*
X0141599Y0038066D02*
X0103999Y0038066D01*
X0141599Y0038066D01*
X0145999Y0038066D02*
X0145999Y0038066D01*
X0145999Y0038066D01*
X0145999Y0039664D02*
X0145999Y0039664D01*
X0145999Y0039664D01*
X0145999Y0040700D02*
X0145999Y0036300D01*
X0145999Y0036300D01*
X0145999Y0036300D01*
X0145999Y0036300D01*
X0145999Y0031900D01*
X0147822Y0031900D01*
X0150399Y0034477D01*
X0150399Y0036300D01*
X0150399Y0038123D01*
X0147822Y0040700D01*
X0145999Y0040700D01*
X0145999Y0036300D01*
X0145999Y0031900D01*
X0147822Y0031900D01*
X0150399Y0034477D01*
X0150399Y0036300D01*
X0145999Y0036300D01*
X0145999Y0036300D01*
X0150399Y0036300D01*
X0150399Y0038123D01*
X0147822Y0040700D01*
X0145999Y0040700D01*
X0148857Y0039664D02*
X0153707Y0039664D01*
X0148857Y0039664D01*
X0150399Y0038066D02*
X0152108Y0038066D01*
X0150399Y0038066D01*
X0150399Y0036467D02*
X0151999Y0036467D01*
X0150399Y0036467D01*
X0150399Y0036300D02*
X0145999Y0036300D01*
X0145999Y0036300D01*
X0150399Y0036300D01*
X0150399Y0034869D02*
X0151999Y0034869D01*
X0150399Y0034869D01*
X0149192Y0033270D02*
X0151939Y0033270D01*
X0149192Y0033270D01*
X0150340Y0031672D02*
X0103999Y0031672D01*
X0150340Y0031672D01*
X0148742Y0030073D02*
X0147883Y0030073D01*
X0148742Y0030073D01*
X0144116Y0030073D02*
X0103999Y0030073D01*
X0144116Y0030073D01*
X0142517Y0028475D02*
X0103999Y0028475D01*
X0142517Y0028475D01*
X0141999Y0026876D02*
X0103999Y0026876D01*
X0141999Y0026876D01*
X0141999Y0025278D02*
X0103999Y0025278D01*
X0141999Y0025278D01*
X0142963Y0023679D02*
X0103999Y0023679D01*
X0142963Y0023679D01*
X0138944Y0022081D02*
X0158032Y0022081D01*
X0138944Y0022081D01*
X0140543Y0020482D02*
X0147494Y0020482D01*
X0140543Y0020482D01*
X0142141Y0018884D02*
X0142926Y0018884D01*
X0142141Y0018884D01*
X0150723Y0023679D02*
X0152963Y0023679D01*
X0150723Y0023679D01*
X0159999Y0025487D02*
X0159999Y0027957D01*
X0159449Y0028507D01*
X0159570Y0028557D01*
X0161813Y0030800D01*
X0163342Y0030800D01*
X0164342Y0029800D01*
X0167656Y0029800D01*
X0168656Y0030800D01*
X0179096Y0030800D01*
X0180199Y0031257D01*
X0181599Y0032657D01*
X0181599Y0031977D01*
X0184177Y0029400D01*
X0185999Y0029400D01*
X0185999Y0033800D01*
X0185999Y0033800D01*
X0185999Y0033800D01*
X0185999Y0029400D01*
X0184177Y0029400D01*
X0181599Y0031977D01*
X0181599Y0032657D01*
X0180199Y0031257D01*
X0179096Y0030800D01*
X0168656Y0030800D01*
X0167656Y0029800D01*
X0164342Y0029800D01*
X0163342Y0030800D01*
X0161813Y0030800D01*
X0159570Y0028557D01*
X0159449Y0028507D01*
X0159999Y0027957D01*
X0159999Y0025487D01*
X0161786Y0023700D01*
X0187435Y0023700D01*
X0197589Y0013546D01*
X0199342Y0015300D01*
X0202656Y0015300D01*
X0204999Y0012957D01*
X0204999Y0009643D01*
X0202656Y0007300D01*
X0199342Y0007300D01*
X0197242Y0009400D01*
X0196361Y0009400D01*
X0194999Y0010762D01*
X0194999Y0009643D01*
X0192656Y0007300D01*
X0189342Y0007300D01*
X0186999Y0009643D01*
X0186999Y0012613D01*
X0181512Y0018100D01*
X0159856Y0018100D01*
X0159999Y0017957D01*
X0159999Y0016900D01*
X0173319Y0016900D01*
X0174432Y0015787D01*
X0177019Y0013200D01*
X0177242Y0013200D01*
X0179342Y0015300D01*
X0182656Y0015300D01*
X0184999Y0012957D01*
X0184999Y0009643D01*
X0182656Y0007300D01*
X0179342Y0007300D01*
X0177242Y0009400D01*
X0175445Y0009400D01*
X0174999Y0009846D01*
X0174999Y0009643D01*
X0172656Y0007300D01*
X0170110Y0007300D01*
X0168910Y0006100D01*
X0226199Y0006100D01*
X0226199Y0076460D01*
X0149999Y0076461D01*
X0149999Y0075300D01*
X0152656Y0075300D01*
X0154999Y0072957D01*
X0154999Y0070300D01*
X0156999Y0070300D01*
X0156999Y0072957D01*
X0159342Y0075300D01*
X0162656Y0075300D01*
X0164999Y0072957D01*
X0164999Y0069643D01*
X0162656Y0067300D01*
X0159999Y0067300D01*
X0159999Y0064643D01*
X0158856Y0063500D01*
X0171212Y0063500D01*
X0177177Y0069465D01*
X0176999Y0069643D01*
X0176999Y0072957D01*
X0179342Y0075300D01*
X0182656Y0075300D01*
X0184999Y0072957D01*
X0184999Y0069643D01*
X0182656Y0067300D01*
X0180386Y0067300D01*
X0172786Y0059700D01*
X0158256Y0059700D01*
X0159999Y0057957D01*
X0159999Y0054643D01*
X0159656Y0054300D01*
X0163342Y0054300D01*
X0164342Y0055300D01*
X0167656Y0055300D01*
X0169999Y0052957D01*
X0169999Y0049643D01*
X0167656Y0047300D01*
X0164342Y0047300D01*
X0163342Y0048300D01*
X0159656Y0048300D01*
X0159999Y0047957D01*
X0159999Y0044643D01*
X0159056Y0043700D01*
X0169412Y0043700D01*
X0196999Y0071287D01*
X0196999Y0072957D01*
X0199342Y0075300D01*
X0202656Y0075300D01*
X0204999Y0072957D01*
X0204999Y0069643D01*
X0202656Y0067300D01*
X0199342Y0067300D01*
X0198864Y0067778D01*
X0186786Y0055700D01*
X0187822Y0055700D01*
X0190399Y0053123D01*
X0190399Y0051300D01*
X0185999Y0051300D01*
X0185999Y0051300D01*
X0185999Y0046900D01*
X0184177Y0046900D01*
X0181599Y0049477D01*
X0181599Y0050513D01*
X0170986Y0039900D01*
X0158056Y0039900D01*
X0158556Y0039400D01*
X0176412Y0039400D01*
X0181320Y0044307D01*
X0190713Y0044307D01*
X0191826Y0043194D01*
X0195953Y0039067D01*
X0197066Y0037954D01*
X0197066Y0030420D01*
X0199718Y0027768D01*
X0205308Y0027768D01*
X0204269Y0028808D01*
X0203599Y0030425D01*
X0203599Y0032175D01*
X0204269Y0033792D01*
X0205507Y0035030D01*
X0207124Y0035700D01*
X0214874Y0035700D01*
X0216492Y0035030D01*
X0217729Y0033792D01*
X0218399Y0032175D01*
X0218399Y0030425D01*
X0217729Y0028808D01*
X0216492Y0027570D01*
X0216311Y0027495D01*
X0219286Y0024520D01*
X0220399Y0023407D01*
X0220399Y0015300D01*
X0222656Y0015300D01*
X0224999Y0012957D01*
X0224999Y0009643D01*
X0222656Y0007300D01*
X0219342Y0007300D01*
X0216999Y0009643D01*
X0216999Y0012613D01*
X0216599Y0013013D01*
X0216599Y0017677D01*
X0216492Y0017570D01*
X0214874Y0016900D01*
X0207124Y0016900D01*
X0205507Y0017570D01*
X0204269Y0018808D01*
X0203599Y0020425D01*
X0203599Y0022175D01*
X0204269Y0023792D01*
X0204445Y0023968D01*
X0202053Y0023968D01*
X0202899Y0023123D01*
X0202899Y0019477D01*
X0200322Y0016900D01*
X0196677Y0016900D01*
X0194099Y0019477D01*
X0194099Y0021457D01*
X0189115Y0026441D01*
X0188659Y0027544D01*
X0188659Y0030237D01*
X0187822Y0029400D01*
X0185999Y0029400D01*
X0185999Y0033800D01*
X0185999Y0029400D01*
X0187822Y0029400D01*
X0188659Y0030237D01*
X0188659Y0027544D01*
X0189115Y0026441D01*
X0194099Y0021457D01*
X0194099Y0019477D01*
X0196677Y0016900D01*
X0200322Y0016900D01*
X0202899Y0019477D01*
X0202899Y0023123D01*
X0202053Y0023968D01*
X0204445Y0023968D01*
X0204269Y0023792D01*
X0203599Y0022175D01*
X0203599Y0020425D01*
X0204269Y0018808D01*
X0205507Y0017570D01*
X0207124Y0016900D01*
X0214874Y0016900D01*
X0216492Y0017570D01*
X0216599Y0017677D01*
X0216599Y0013013D01*
X0216999Y0012613D01*
X0216999Y0009643D01*
X0219342Y0007300D01*
X0222656Y0007300D01*
X0224999Y0009643D01*
X0224999Y0012957D01*
X0222656Y0015300D01*
X0220399Y0015300D01*
X0220399Y0023407D01*
X0219286Y0024520D01*
X0216311Y0027495D01*
X0216492Y0027570D01*
X0217729Y0028808D01*
X0218399Y0030425D01*
X0218399Y0032175D01*
X0217729Y0033792D01*
X0216492Y0035030D01*
X0214874Y0035700D01*
X0207124Y0035700D01*
X0205507Y0035030D01*
X0204269Y0033792D01*
X0203599Y0032175D01*
X0203599Y0030425D01*
X0204269Y0028808D01*
X0205308Y0027768D01*
X0199718Y0027768D01*
X0197066Y0030420D01*
X0197066Y0037954D01*
X0195953Y0039067D01*
X0191826Y0043194D01*
X0190713Y0044307D01*
X0181320Y0044307D01*
X0176412Y0039400D01*
X0158556Y0039400D01*
X0158056Y0039900D01*
X0170986Y0039900D01*
X0181599Y0050513D01*
X0181599Y0049477D01*
X0184177Y0046900D01*
X0185999Y0046900D01*
X0185999Y0051300D01*
X0185999Y0051300D01*
X0185999Y0046900D01*
X0187822Y0046900D01*
X0190399Y0049477D01*
X0190399Y0051300D01*
X0190399Y0053123D01*
X0187822Y0055700D01*
X0186786Y0055700D01*
X0198864Y0067778D01*
X0199342Y0067300D01*
X0202656Y0067300D01*
X0204999Y0069643D01*
X0204999Y0072957D01*
X0202656Y0075300D01*
X0199342Y0075300D01*
X0196999Y0072957D01*
X0196999Y0071287D01*
X0169412Y0043700D01*
X0159056Y0043700D01*
X0159999Y0044643D01*
X0159999Y0047957D01*
X0159656Y0048300D01*
X0163342Y0048300D01*
X0164342Y0047300D01*
X0167656Y0047300D01*
X0169999Y0049643D01*
X0169999Y0052957D01*
X0167656Y0055300D01*
X0164342Y0055300D01*
X0163342Y0054300D01*
X0159656Y0054300D01*
X0159999Y0054643D01*
X0159999Y0057957D01*
X0158256Y0059700D01*
X0172786Y0059700D01*
X0180386Y0067300D01*
X0182656Y0067300D01*
X0184999Y0069643D01*
X0184999Y0072957D01*
X0182656Y0075300D01*
X0179342Y0075300D01*
X0176999Y0072957D01*
X0176999Y0069643D01*
X0177177Y0069465D01*
X0171212Y0063500D01*
X0158856Y0063500D01*
X0159999Y0064643D01*
X0159999Y0067300D01*
X0162656Y0067300D01*
X0164999Y0069643D01*
X0164999Y0072957D01*
X0162656Y0075300D01*
X0159342Y0075300D01*
X0156999Y0072957D01*
X0156999Y0070300D01*
X0154999Y0070300D01*
X0154999Y0072957D01*
X0152656Y0075300D01*
X0149999Y0075300D01*
X0149999Y0076461D01*
X0226199Y0076460D01*
X0226199Y0006100D01*
X0168910Y0006100D01*
X0170110Y0007300D01*
X0172656Y0007300D01*
X0174999Y0009643D01*
X0174999Y0009846D01*
X0175445Y0009400D01*
X0177242Y0009400D01*
X0179342Y0007300D01*
X0182656Y0007300D01*
X0184999Y0009643D01*
X0184999Y0012957D01*
X0182656Y0015300D01*
X0179342Y0015300D01*
X0177242Y0013200D01*
X0177019Y0013200D01*
X0174432Y0015787D01*
X0173319Y0016900D01*
X0159999Y0016900D01*
X0159999Y0017957D01*
X0159856Y0018100D01*
X0181512Y0018100D01*
X0186999Y0012613D01*
X0186999Y0009643D01*
X0189342Y0007300D01*
X0192656Y0007300D01*
X0194999Y0009643D01*
X0194999Y0010762D01*
X0196361Y0009400D01*
X0197242Y0009400D01*
X0199342Y0007300D01*
X0202656Y0007300D01*
X0204999Y0009643D01*
X0204999Y0012957D01*
X0202656Y0015300D01*
X0199342Y0015300D01*
X0197589Y0013546D01*
X0187435Y0023700D01*
X0161786Y0023700D01*
X0159999Y0025487D01*
X0160209Y0025278D02*
X0190279Y0025278D01*
X0160209Y0025278D01*
X0159999Y0026876D02*
X0188935Y0026876D01*
X0159999Y0026876D01*
X0159481Y0028475D02*
X0188659Y0028475D01*
X0159481Y0028475D01*
X0161086Y0030073D02*
X0164069Y0030073D01*
X0161086Y0030073D01*
X0167929Y0030073D02*
X0183503Y0030073D01*
X0167929Y0030073D01*
X0180614Y0031672D02*
X0181905Y0031672D01*
X0180614Y0031672D01*
X0185999Y0031672D02*
X0185999Y0031672D01*
X0185999Y0031672D01*
X0185999Y0033270D02*
X0185999Y0033270D01*
X0185999Y0033270D01*
X0185999Y0030073D02*
X0185999Y0030073D01*
X0185999Y0030073D01*
X0188495Y0030073D02*
X0188659Y0030073D01*
X0188495Y0030073D01*
X0197066Y0031672D02*
X0203599Y0031672D01*
X0197066Y0031672D01*
X0197066Y0033270D02*
X0204053Y0033270D01*
X0197066Y0033270D01*
X0197066Y0034869D02*
X0205345Y0034869D01*
X0197066Y0034869D01*
X0197066Y0036467D02*
X0226199Y0036467D01*
X0197066Y0036467D01*
X0196954Y0038066D02*
X0205011Y0038066D01*
X0196954Y0038066D01*
X0195356Y0039664D02*
X0203914Y0039664D01*
X0195356Y0039664D01*
X0193757Y0041263D02*
X0203599Y0041263D01*
X0193757Y0041263D01*
X0192159Y0042861D02*
X0203883Y0042861D01*
X0192159Y0042861D01*
X0187822Y0046900D02*
X0190399Y0049477D01*
X0190399Y0051300D01*
X0185999Y0051300D01*
X0185999Y0046900D01*
X0187822Y0046900D01*
X0188579Y0047657D02*
X0205420Y0047657D01*
X0188579Y0047657D01*
X0185999Y0047657D02*
X0185999Y0047657D01*
X0185999Y0047657D01*
X0183420Y0047657D02*
X0178743Y0047657D01*
X0183420Y0047657D01*
X0181821Y0049255D02*
X0180342Y0049255D01*
X0181821Y0049255D01*
X0185999Y0049255D02*
X0185999Y0049255D01*
X0185999Y0049255D01*
X0190177Y0049255D02*
X0204084Y0049255D01*
X0190177Y0049255D01*
X0190399Y0050854D02*
X0203599Y0050854D01*
X0190399Y0050854D01*
X0190399Y0051300D02*
X0185999Y0051300D01*
X0185999Y0051300D01*
X0185999Y0051300D01*
X0190399Y0051300D01*
X0190399Y0052452D02*
X0203714Y0052452D01*
X0190399Y0052452D01*
X0189471Y0054051D02*
X0204528Y0054051D01*
X0189471Y0054051D01*
X0187872Y0055649D02*
X0207002Y0055649D01*
X0187872Y0055649D01*
X0188334Y0057248D02*
X0205410Y0057248D01*
X0188334Y0057248D01*
X0189933Y0058846D02*
X0203862Y0058846D01*
X0189933Y0058846D01*
X0191531Y0060445D02*
X0203275Y0060445D01*
X0191531Y0060445D01*
X0193130Y0062043D02*
X0203257Y0062043D01*
X0193130Y0062043D01*
X0194728Y0063642D02*
X0203805Y0063642D01*
X0194728Y0063642D01*
X0196327Y0065240D02*
X0205257Y0065240D01*
X0196327Y0065240D01*
X0197925Y0066839D02*
X0226199Y0066839D01*
X0197925Y0066839D01*
X0194999Y0069643D02*
X0192656Y0067300D01*
X0189342Y0067300D01*
X0186999Y0069643D01*
X0186999Y0072957D01*
X0189342Y0075300D01*
X0192656Y0075300D01*
X0194999Y0072957D01*
X0194999Y0069643D01*
X0192656Y0067300D01*
X0189342Y0067300D01*
X0186999Y0069643D01*
X0186999Y0072957D01*
X0189342Y0075300D01*
X0192656Y0075300D01*
X0194999Y0072957D01*
X0194999Y0069643D01*
X0194999Y0070036D02*
X0195748Y0070036D01*
X0194999Y0070036D01*
X0194999Y0071634D02*
X0196999Y0071634D01*
X0194999Y0071634D01*
X0194723Y0073233D02*
X0197275Y0073233D01*
X0194723Y0073233D01*
X0193125Y0074832D02*
X0198874Y0074832D01*
X0193125Y0074832D01*
X0188874Y0074832D02*
X0183125Y0074832D01*
X0188874Y0074832D01*
X0187275Y0073233D02*
X0184723Y0073233D01*
X0187275Y0073233D01*
X0186999Y0071634D02*
X0184999Y0071634D01*
X0186999Y0071634D01*
X0186999Y0070036D02*
X0184999Y0070036D01*
X0186999Y0070036D01*
X0188205Y0068437D02*
X0183794Y0068437D01*
X0188205Y0068437D01*
X0192551Y0066839D02*
X0179925Y0066839D01*
X0192551Y0066839D01*
X0193794Y0068437D02*
X0194150Y0068437D01*
X0193794Y0068437D01*
X0190953Y0065240D02*
X0178327Y0065240D01*
X0190953Y0065240D01*
X0189354Y0063642D02*
X0176728Y0063642D01*
X0189354Y0063642D01*
X0187756Y0062043D02*
X0175130Y0062043D01*
X0187756Y0062043D01*
X0186157Y0060445D02*
X0173531Y0060445D01*
X0186157Y0060445D01*
X0184559Y0058846D02*
X0159110Y0058846D01*
X0184559Y0058846D01*
X0182960Y0057248D02*
X0159999Y0057248D01*
X0182960Y0057248D01*
X0181362Y0055649D02*
X0159999Y0055649D01*
X0181362Y0055649D01*
X0179763Y0054051D02*
X0168905Y0054051D01*
X0179763Y0054051D01*
X0178165Y0052452D02*
X0169999Y0052452D01*
X0178165Y0052452D01*
X0176566Y0050854D02*
X0169999Y0050854D01*
X0176566Y0050854D01*
X0174968Y0049255D02*
X0169611Y0049255D01*
X0174968Y0049255D01*
X0173369Y0047657D02*
X0168013Y0047657D01*
X0173369Y0047657D01*
X0171771Y0046058D02*
X0159999Y0046058D01*
X0171771Y0046058D01*
X0170172Y0044460D02*
X0159816Y0044460D01*
X0170172Y0044460D01*
X0173947Y0042861D02*
X0179874Y0042861D01*
X0173947Y0042861D01*
X0172349Y0041263D02*
X0178275Y0041263D01*
X0172349Y0041263D01*
X0176676Y0039664D02*
X0158292Y0039664D01*
X0176676Y0039664D01*
X0175546Y0044460D02*
X0204936Y0044460D01*
X0175546Y0044460D01*
X0177145Y0046058D02*
X0226199Y0046058D01*
X0177145Y0046058D01*
X0185999Y0050854D02*
X0185999Y0050854D01*
X0185999Y0050854D01*
X0203599Y0050425D02*
X0204269Y0048808D01*
X0205507Y0047570D01*
X0207124Y0046900D01*
X0214874Y0046900D01*
X0216492Y0047570D01*
X0217729Y0048808D01*
X0218399Y0050425D01*
X0218399Y0052175D01*
X0217729Y0053792D01*
X0216492Y0055030D01*
X0214874Y0055700D01*
X0207124Y0055700D01*
X0205507Y0055030D01*
X0204269Y0053792D01*
X0203599Y0052175D01*
X0203599Y0050425D01*
X0204269Y0048808D01*
X0205507Y0047570D01*
X0207124Y0046900D01*
X0214874Y0046900D01*
X0216492Y0047570D01*
X0217729Y0048808D01*
X0218399Y0050425D01*
X0218399Y0052175D01*
X0217729Y0053792D01*
X0216492Y0055030D01*
X0214874Y0055700D01*
X0207124Y0055700D01*
X0205507Y0055030D01*
X0204269Y0053792D01*
X0203599Y0052175D01*
X0203599Y0050425D01*
X0205507Y0045030D02*
X0207124Y0045700D01*
X0214874Y0045700D01*
X0216492Y0045030D01*
X0217729Y0043792D01*
X0218399Y0042175D01*
X0218399Y0040425D01*
X0217729Y0038808D01*
X0216492Y0037570D01*
X0214874Y0036900D01*
X0207124Y0036900D01*
X0205507Y0037570D01*
X0204269Y0038808D01*
X0203599Y0040425D01*
X0203599Y0042175D01*
X0204269Y0043792D01*
X0205507Y0045030D01*
X0204269Y0043792D01*
X0203599Y0042175D01*
X0203599Y0040425D01*
X0204269Y0038808D01*
X0205507Y0037570D01*
X0207124Y0036900D01*
X0214874Y0036900D01*
X0216492Y0037570D01*
X0217729Y0038808D01*
X0218399Y0040425D01*
X0218399Y0042175D01*
X0217729Y0043792D01*
X0216492Y0045030D01*
X0214874Y0045700D01*
X0207124Y0045700D01*
X0205507Y0045030D01*
X0216579Y0047657D02*
X0226199Y0047657D01*
X0216579Y0047657D01*
X0217915Y0049255D02*
X0226199Y0049255D01*
X0217915Y0049255D01*
X0218399Y0050854D02*
X0226199Y0050854D01*
X0218399Y0050854D01*
X0218284Y0052452D02*
X0226199Y0052452D01*
X0218284Y0052452D01*
X0217471Y0054051D02*
X0226199Y0054051D01*
X0217471Y0054051D01*
X0214997Y0055649D02*
X0226199Y0055649D01*
X0214997Y0055649D01*
X0215123Y0056618D02*
X0215842Y0056852D01*
X0216515Y0057195D01*
X0217126Y0057639D01*
X0217660Y0058173D01*
X0218105Y0058784D01*
X0218448Y0059457D01*
X0218681Y0060176D01*
X0218799Y0060922D01*
X0218799Y0061100D01*
X0211199Y0061100D01*
X0211199Y0056500D01*
X0214377Y0056500D01*
X0215123Y0056618D01*
X0215842Y0056852D01*
X0216515Y0057195D01*
X0217126Y0057639D01*
X0217660Y0058173D01*
X0218105Y0058784D01*
X0218448Y0059457D01*
X0218681Y0060176D01*
X0218799Y0060922D01*
X0218799Y0061100D01*
X0211199Y0061100D01*
X0210799Y0061100D01*
X0203199Y0061100D01*
X0203199Y0060922D01*
X0203317Y0060176D01*
X0203551Y0059457D01*
X0203894Y0058784D01*
X0204338Y0058173D01*
X0204872Y0057639D01*
X0205483Y0057195D01*
X0206157Y0056852D01*
X0206875Y0056618D01*
X0207621Y0056500D01*
X0210799Y0056500D01*
X0210799Y0061100D01*
X0210799Y0061500D01*
X0203199Y0061500D01*
X0203199Y0061678D01*
X0203317Y0062424D01*
X0203551Y0063143D01*
X0203894Y0063816D01*
X0204338Y0064427D01*
X0204872Y0064961D01*
X0205483Y0065405D01*
X0206157Y0065748D01*
X0206875Y0065982D01*
X0207621Y0066100D01*
X0210799Y0066100D01*
X0210799Y0061500D01*
X0210799Y0061100D01*
X0203199Y0061100D01*
X0203199Y0060922D01*
X0203317Y0060176D01*
X0203551Y0059457D01*
X0203894Y0058784D01*
X0204338Y0058173D01*
X0204872Y0057639D01*
X0205483Y0057195D01*
X0206157Y0056852D01*
X0206875Y0056618D01*
X0207621Y0056500D01*
X0210799Y0056500D01*
X0210799Y0061100D01*
X0211199Y0061100D01*
X0211199Y0056500D01*
X0214377Y0056500D01*
X0215123Y0056618D01*
X0216588Y0057248D02*
X0226199Y0057248D01*
X0216588Y0057248D01*
X0218136Y0058846D02*
X0226199Y0058846D01*
X0218136Y0058846D01*
X0218724Y0060445D02*
X0226199Y0060445D01*
X0218724Y0060445D01*
X0218799Y0061500D02*
X0218799Y0061678D01*
X0218681Y0062424D01*
X0218448Y0063143D01*
X0218105Y0063816D01*
X0217660Y0064427D01*
X0217126Y0064961D01*
X0216515Y0065405D01*
X0215842Y0065748D01*
X0215123Y0065982D01*
X0214377Y0066100D01*
X0211199Y0066100D01*
X0211199Y0061500D01*
X0210799Y0061500D01*
X0203199Y0061500D01*
X0203199Y0061678D01*
X0203317Y0062424D01*
X0203551Y0063143D01*
X0203894Y0063816D01*
X0204338Y0064427D01*
X0204872Y0064961D01*
X0205483Y0065405D01*
X0206157Y0065748D01*
X0206875Y0065982D01*
X0207621Y0066100D01*
X0210799Y0066100D01*
X0210799Y0061500D01*
X0211199Y0061500D01*
X0211199Y0066100D01*
X0214377Y0066100D01*
X0215123Y0065982D01*
X0215842Y0065748D01*
X0216515Y0065405D01*
X0217126Y0064961D01*
X0217660Y0064427D01*
X0218105Y0063816D01*
X0218448Y0063143D01*
X0218681Y0062424D01*
X0218799Y0061678D01*
X0218799Y0061500D01*
X0211199Y0061500D01*
X0211199Y0061100D01*
X0211199Y0061500D01*
X0218799Y0061500D01*
X0218741Y0062043D02*
X0226199Y0062043D01*
X0218741Y0062043D01*
X0218193Y0063642D02*
X0226199Y0063642D01*
X0218193Y0063642D01*
X0216742Y0065240D02*
X0226199Y0065240D01*
X0216742Y0065240D01*
X0219177Y0066900D02*
X0220999Y0066900D01*
X0220999Y0071300D01*
X0220999Y0071300D01*
X0216599Y0071300D01*
X0216599Y0073123D01*
X0219177Y0075700D01*
X0220999Y0075700D01*
X0220999Y0071300D01*
X0220999Y0071300D01*
X0216599Y0071300D01*
X0216599Y0073123D01*
X0219177Y0075700D01*
X0220999Y0075700D01*
X0220999Y0071300D01*
X0216599Y0071300D01*
X0216599Y0069477D01*
X0219177Y0066900D01*
X0220999Y0066900D01*
X0220999Y0071300D01*
X0216599Y0071300D01*
X0216599Y0069477D01*
X0219177Y0066900D01*
X0220999Y0066900D02*
X0222822Y0066900D01*
X0225399Y0069477D01*
X0225399Y0071300D01*
X0225399Y0073123D01*
X0222822Y0075700D01*
X0220999Y0075700D01*
X0220999Y0071300D01*
X0220999Y0071300D01*
X0220999Y0071300D01*
X0220999Y0071300D01*
X0220999Y0071300D01*
X0220999Y0066900D01*
X0222822Y0066900D01*
X0225399Y0069477D01*
X0225399Y0071300D01*
X0220999Y0071300D01*
X0220999Y0066900D01*
X0220999Y0068437D02*
X0220999Y0068437D01*
X0220999Y0068437D01*
X0224359Y0068437D02*
X0226199Y0068437D01*
X0224359Y0068437D01*
X0225399Y0070036D02*
X0226199Y0070036D01*
X0225399Y0070036D01*
X0225399Y0071300D02*
X0220999Y0071300D01*
X0220999Y0075700D01*
X0222822Y0075700D01*
X0225399Y0073123D01*
X0225399Y0071300D01*
X0220999Y0071300D01*
X0220999Y0071300D01*
X0220999Y0071300D01*
X0225399Y0071300D01*
X0225399Y0071634D02*
X0226199Y0071634D01*
X0225399Y0071634D01*
X0225289Y0073233D02*
X0226199Y0073233D01*
X0225289Y0073233D01*
X0226199Y0074832D02*
X0223690Y0074832D01*
X0226199Y0074832D01*
X0226199Y0076430D02*
X0149999Y0076430D01*
X0226199Y0076430D01*
X0220999Y0074832D02*
X0220999Y0074832D01*
X0220999Y0074832D01*
X0218308Y0074832D02*
X0213125Y0074832D01*
X0218308Y0074832D01*
X0216710Y0073233D02*
X0214723Y0073233D01*
X0216710Y0073233D01*
X0214999Y0072957D02*
X0212656Y0075300D01*
X0209342Y0075300D01*
X0206999Y0072957D01*
X0206999Y0069643D01*
X0209342Y0067300D01*
X0212656Y0067300D01*
X0214999Y0069643D01*
X0214999Y0072957D01*
X0212656Y0075300D01*
X0209342Y0075300D01*
X0206999Y0072957D01*
X0206999Y0069643D01*
X0209342Y0067300D01*
X0212656Y0067300D01*
X0214999Y0069643D01*
X0214999Y0072957D01*
X0214999Y0071634D02*
X0216599Y0071634D01*
X0214999Y0071634D01*
X0214999Y0070036D02*
X0216599Y0070036D01*
X0214999Y0070036D01*
X0213794Y0068437D02*
X0217639Y0068437D01*
X0213794Y0068437D01*
X0208205Y0068437D02*
X0203794Y0068437D01*
X0208205Y0068437D01*
X0206999Y0070036D02*
X0204999Y0070036D01*
X0206999Y0070036D01*
X0206999Y0071634D02*
X0204999Y0071634D01*
X0206999Y0071634D01*
X0207275Y0073233D02*
X0204723Y0073233D01*
X0207275Y0073233D01*
X0208874Y0074832D02*
X0203125Y0074832D01*
X0208874Y0074832D01*
X0220999Y0073233D02*
X0220999Y0073233D01*
X0220999Y0073233D01*
X0220999Y0071634D02*
X0220999Y0071634D01*
X0220999Y0071634D01*
X0220999Y0070036D02*
X0220999Y0070036D01*
X0220999Y0070036D01*
X0211199Y0065240D02*
X0210799Y0065240D01*
X0211199Y0065240D01*
X0211199Y0063642D02*
X0210799Y0063642D01*
X0211199Y0063642D01*
X0211199Y0062043D02*
X0210799Y0062043D01*
X0211199Y0062043D01*
X0211199Y0060445D02*
X0210799Y0060445D01*
X0211199Y0060445D01*
X0211199Y0058846D02*
X0210799Y0058846D01*
X0211199Y0058846D01*
X0211199Y0057248D02*
X0210799Y0057248D01*
X0211199Y0057248D01*
X0176999Y0070036D02*
X0174999Y0070036D01*
X0176999Y0070036D01*
X0174999Y0069643D02*
X0172656Y0067300D01*
X0169342Y0067300D01*
X0166999Y0069643D01*
X0166999Y0072957D01*
X0169342Y0075300D01*
X0172656Y0075300D01*
X0174999Y0072957D01*
X0174999Y0069643D01*
X0172656Y0067300D01*
X0169342Y0067300D01*
X0166999Y0069643D01*
X0166999Y0072957D01*
X0169342Y0075300D01*
X0172656Y0075300D01*
X0174999Y0072957D01*
X0174999Y0069643D01*
X0176150Y0068437D02*
X0173794Y0068437D01*
X0176150Y0068437D01*
X0174551Y0066839D02*
X0159999Y0066839D01*
X0174551Y0066839D01*
X0172953Y0065240D02*
X0159999Y0065240D01*
X0172953Y0065240D01*
X0171354Y0063642D02*
X0158998Y0063642D01*
X0171354Y0063642D01*
X0168205Y0068437D02*
X0163794Y0068437D01*
X0168205Y0068437D01*
X0166999Y0070036D02*
X0164999Y0070036D01*
X0166999Y0070036D01*
X0166999Y0071634D02*
X0164999Y0071634D01*
X0166999Y0071634D01*
X0167275Y0073233D02*
X0164723Y0073233D01*
X0167275Y0073233D01*
X0168874Y0074832D02*
X0163125Y0074832D01*
X0168874Y0074832D01*
X0173125Y0074832D02*
X0178874Y0074832D01*
X0173125Y0074832D01*
X0174723Y0073233D02*
X0177275Y0073233D01*
X0174723Y0073233D01*
X0174999Y0071634D02*
X0176999Y0071634D01*
X0174999Y0071634D01*
X0158874Y0074832D02*
X0153125Y0074832D01*
X0158874Y0074832D01*
X0157275Y0073233D02*
X0154723Y0073233D01*
X0157275Y0073233D01*
X0156999Y0071634D02*
X0154999Y0071634D01*
X0156999Y0071634D01*
X0146999Y0071634D02*
X0145399Y0071634D01*
X0146999Y0071634D01*
X0146999Y0072300D02*
X0145399Y0072300D01*
X0145399Y0071300D01*
X0140999Y0071300D01*
X0140999Y0071300D01*
X0145399Y0071300D01*
X0140999Y0071300D01*
X0140999Y0071300D01*
X0145399Y0071300D01*
X0145399Y0072300D01*
X0146999Y0072300D01*
X0146999Y0070300D01*
X0145399Y0070300D01*
X0145399Y0071300D01*
X0145399Y0070300D01*
X0146999Y0070300D01*
X0146999Y0072300D01*
X0140999Y0071634D02*
X0140999Y0071634D01*
X0140999Y0071634D01*
X0140999Y0070036D02*
X0140999Y0070036D01*
X0140999Y0070036D01*
X0140999Y0068437D02*
X0140999Y0068437D01*
X0140999Y0068437D01*
X0139999Y0066839D02*
X0141999Y0066839D01*
X0139999Y0066839D01*
X0139999Y0065240D02*
X0141999Y0065240D01*
X0139999Y0065240D01*
X0138998Y0063642D02*
X0143000Y0063642D01*
X0138998Y0063642D01*
X0148998Y0063642D02*
X0153000Y0063642D01*
X0148998Y0063642D01*
X0149999Y0065240D02*
X0151999Y0065240D01*
X0149999Y0065240D01*
X0149999Y0066839D02*
X0151999Y0066839D01*
X0149999Y0066839D01*
X0136599Y0071634D02*
X0134999Y0071634D01*
X0136599Y0071634D01*
X0135999Y0073233D02*
X0135999Y0073233D01*
X0135999Y0073233D01*
X0135999Y0074832D02*
X0135999Y0074832D01*
X0135999Y0074832D01*
X0135999Y0076300D02*
X0135999Y0076300D01*
X0140399Y0076300D01*
X0135999Y0076300D01*
X0131599Y0076430D02*
X0129999Y0076430D01*
X0131599Y0076430D01*
X0140399Y0076430D02*
X0141999Y0076430D01*
X0140399Y0076430D01*
X0140999Y0074832D02*
X0140999Y0074832D01*
X0140999Y0074832D01*
X0140999Y0073233D02*
X0140999Y0073233D01*
X0140999Y0073233D01*
X0159999Y0047657D02*
X0163986Y0047657D01*
X0159999Y0047657D01*
X0151151Y0042861D02*
X0148217Y0042861D01*
X0151151Y0042861D01*
X0145999Y0036467D02*
X0145999Y0036467D01*
X0145999Y0036467D01*
X0141599Y0036467D02*
X0103999Y0036467D01*
X0141599Y0036467D01*
X0141599Y0034869D02*
X0103999Y0034869D01*
X0141599Y0034869D01*
X0145999Y0034869D02*
X0145999Y0034869D01*
X0145999Y0034869D01*
X0145999Y0033270D02*
X0145999Y0033270D01*
X0145999Y0033270D01*
X0142806Y0033270D02*
X0103999Y0033270D01*
X0142806Y0033270D01*
X0129093Y0022081D02*
X0103999Y0022081D01*
X0129093Y0022081D01*
X0127494Y0020482D02*
X0108040Y0020482D01*
X0127494Y0020482D01*
X0122926Y0018884D02*
X0119072Y0018884D01*
X0122926Y0018884D01*
X0121999Y0017285D02*
X0119999Y0017285D01*
X0121999Y0017285D01*
X0121999Y0015687D02*
X0119999Y0015687D01*
X0121999Y0015687D01*
X0112926Y0018884D02*
X0109638Y0018884D01*
X0112926Y0018884D01*
X0110399Y0018123D02*
X0107822Y0020700D01*
X0105999Y0020700D01*
X0105999Y0016300D01*
X0105999Y0016300D01*
X0105999Y0016300D01*
X0105999Y0016300D01*
X0105999Y0011900D01*
X0104999Y0011900D01*
X0104999Y0010300D01*
X0106999Y0010300D01*
X0106999Y0011900D01*
X0105999Y0011900D01*
X0105999Y0016300D01*
X0105999Y0016300D01*
X0105999Y0020700D01*
X0105999Y0016300D01*
X0105999Y0011900D01*
X0104999Y0011900D01*
X0104999Y0010300D01*
X0106999Y0010300D01*
X0106999Y0011900D01*
X0105999Y0011900D01*
X0105999Y0016300D01*
X0105999Y0016300D01*
X0110399Y0016300D01*
X0110399Y0018123D01*
X0110399Y0017285D02*
X0111999Y0017285D01*
X0110399Y0017285D01*
X0110399Y0016300D02*
X0105999Y0016300D01*
X0105999Y0016300D01*
X0110399Y0016300D01*
X0110399Y0015687D02*
X0111999Y0015687D01*
X0110399Y0015687D01*
X0105999Y0015687D02*
X0105999Y0015687D01*
X0105999Y0015687D01*
X0105999Y0014088D02*
X0105999Y0014088D01*
X0105999Y0014088D01*
X0105999Y0012490D02*
X0105999Y0012490D01*
X0105999Y0012490D01*
X0104999Y0010891D02*
X0106999Y0010891D01*
X0104999Y0010891D01*
X0105999Y0017285D02*
X0105999Y0017285D01*
X0105999Y0017285D01*
X0105999Y0018884D02*
X0105999Y0018884D01*
X0105999Y0018884D01*
X0105999Y0020482D02*
X0105999Y0020482D01*
X0105999Y0020482D01*
X0089999Y0026713D02*
X0089999Y0026713D01*
X0089999Y0026876D02*
X0089999Y0026876D01*
X0089999Y0026876D01*
X0089999Y0028475D02*
X0089481Y0028475D01*
X0089999Y0028475D01*
X0089999Y0030073D02*
X0087883Y0030073D01*
X0089999Y0030073D01*
X0089999Y0031672D02*
X0077214Y0031672D01*
X0089999Y0031672D01*
X0090582Y0033270D02*
X0088626Y0033270D01*
X0090582Y0033270D01*
X0089999Y0034869D02*
X0091999Y0034869D01*
X0089999Y0034869D01*
X0089999Y0036467D02*
X0091999Y0036467D01*
X0089999Y0036467D01*
X0089890Y0038066D02*
X0092108Y0038066D01*
X0089890Y0038066D01*
X0083372Y0033270D02*
X0078812Y0033270D01*
X0083372Y0033270D01*
X0084116Y0030073D02*
X0075615Y0030073D01*
X0084116Y0030073D01*
X0082517Y0028475D02*
X0074017Y0028475D01*
X0082517Y0028475D01*
X0081999Y0026876D02*
X0072418Y0026876D01*
X0081999Y0026876D01*
X0081999Y0025278D02*
X0070820Y0025278D01*
X0081999Y0025278D01*
X0082963Y0023679D02*
X0069221Y0023679D01*
X0082963Y0023679D01*
X0058130Y0014088D02*
X0053868Y0014088D01*
X0058130Y0014088D01*
X0056999Y0012490D02*
X0054999Y0012490D01*
X0056999Y0012490D01*
X0054999Y0012957D02*
X0052656Y0015300D01*
X0049342Y0015300D01*
X0046999Y0012957D01*
X0046999Y0009643D01*
X0049342Y0007300D01*
X0052656Y0007300D01*
X0054999Y0009643D01*
X0054999Y0012957D01*
X0052656Y0015300D01*
X0049342Y0015300D01*
X0046999Y0012957D01*
X0046999Y0009643D01*
X0049342Y0007300D01*
X0052656Y0007300D01*
X0054999Y0009643D01*
X0054999Y0012957D01*
X0054999Y0010891D02*
X0056999Y0010891D01*
X0054999Y0010891D01*
X0054649Y0009293D02*
X0057350Y0009293D01*
X0054649Y0009293D01*
X0053050Y0007694D02*
X0058948Y0007694D01*
X0053050Y0007694D01*
X0048948Y0007694D02*
X0043050Y0007694D01*
X0048948Y0007694D01*
X0047350Y0009293D02*
X0044649Y0009293D01*
X0047350Y0009293D01*
X0046999Y0010891D02*
X0044999Y0010891D01*
X0046999Y0010891D01*
X0046999Y0012490D02*
X0044999Y0012490D01*
X0046999Y0012490D01*
X0048130Y0014088D02*
X0043868Y0014088D01*
X0048130Y0014088D01*
X0034297Y0017285D02*
X0029671Y0017285D01*
X0034297Y0017285D01*
X0032699Y0015687D02*
X0028073Y0015687D01*
X0032699Y0015687D01*
X0028130Y0014088D02*
X0026474Y0014088D01*
X0028130Y0014088D01*
X0063050Y0007694D02*
X0068948Y0007694D01*
X0063050Y0007694D01*
X0064649Y0009293D02*
X0067350Y0009293D01*
X0064649Y0009293D01*
X0064999Y0010891D02*
X0066999Y0010891D01*
X0064999Y0010891D01*
X0064999Y0012490D02*
X0066999Y0012490D01*
X0064999Y0012490D01*
X0074999Y0012490D02*
X0076999Y0012490D01*
X0074999Y0012490D01*
X0074999Y0010891D02*
X0076999Y0010891D01*
X0074999Y0010891D01*
X0074649Y0009293D02*
X0077350Y0009293D01*
X0074649Y0009293D01*
X0073050Y0007694D02*
X0078948Y0007694D01*
X0073050Y0007694D01*
X0083050Y0007694D02*
X0088948Y0007694D01*
X0083050Y0007694D01*
X0084649Y0009293D02*
X0087350Y0009293D01*
X0084649Y0009293D01*
X0084999Y0010891D02*
X0086999Y0010891D01*
X0084999Y0010891D01*
X0145999Y0006300D02*
X0165999Y0006300D01*
X0170999Y0011300D01*
X0174649Y0009293D02*
X0177350Y0009293D01*
X0174649Y0009293D01*
X0173050Y0007694D02*
X0178948Y0007694D01*
X0173050Y0007694D01*
X0183050Y0007694D02*
X0188948Y0007694D01*
X0183050Y0007694D01*
X0184649Y0009293D02*
X0187350Y0009293D01*
X0184649Y0009293D01*
X0184999Y0010891D02*
X0186999Y0010891D01*
X0184999Y0010891D01*
X0184999Y0012490D02*
X0186999Y0012490D01*
X0184999Y0012490D01*
X0185524Y0014088D02*
X0183868Y0014088D01*
X0185524Y0014088D01*
X0183926Y0015687D02*
X0174532Y0015687D01*
X0183926Y0015687D01*
X0182327Y0017285D02*
X0159999Y0017285D01*
X0182327Y0017285D01*
X0178130Y0014088D02*
X0176131Y0014088D01*
X0178130Y0014088D01*
X0192251Y0018884D02*
X0194693Y0018884D01*
X0192251Y0018884D01*
X0190653Y0020482D02*
X0194099Y0020482D01*
X0190653Y0020482D01*
X0189054Y0022081D02*
X0193476Y0022081D01*
X0189054Y0022081D01*
X0187456Y0023679D02*
X0191877Y0023679D01*
X0187456Y0023679D01*
X0199012Y0028475D02*
X0204602Y0028475D01*
X0199012Y0028475D01*
X0197413Y0030073D02*
X0203745Y0030073D01*
X0197413Y0030073D01*
X0202343Y0023679D02*
X0204222Y0023679D01*
X0202343Y0023679D01*
X0202899Y0022081D02*
X0203599Y0022081D01*
X0202899Y0022081D01*
X0202899Y0020482D02*
X0203599Y0020482D01*
X0202899Y0020482D01*
X0202305Y0018884D02*
X0204238Y0018884D01*
X0202305Y0018884D01*
X0200707Y0017285D02*
X0206194Y0017285D01*
X0200707Y0017285D01*
X0196292Y0017285D02*
X0193850Y0017285D01*
X0196292Y0017285D01*
X0195448Y0015687D02*
X0216599Y0015687D01*
X0195448Y0015687D01*
X0197047Y0014088D02*
X0198130Y0014088D01*
X0197047Y0014088D01*
X0203868Y0014088D02*
X0208130Y0014088D01*
X0203868Y0014088D01*
X0204999Y0012490D02*
X0206999Y0012490D01*
X0204999Y0012490D01*
X0206999Y0012957D02*
X0206999Y0009643D01*
X0209342Y0007300D01*
X0212656Y0007300D01*
X0214999Y0009643D01*
X0214999Y0012957D01*
X0212656Y0015300D01*
X0209342Y0015300D01*
X0206999Y0012957D01*
X0206999Y0009643D01*
X0209342Y0007300D01*
X0212656Y0007300D01*
X0214999Y0009643D01*
X0214999Y0012957D01*
X0212656Y0015300D01*
X0209342Y0015300D01*
X0206999Y0012957D01*
X0206999Y0010891D02*
X0204999Y0010891D01*
X0206999Y0010891D01*
X0207350Y0009293D02*
X0204649Y0009293D01*
X0207350Y0009293D01*
X0208948Y0007694D02*
X0203050Y0007694D01*
X0208948Y0007694D01*
X0213050Y0007694D02*
X0218948Y0007694D01*
X0213050Y0007694D01*
X0214649Y0009293D02*
X0217350Y0009293D01*
X0214649Y0009293D01*
X0214999Y0010891D02*
X0216999Y0010891D01*
X0214999Y0010891D01*
X0214999Y0012490D02*
X0216999Y0012490D01*
X0214999Y0012490D01*
X0213868Y0014088D02*
X0216599Y0014088D01*
X0213868Y0014088D01*
X0220399Y0015687D02*
X0226199Y0015687D01*
X0220399Y0015687D01*
X0220399Y0017285D02*
X0226199Y0017285D01*
X0220399Y0017285D01*
X0216599Y0017285D02*
X0215804Y0017285D01*
X0216599Y0017285D01*
X0220399Y0018884D02*
X0226199Y0018884D01*
X0220399Y0018884D01*
X0220399Y0020482D02*
X0226199Y0020482D01*
X0220399Y0020482D01*
X0220399Y0022081D02*
X0226199Y0022081D01*
X0220399Y0022081D01*
X0220127Y0023679D02*
X0226199Y0023679D01*
X0220127Y0023679D01*
X0218529Y0025278D02*
X0226199Y0025278D01*
X0218529Y0025278D01*
X0216930Y0026876D02*
X0226199Y0026876D01*
X0216930Y0026876D01*
X0217396Y0028475D02*
X0226199Y0028475D01*
X0217396Y0028475D01*
X0218254Y0030073D02*
X0226199Y0030073D01*
X0218254Y0030073D01*
X0218399Y0031672D02*
X0226199Y0031672D01*
X0218399Y0031672D01*
X0217946Y0033270D02*
X0226199Y0033270D01*
X0217946Y0033270D01*
X0216653Y0034869D02*
X0226199Y0034869D01*
X0216653Y0034869D01*
X0216988Y0038066D02*
X0226199Y0038066D01*
X0216988Y0038066D01*
X0218084Y0039664D02*
X0226199Y0039664D01*
X0218084Y0039664D01*
X0218399Y0041263D02*
X0226199Y0041263D01*
X0218399Y0041263D01*
X0218115Y0042861D02*
X0226199Y0042861D01*
X0218115Y0042861D01*
X0217062Y0044460D02*
X0226199Y0044460D01*
X0217062Y0044460D01*
X0223868Y0014088D02*
X0226199Y0014088D01*
X0223868Y0014088D01*
X0224999Y0012490D02*
X0226199Y0012490D01*
X0224999Y0012490D01*
X0224999Y0010891D02*
X0226199Y0010891D01*
X0224999Y0010891D01*
X0224649Y0009293D02*
X0226199Y0009293D01*
X0224649Y0009293D01*
X0226199Y0007694D02*
X0223050Y0007694D01*
X0226199Y0007694D01*
X0198948Y0007694D02*
X0193050Y0007694D01*
X0198948Y0007694D01*
X0197350Y0009293D02*
X0194649Y0009293D01*
X0197350Y0009293D01*
X0038205Y0068437D02*
X0033794Y0068437D01*
X0038205Y0068437D01*
X0036999Y0070036D02*
X0034999Y0070036D01*
X0036999Y0070036D01*
X0036999Y0071634D02*
X0034999Y0071634D01*
X0036999Y0071634D01*
X0037275Y0073233D02*
X0034723Y0073233D01*
X0037275Y0073233D01*
X0038874Y0074832D02*
X0033125Y0074832D01*
X0038874Y0074832D01*
X0028874Y0074832D02*
X0023125Y0074832D01*
X0028874Y0074832D01*
X0027275Y0073233D02*
X0024723Y0073233D01*
X0027275Y0073233D01*
X0026999Y0071634D02*
X0024999Y0071634D01*
X0026999Y0071634D01*
X0015999Y0065240D02*
X0015999Y0065240D01*
X0015999Y0065240D01*
X0015999Y0063642D02*
X0015999Y0063642D01*
X0015999Y0063642D01*
X0015999Y0062043D02*
X0015999Y0062043D01*
X0015999Y0062043D01*
D18*
X0063699Y0059800D03*
X0113499Y0058000D03*
X0125999Y0053800D03*
X0113499Y0051300D03*
D19*
X0113499Y0058000D02*
X0113499Y0060237D01*
X0107436Y0066300D01*
X0105999Y0066300D01*
X0111699Y0064300D02*
X0111699Y0070600D01*
X0110999Y0071300D01*
X0120999Y0071300D02*
X0121599Y0071500D01*
X0126099Y0076000D01*
X0125999Y0076300D01*
X0125999Y0066300D02*
X0125199Y0066100D01*
X0121599Y0066100D01*
X0117099Y0061600D01*
X0114399Y0061600D01*
X0111699Y0064300D01*
X0145999Y0056300D02*
X0146799Y0057100D01*
X0150399Y0057100D01*
X0154899Y0061600D01*
X0171999Y0061600D01*
X0180999Y0070600D01*
X0180999Y0071300D01*
X0198999Y0070600D02*
X0200799Y0070600D01*
X0200999Y0071300D01*
X0198999Y0070600D02*
X0170199Y0041800D01*
X0154899Y0041800D01*
X0150399Y0046300D01*
X0145999Y0046300D01*
X0155999Y0036300D02*
X0157199Y0037500D01*
X0160999Y0037500D01*
X0177199Y0037500D01*
X0182107Y0042407D01*
X0189926Y0042407D01*
X0195166Y0037167D01*
X0195166Y0029633D01*
X0198931Y0025868D01*
X0215251Y0025868D01*
X0218499Y0022620D01*
X0218499Y0013800D01*
X0220999Y0011300D01*
X0200999Y0011300D02*
X0197148Y0011300D01*
X0186648Y0021800D01*
X0160999Y0021800D01*
X0156499Y0026300D01*
X0155999Y0026300D01*
X0149699Y0020000D02*
X0182299Y0020000D01*
X0190999Y0011300D01*
X0180999Y0011300D02*
X0176232Y0011300D01*
X0172532Y0015000D01*
X0157299Y0015000D01*
X0155999Y0016300D01*
X0149699Y0020000D02*
X0145999Y0016300D01*
X0140999Y0017339D02*
X0140999Y0011300D01*
X0130999Y0011300D02*
X0130599Y0011200D01*
X0126099Y0006700D01*
X0125999Y0006300D01*
X0116199Y0006700D02*
X0115999Y0006300D01*
X0116199Y0006700D02*
X0111699Y0011200D01*
X0110999Y0011300D01*
X0116199Y0016600D02*
X0120699Y0012100D01*
X0120999Y0011300D01*
X0115999Y0016300D02*
X0116199Y0016600D01*
X0125999Y0016300D02*
X0129924Y0020225D01*
X0138113Y0020225D01*
X0140999Y0017339D01*
X0095999Y0036000D02*
X0091899Y0031900D01*
X0091899Y0025926D01*
X0086473Y0020500D01*
X0040199Y0020500D01*
X0030999Y0011300D01*
X0020999Y0011300D02*
X0034113Y0024414D01*
X0067269Y0024414D01*
X0079155Y0036300D01*
X0085999Y0036300D01*
X0083499Y0036300D01*
X0095999Y0036300D02*
X0095999Y0036000D01*
X0085999Y0016300D02*
X0085053Y0015354D01*
X0065053Y0015354D01*
X0060999Y0011300D01*
X0160452Y0037500D02*
X0160999Y0037500D01*
X0070999Y0071300D02*
X0066962Y0071300D01*
X0060999Y0065337D01*
X0060999Y0061300D01*
X0062499Y0059800D01*
X0063699Y0059800D01*
D20*
X0080999Y0071300D02*
X0085999Y0076300D01*
X0091049Y0076300D01*
X0094549Y0072800D01*
X0097449Y0072800D01*
X0100949Y0076300D01*
X0105999Y0076300D01*
M02*
