G75*
%MOIN*%
%OFA0B0*%
%FSLAX25Y25*%
%IPPOS*%
%LPD*%
%AMOC8*
5,1,8,0,0,1.08239X$1,22.5*
%
%ADD10C,0.00000*%
%ADD11C,0.00300*%
%ADD12C,0.00600*%
%ADD13C,0.01200*%
%ADD14C,0.00500*%
%ADD15C,0.00800*%
%ADD16C,0.02400*%
%ADD17C,0.01000*%
D10*
X0001000Y0001301D02*
X0001000Y0081261D01*
X0230999Y0081260D01*
X0230999Y0001300D01*
X0001000Y0001301D01*
D11*
X0007466Y0004450D02*
X0007466Y0008153D01*
X0009318Y0008153D01*
X0009935Y0007536D01*
X0009935Y0006302D01*
X0009318Y0005684D01*
X0007466Y0005684D01*
X0011149Y0004450D02*
X0013618Y0004450D01*
X0012384Y0004450D02*
X0012384Y0008153D01*
X0011149Y0006919D01*
X0031149Y0006852D02*
X0032117Y0006852D01*
X0031633Y0006852D02*
X0031633Y0003950D01*
X0031149Y0003950D02*
X0032117Y0003950D01*
X0033114Y0004434D02*
X0033597Y0003950D01*
X0034565Y0003950D01*
X0035049Y0004434D01*
X0035049Y0006369D01*
X0034565Y0006852D01*
X0033597Y0006852D01*
X0033114Y0006369D01*
X0033114Y0004434D01*
X0039007Y0004917D02*
X0040458Y0004917D01*
X0040942Y0005401D01*
X0040942Y0006369D01*
X0040458Y0006852D01*
X0039007Y0006852D01*
X0039007Y0003950D01*
X0041953Y0003950D02*
X0043888Y0003950D01*
X0042921Y0003950D02*
X0042921Y0006852D01*
X0041953Y0005885D01*
X0044900Y0006369D02*
X0045383Y0006852D01*
X0046351Y0006852D01*
X0046835Y0006369D01*
X0044900Y0004434D01*
X0045383Y0003950D01*
X0046351Y0003950D01*
X0046835Y0004434D01*
X0046835Y0006369D01*
X0044900Y0006369D02*
X0044900Y0004434D01*
X0048330Y0004434D02*
X0048330Y0003950D01*
X0048814Y0003950D01*
X0048814Y0004434D01*
X0048330Y0004434D01*
X0048814Y0003950D02*
X0047846Y0002983D01*
X0049810Y0004434D02*
X0050294Y0003950D01*
X0051262Y0003950D01*
X0051745Y0004434D01*
X0051745Y0004917D01*
X0051262Y0005401D01*
X0050778Y0005401D01*
X0051262Y0005401D02*
X0051745Y0005885D01*
X0051745Y0006369D01*
X0051262Y0006852D01*
X0050294Y0006852D01*
X0049810Y0006369D01*
X0052757Y0006369D02*
X0053241Y0006852D01*
X0054208Y0006852D01*
X0054692Y0006369D01*
X0054692Y0005885D01*
X0052757Y0003950D01*
X0054692Y0003950D01*
X0067466Y0004450D02*
X0067466Y0008153D01*
X0069318Y0008153D01*
X0069935Y0007536D01*
X0069935Y0006302D01*
X0069318Y0005684D01*
X0067466Y0005684D01*
X0071149Y0005067D02*
X0071149Y0004450D01*
X0071149Y0005067D02*
X0073618Y0007536D01*
X0073618Y0008153D01*
X0071149Y0008153D01*
X0069961Y0015129D02*
X0068993Y0015129D01*
X0068510Y0015613D01*
X0070445Y0017548D01*
X0070445Y0015613D01*
X0069961Y0015129D01*
X0068510Y0015613D02*
X0068510Y0017548D01*
X0068993Y0018032D01*
X0069961Y0018032D01*
X0070445Y0017548D01*
X0066025Y0016580D02*
X0064090Y0016580D01*
X0065541Y0018032D01*
X0065541Y0015129D01*
X0067036Y0015129D02*
X0067520Y0015129D01*
X0067520Y0015613D01*
X0067036Y0015613D01*
X0067036Y0015129D01*
X0060132Y0015129D02*
X0060132Y0017064D01*
X0059164Y0018032D01*
X0058197Y0017064D01*
X0058197Y0015129D01*
X0057185Y0015613D02*
X0057185Y0016097D01*
X0056702Y0016580D01*
X0055734Y0016580D01*
X0055250Y0017064D01*
X0055250Y0017548D01*
X0055734Y0018032D01*
X0056702Y0018032D01*
X0057185Y0017548D01*
X0058197Y0016580D02*
X0060132Y0016580D01*
X0057185Y0015613D02*
X0056702Y0015129D01*
X0055734Y0015129D01*
X0055250Y0015613D01*
X0051292Y0015613D02*
X0050809Y0015129D01*
X0049841Y0015129D01*
X0049357Y0015613D01*
X0049357Y0017548D01*
X0049841Y0018032D01*
X0050809Y0018032D01*
X0051292Y0017548D01*
X0052304Y0016580D02*
X0054239Y0016580D01*
X0048346Y0015129D02*
X0048346Y0018032D01*
X0046411Y0018032D02*
X0048346Y0015129D01*
X0046411Y0015129D02*
X0046411Y0018032D01*
X0045399Y0016580D02*
X0043464Y0016580D01*
X0042453Y0017548D02*
X0042453Y0018032D01*
X0042453Y0017548D02*
X0041485Y0016580D01*
X0041485Y0015129D01*
X0039506Y0015613D02*
X0039022Y0015129D01*
X0037571Y0015129D01*
X0037571Y0018032D01*
X0039022Y0018032D01*
X0039506Y0017548D01*
X0039506Y0017064D01*
X0039022Y0016580D01*
X0037571Y0016580D01*
X0039022Y0016580D02*
X0039506Y0016097D01*
X0039506Y0015613D01*
X0040518Y0017548D02*
X0041485Y0016580D01*
X0040518Y0017548D02*
X0040518Y0018032D01*
X0041969Y0019929D02*
X0041969Y0022832D01*
X0040518Y0021380D01*
X0042453Y0021380D01*
X0043464Y0019929D02*
X0044915Y0019929D01*
X0045399Y0020413D01*
X0045399Y0022348D01*
X0044915Y0022832D01*
X0043464Y0022832D01*
X0043464Y0019929D01*
X0039506Y0021380D02*
X0037571Y0021380D01*
X0039022Y0022832D01*
X0039022Y0019929D01*
X0036560Y0019929D02*
X0036560Y0021864D01*
X0035592Y0022832D01*
X0034625Y0021864D01*
X0034625Y0019929D01*
X0033613Y0020413D02*
X0033613Y0021380D01*
X0032646Y0021380D01*
X0033613Y0020413D02*
X0033129Y0019929D01*
X0032162Y0019929D01*
X0031678Y0020413D01*
X0031678Y0022348D01*
X0032162Y0022832D01*
X0033129Y0022832D01*
X0033613Y0022348D01*
X0030667Y0022348D02*
X0030667Y0021380D01*
X0030183Y0020897D01*
X0028732Y0020897D01*
X0028732Y0019929D02*
X0028732Y0022832D01*
X0030183Y0022832D01*
X0030667Y0022348D01*
X0034625Y0021380D02*
X0036560Y0021380D01*
X0033129Y0018032D02*
X0032162Y0018032D01*
X0031678Y0017548D01*
X0031678Y0015613D01*
X0032162Y0015129D01*
X0033129Y0015129D01*
X0033613Y0015613D01*
X0030667Y0015613D02*
X0030183Y0015129D01*
X0029215Y0015129D01*
X0028732Y0015613D01*
X0028732Y0017548D01*
X0029215Y0018032D01*
X0030183Y0018032D01*
X0030667Y0017548D01*
X0033129Y0018032D02*
X0033613Y0017548D01*
X0046411Y0019929D02*
X0047378Y0019929D01*
X0046895Y0019929D02*
X0046895Y0022832D01*
X0047378Y0022832D02*
X0046411Y0022832D01*
X0048375Y0022832D02*
X0049826Y0022832D01*
X0050310Y0022348D01*
X0050310Y0021380D01*
X0049826Y0020897D01*
X0048375Y0020897D01*
X0048375Y0019929D02*
X0048375Y0022832D01*
X0051322Y0021380D02*
X0053257Y0021380D01*
X0054268Y0021380D02*
X0056203Y0021380D01*
X0055719Y0019929D02*
X0055719Y0022832D01*
X0054268Y0021380D01*
X0052773Y0019929D02*
X0052773Y0022832D01*
X0051322Y0021380D01*
X0060161Y0019929D02*
X0062096Y0022832D01*
X0063108Y0022348D02*
X0063108Y0020413D01*
X0063591Y0019929D01*
X0064559Y0019929D01*
X0065043Y0020413D01*
X0066054Y0020413D02*
X0066538Y0019929D01*
X0067505Y0019929D01*
X0067989Y0020413D01*
X0067989Y0022348D01*
X0067505Y0022832D01*
X0066538Y0022832D01*
X0066054Y0022348D01*
X0066054Y0021864D01*
X0066538Y0021380D01*
X0067989Y0021380D01*
X0069001Y0021380D02*
X0069968Y0021864D01*
X0070452Y0021864D01*
X0070936Y0021380D01*
X0070936Y0020413D01*
X0070452Y0019929D01*
X0069484Y0019929D01*
X0069001Y0020413D01*
X0069001Y0021380D02*
X0069001Y0022832D01*
X0070936Y0022832D01*
X0071947Y0022832D02*
X0073882Y0022832D01*
X0073882Y0022348D01*
X0071947Y0020413D01*
X0071947Y0019929D01*
X0074894Y0019929D02*
X0076829Y0021864D01*
X0076829Y0022348D01*
X0076345Y0022832D01*
X0075378Y0022832D01*
X0074894Y0022348D01*
X0074894Y0019929D02*
X0076829Y0019929D01*
X0065043Y0022348D02*
X0064559Y0022832D01*
X0063591Y0022832D01*
X0063108Y0022348D01*
X0062096Y0019929D02*
X0060161Y0022832D01*
X0045049Y0029434D02*
X0045049Y0031369D01*
X0044565Y0031852D01*
X0043597Y0031852D01*
X0043114Y0031369D01*
X0043114Y0029434D01*
X0043597Y0028950D01*
X0044565Y0028950D01*
X0045049Y0029434D01*
X0042117Y0028950D02*
X0041149Y0028950D01*
X0041633Y0028950D02*
X0041633Y0031852D01*
X0041149Y0031852D02*
X0042117Y0031852D01*
X0042117Y0038950D02*
X0041149Y0038950D01*
X0041633Y0038950D02*
X0041633Y0041852D01*
X0041149Y0041852D02*
X0042117Y0041852D01*
X0043114Y0041852D02*
X0045049Y0038950D01*
X0045049Y0041852D01*
X0046060Y0041852D02*
X0047995Y0041852D01*
X0047028Y0041852D02*
X0047028Y0038950D01*
X0043114Y0038950D02*
X0043114Y0041852D01*
X0042117Y0048950D02*
X0043084Y0049917D01*
X0043084Y0051852D01*
X0044096Y0051369D02*
X0044579Y0051852D01*
X0045547Y0051852D01*
X0046031Y0051369D01*
X0046031Y0050885D01*
X0045547Y0050401D01*
X0046031Y0049917D01*
X0046031Y0049434D01*
X0045547Y0048950D01*
X0044579Y0048950D01*
X0044096Y0049434D01*
X0042117Y0048950D02*
X0041149Y0049917D01*
X0041149Y0051852D01*
X0045063Y0050401D02*
X0045547Y0050401D01*
X0047042Y0051369D02*
X0047526Y0051852D01*
X0048493Y0051852D01*
X0048977Y0051369D01*
X0048977Y0050885D01*
X0048493Y0050401D01*
X0048977Y0049917D01*
X0048977Y0049434D01*
X0048493Y0048950D01*
X0047526Y0048950D01*
X0047042Y0049434D01*
X0048010Y0050401D02*
X0048493Y0050401D01*
X0012849Y0044359D02*
X0012849Y0041223D01*
X0012065Y0039755D02*
X0012849Y0038971D01*
X0012849Y0037403D01*
X0012065Y0036619D01*
X0008929Y0036619D01*
X0008145Y0037403D01*
X0008145Y0038971D01*
X0008929Y0039755D01*
X0009713Y0041223D02*
X0008145Y0042791D01*
X0012849Y0042791D01*
X0012849Y0035118D02*
X0012849Y0033550D01*
X0012849Y0034334D02*
X0008145Y0034334D01*
X0008145Y0033550D02*
X0008145Y0035118D01*
X0005624Y0074450D02*
X0005624Y0078153D01*
X0007476Y0078153D01*
X0008093Y0077536D01*
X0008093Y0076302D01*
X0007476Y0075684D01*
X0005624Y0075684D01*
X0009308Y0076302D02*
X0011776Y0076302D01*
X0012991Y0076302D02*
X0015460Y0076302D01*
X0014842Y0078153D02*
X0012991Y0076302D01*
X0011159Y0078153D02*
X0009308Y0076302D01*
X0011159Y0078153D02*
X0011159Y0074450D01*
X0014842Y0074450D02*
X0014842Y0078153D01*
X0036238Y0078153D02*
X0037473Y0078153D01*
X0036856Y0078153D02*
X0036856Y0074450D01*
X0037473Y0074450D02*
X0036238Y0074450D01*
X0038694Y0074450D02*
X0038694Y0078153D01*
X0041163Y0074450D01*
X0041163Y0078153D01*
X0042377Y0078153D02*
X0044846Y0078153D01*
X0043611Y0078153D02*
X0043611Y0074450D01*
X0065624Y0074450D02*
X0065624Y0078153D01*
X0067476Y0078153D01*
X0068093Y0077536D01*
X0068093Y0076302D01*
X0067476Y0075684D01*
X0065624Y0075684D01*
X0069308Y0075067D02*
X0069925Y0074450D01*
X0071159Y0074450D01*
X0071776Y0075067D01*
X0071776Y0075684D01*
X0071159Y0076302D01*
X0070542Y0076302D01*
X0071159Y0076302D02*
X0071776Y0076919D01*
X0071776Y0077536D01*
X0071159Y0078153D01*
X0069925Y0078153D01*
X0069308Y0077536D01*
X0072991Y0077536D02*
X0072991Y0076919D01*
X0073608Y0076302D01*
X0074842Y0076302D01*
X0075460Y0075684D01*
X0075460Y0075067D01*
X0074842Y0074450D01*
X0073608Y0074450D01*
X0072991Y0075067D01*
X0072991Y0075684D01*
X0073608Y0076302D01*
X0074842Y0076302D02*
X0075460Y0076919D01*
X0075460Y0077536D01*
X0074842Y0078153D01*
X0073608Y0078153D01*
X0072991Y0077536D01*
X0165624Y0078153D02*
X0165624Y0074450D01*
X0165624Y0075684D02*
X0167476Y0075684D01*
X0168093Y0076302D01*
X0168093Y0077536D01*
X0167476Y0078153D01*
X0165624Y0078153D01*
X0169308Y0077536D02*
X0169925Y0078153D01*
X0171159Y0078153D01*
X0171776Y0077536D01*
X0171776Y0076919D01*
X0169308Y0074450D01*
X0171776Y0074450D01*
X0172991Y0075067D02*
X0172991Y0075684D01*
X0173608Y0076302D01*
X0174842Y0076302D01*
X0175460Y0075684D01*
X0175460Y0075067D01*
X0174842Y0074450D01*
X0173608Y0074450D01*
X0172991Y0075067D01*
X0173608Y0076302D02*
X0172991Y0076919D01*
X0172991Y0077536D01*
X0173608Y0078153D01*
X0174842Y0078153D01*
X0175460Y0077536D01*
X0175460Y0076919D01*
X0174842Y0076302D01*
X0215624Y0077536D02*
X0215624Y0075067D01*
X0216242Y0074450D01*
X0217476Y0074450D01*
X0218093Y0075067D01*
X0218093Y0076302D01*
X0216859Y0076302D01*
X0218093Y0077536D02*
X0217476Y0078153D01*
X0216242Y0078153D01*
X0215624Y0077536D01*
X0219308Y0078153D02*
X0221776Y0074450D01*
X0221776Y0078153D01*
X0222991Y0078153D02*
X0224842Y0078153D01*
X0225460Y0077536D01*
X0225460Y0075067D01*
X0224842Y0074450D01*
X0222991Y0074450D01*
X0222991Y0078153D01*
X0219308Y0078153D02*
X0219308Y0074450D01*
X0219133Y0064352D02*
X0218649Y0063869D01*
X0218649Y0061934D01*
X0219133Y0061450D01*
X0220100Y0061450D01*
X0220584Y0061934D01*
X0220584Y0062901D01*
X0219617Y0062901D01*
X0220584Y0063869D02*
X0220100Y0064352D01*
X0219133Y0064352D01*
X0221596Y0064352D02*
X0223531Y0061450D01*
X0223531Y0064352D01*
X0224542Y0064352D02*
X0225993Y0064352D01*
X0226477Y0063869D01*
X0226477Y0061934D01*
X0225993Y0061450D01*
X0224542Y0061450D01*
X0224542Y0064352D01*
X0221596Y0064352D02*
X0221596Y0061450D01*
X0221596Y0054352D02*
X0223047Y0054352D01*
X0223531Y0053869D01*
X0223531Y0051934D01*
X0223047Y0051450D01*
X0221596Y0051450D01*
X0221596Y0054352D01*
X0220584Y0054352D02*
X0218649Y0054352D01*
X0219617Y0054352D02*
X0219617Y0051450D01*
X0224542Y0051450D02*
X0225510Y0051450D01*
X0225026Y0051450D02*
X0225026Y0054352D01*
X0224542Y0054352D02*
X0225510Y0054352D01*
X0225993Y0044352D02*
X0225026Y0044352D01*
X0224542Y0043869D01*
X0224542Y0041934D01*
X0225026Y0041450D01*
X0225993Y0041450D01*
X0226477Y0041934D01*
X0226477Y0043869D01*
X0225993Y0044352D01*
X0223531Y0043869D02*
X0223047Y0044352D01*
X0221596Y0044352D01*
X0221596Y0041450D01*
X0223047Y0041450D01*
X0223531Y0041934D01*
X0223531Y0043869D01*
X0220584Y0044352D02*
X0218649Y0044352D01*
X0219617Y0044352D02*
X0219617Y0041450D01*
X0219617Y0034352D02*
X0219617Y0031450D01*
X0221596Y0031934D02*
X0222079Y0031450D01*
X0223047Y0031450D01*
X0223531Y0031934D01*
X0224542Y0032417D02*
X0226477Y0034352D01*
X0224542Y0034352D02*
X0224542Y0031450D01*
X0225026Y0032901D02*
X0226477Y0031450D01*
X0221596Y0031934D02*
X0221596Y0033869D01*
X0222079Y0034352D01*
X0223047Y0034352D01*
X0223531Y0033869D01*
X0220584Y0034352D02*
X0218649Y0034352D01*
X0218649Y0024352D02*
X0220584Y0024352D01*
X0219617Y0024352D02*
X0219617Y0021450D01*
X0221596Y0021450D02*
X0221596Y0024352D01*
X0222563Y0023385D01*
X0223531Y0024352D01*
X0223531Y0021450D01*
X0224542Y0021934D02*
X0225026Y0021450D01*
X0225993Y0021450D01*
X0226477Y0021934D01*
X0226477Y0022417D01*
X0225993Y0022901D01*
X0225026Y0022901D01*
X0224542Y0023385D01*
X0224542Y0023869D01*
X0225026Y0024352D01*
X0225993Y0024352D01*
X0226477Y0023869D01*
X0191835Y0024352D02*
X0189900Y0024352D01*
X0190867Y0024352D02*
X0190867Y0021450D01*
X0188888Y0021450D02*
X0188888Y0024352D01*
X0186953Y0024352D02*
X0188888Y0021450D01*
X0186953Y0021450D02*
X0186953Y0024352D01*
X0185956Y0024352D02*
X0184989Y0024352D01*
X0185473Y0024352D02*
X0185473Y0021450D01*
X0185956Y0021450D02*
X0184989Y0021450D01*
X0183977Y0021934D02*
X0183493Y0021450D01*
X0182526Y0021450D01*
X0182042Y0021934D01*
X0182042Y0023869D01*
X0182526Y0024352D01*
X0183493Y0024352D01*
X0183977Y0023869D01*
X0181031Y0023869D02*
X0180547Y0024352D01*
X0179579Y0024352D01*
X0179096Y0023869D01*
X0179096Y0021934D01*
X0179579Y0021450D01*
X0180547Y0021450D01*
X0181031Y0021934D01*
X0178084Y0022417D02*
X0177117Y0021450D01*
X0176149Y0022417D01*
X0176149Y0024352D01*
X0178084Y0024352D02*
X0178084Y0022417D01*
X0175460Y0008153D02*
X0172991Y0008153D01*
X0170542Y0008153D02*
X0170542Y0004450D01*
X0169308Y0004450D02*
X0171776Y0004450D01*
X0172991Y0004450D02*
X0172991Y0005067D01*
X0175460Y0007536D01*
X0175460Y0008153D01*
X0170542Y0008153D02*
X0169308Y0006919D01*
X0168093Y0007536D02*
X0168093Y0006302D01*
X0167476Y0005684D01*
X0165624Y0005684D01*
X0165624Y0004450D02*
X0165624Y0008153D01*
X0167476Y0008153D01*
X0168093Y0007536D01*
X0206238Y0008153D02*
X0207473Y0008153D01*
X0206856Y0008153D02*
X0206856Y0004450D01*
X0207473Y0004450D02*
X0206238Y0004450D01*
X0208694Y0004450D02*
X0208694Y0008153D01*
X0211163Y0004450D01*
X0211163Y0008153D01*
X0212377Y0008153D02*
X0214846Y0008153D01*
X0213611Y0008153D02*
X0213611Y0004450D01*
X0218124Y0004450D02*
X0218124Y0008153D01*
X0219976Y0008153D01*
X0220593Y0007536D01*
X0220593Y0006302D01*
X0219976Y0005684D01*
X0218124Y0005684D01*
X0221808Y0004450D02*
X0224276Y0006919D01*
X0224276Y0007536D01*
X0223659Y0008153D01*
X0222425Y0008153D01*
X0221808Y0007536D01*
X0225491Y0007536D02*
X0226108Y0008153D01*
X0227342Y0008153D01*
X0227960Y0007536D01*
X0227960Y0006919D01*
X0225491Y0004450D01*
X0227960Y0004450D01*
X0224276Y0004450D02*
X0221808Y0004450D01*
D12*
X0213499Y0016300D02*
X0208499Y0016300D01*
X0205999Y0018800D01*
X0205999Y0023800D01*
X0208499Y0026300D01*
X0205999Y0028800D01*
X0205999Y0033800D01*
X0208499Y0036300D01*
X0205999Y0038800D01*
X0205999Y0043800D01*
X0208499Y0046300D01*
X0205999Y0048800D01*
X0205999Y0053800D01*
X0208499Y0056300D01*
X0205999Y0058800D01*
X0205999Y0063800D01*
X0208499Y0066300D01*
X0213499Y0066300D01*
X0215999Y0063800D01*
X0215999Y0058800D01*
X0213499Y0056300D01*
X0215999Y0053800D01*
X0215999Y0048800D01*
X0213499Y0046300D01*
X0215999Y0043800D01*
X0215999Y0038800D01*
X0213499Y0036300D01*
X0215999Y0033800D01*
X0215999Y0028800D01*
X0213499Y0026300D01*
X0215999Y0023800D01*
X0215999Y0018800D01*
X0213499Y0016300D01*
X0203499Y0018800D02*
X0200999Y0016300D01*
X0195999Y0016300D01*
X0193499Y0018800D01*
X0193499Y0023800D01*
X0195999Y0026300D01*
X0200999Y0026300D01*
X0203499Y0023800D01*
X0203499Y0018800D01*
X0182499Y0029300D02*
X0169499Y0029300D01*
X0169412Y0029302D01*
X0169325Y0029308D01*
X0169238Y0029317D01*
X0169152Y0029330D01*
X0169066Y0029347D01*
X0168981Y0029368D01*
X0168898Y0029393D01*
X0168815Y0029421D01*
X0168734Y0029452D01*
X0168654Y0029487D01*
X0168576Y0029526D01*
X0168499Y0029568D01*
X0168424Y0029613D01*
X0168352Y0029662D01*
X0168281Y0029713D01*
X0168213Y0029768D01*
X0168148Y0029825D01*
X0168085Y0029886D01*
X0168024Y0029949D01*
X0167967Y0030014D01*
X0167912Y0030082D01*
X0167861Y0030153D01*
X0167812Y0030225D01*
X0167767Y0030300D01*
X0167725Y0030377D01*
X0167686Y0030455D01*
X0167651Y0030535D01*
X0167620Y0030616D01*
X0167592Y0030699D01*
X0167567Y0030782D01*
X0167546Y0030867D01*
X0167529Y0030953D01*
X0167516Y0031039D01*
X0167507Y0031126D01*
X0167501Y0031213D01*
X0167499Y0031300D01*
X0170999Y0033800D02*
X0174799Y0033800D01*
X0177299Y0033800D02*
X0180999Y0033800D01*
X0184499Y0031300D02*
X0184497Y0031213D01*
X0184491Y0031126D01*
X0184482Y0031039D01*
X0184469Y0030953D01*
X0184452Y0030867D01*
X0184431Y0030782D01*
X0184406Y0030699D01*
X0184378Y0030616D01*
X0184347Y0030535D01*
X0184312Y0030455D01*
X0184273Y0030377D01*
X0184231Y0030300D01*
X0184186Y0030225D01*
X0184137Y0030153D01*
X0184086Y0030082D01*
X0184031Y0030014D01*
X0183974Y0029949D01*
X0183913Y0029886D01*
X0183850Y0029825D01*
X0183785Y0029768D01*
X0183717Y0029713D01*
X0183646Y0029662D01*
X0183574Y0029613D01*
X0183499Y0029568D01*
X0183422Y0029526D01*
X0183344Y0029487D01*
X0183264Y0029452D01*
X0183183Y0029421D01*
X0183100Y0029393D01*
X0183017Y0029368D01*
X0182932Y0029347D01*
X0182846Y0029330D01*
X0182760Y0029317D01*
X0182673Y0029308D01*
X0182586Y0029302D01*
X0182499Y0029300D01*
X0184499Y0036300D02*
X0184497Y0036387D01*
X0184491Y0036474D01*
X0184482Y0036561D01*
X0184469Y0036647D01*
X0184452Y0036733D01*
X0184431Y0036818D01*
X0184406Y0036901D01*
X0184378Y0036984D01*
X0184347Y0037065D01*
X0184312Y0037145D01*
X0184273Y0037223D01*
X0184231Y0037300D01*
X0184186Y0037375D01*
X0184137Y0037447D01*
X0184086Y0037518D01*
X0184031Y0037586D01*
X0183974Y0037651D01*
X0183913Y0037714D01*
X0183850Y0037775D01*
X0183785Y0037832D01*
X0183717Y0037887D01*
X0183646Y0037938D01*
X0183574Y0037987D01*
X0183499Y0038032D01*
X0183422Y0038074D01*
X0183344Y0038113D01*
X0183264Y0038148D01*
X0183183Y0038179D01*
X0183100Y0038207D01*
X0183017Y0038232D01*
X0182932Y0038253D01*
X0182846Y0038270D01*
X0182760Y0038283D01*
X0182673Y0038292D01*
X0182586Y0038298D01*
X0182499Y0038300D01*
X0169499Y0038300D01*
X0169412Y0038298D01*
X0169325Y0038292D01*
X0169238Y0038283D01*
X0169152Y0038270D01*
X0169066Y0038253D01*
X0168981Y0038232D01*
X0168898Y0038207D01*
X0168815Y0038179D01*
X0168734Y0038148D01*
X0168654Y0038113D01*
X0168576Y0038074D01*
X0168499Y0038032D01*
X0168424Y0037987D01*
X0168352Y0037938D01*
X0168281Y0037887D01*
X0168213Y0037832D01*
X0168148Y0037775D01*
X0168085Y0037714D01*
X0168024Y0037651D01*
X0167967Y0037586D01*
X0167912Y0037518D01*
X0167861Y0037447D01*
X0167812Y0037375D01*
X0167767Y0037300D01*
X0167725Y0037223D01*
X0167686Y0037145D01*
X0167651Y0037065D01*
X0167620Y0036984D01*
X0167592Y0036901D01*
X0167567Y0036818D01*
X0167546Y0036733D01*
X0167529Y0036647D01*
X0167516Y0036561D01*
X0167507Y0036474D01*
X0167501Y0036387D01*
X0167499Y0036300D01*
X0169499Y0046800D02*
X0182499Y0046800D01*
X0182586Y0046802D01*
X0182673Y0046808D01*
X0182760Y0046817D01*
X0182846Y0046830D01*
X0182932Y0046847D01*
X0183017Y0046868D01*
X0183100Y0046893D01*
X0183183Y0046921D01*
X0183264Y0046952D01*
X0183344Y0046987D01*
X0183422Y0047026D01*
X0183499Y0047068D01*
X0183574Y0047113D01*
X0183646Y0047162D01*
X0183717Y0047213D01*
X0183785Y0047268D01*
X0183850Y0047325D01*
X0183913Y0047386D01*
X0183974Y0047449D01*
X0184031Y0047514D01*
X0184086Y0047582D01*
X0184137Y0047653D01*
X0184186Y0047725D01*
X0184231Y0047800D01*
X0184273Y0047877D01*
X0184312Y0047955D01*
X0184347Y0048035D01*
X0184378Y0048116D01*
X0184406Y0048199D01*
X0184431Y0048282D01*
X0184452Y0048367D01*
X0184469Y0048453D01*
X0184482Y0048539D01*
X0184491Y0048626D01*
X0184497Y0048713D01*
X0184499Y0048800D01*
X0180999Y0051300D02*
X0177299Y0051300D01*
X0174799Y0051300D02*
X0170999Y0051300D01*
X0167499Y0048800D02*
X0167501Y0048713D01*
X0167507Y0048626D01*
X0167516Y0048539D01*
X0167529Y0048453D01*
X0167546Y0048367D01*
X0167567Y0048282D01*
X0167592Y0048199D01*
X0167620Y0048116D01*
X0167651Y0048035D01*
X0167686Y0047955D01*
X0167725Y0047877D01*
X0167767Y0047800D01*
X0167812Y0047725D01*
X0167861Y0047653D01*
X0167912Y0047582D01*
X0167967Y0047514D01*
X0168024Y0047449D01*
X0168085Y0047386D01*
X0168148Y0047325D01*
X0168213Y0047268D01*
X0168281Y0047213D01*
X0168352Y0047162D01*
X0168424Y0047113D01*
X0168499Y0047068D01*
X0168576Y0047026D01*
X0168654Y0046987D01*
X0168734Y0046952D01*
X0168815Y0046921D01*
X0168898Y0046893D01*
X0168981Y0046868D01*
X0169066Y0046847D01*
X0169152Y0046830D01*
X0169238Y0046817D01*
X0169325Y0046808D01*
X0169412Y0046802D01*
X0169499Y0046800D01*
X0167499Y0053800D02*
X0167501Y0053887D01*
X0167507Y0053974D01*
X0167516Y0054061D01*
X0167529Y0054147D01*
X0167546Y0054233D01*
X0167567Y0054318D01*
X0167592Y0054401D01*
X0167620Y0054484D01*
X0167651Y0054565D01*
X0167686Y0054645D01*
X0167725Y0054723D01*
X0167767Y0054800D01*
X0167812Y0054875D01*
X0167861Y0054947D01*
X0167912Y0055018D01*
X0167967Y0055086D01*
X0168024Y0055151D01*
X0168085Y0055214D01*
X0168148Y0055275D01*
X0168213Y0055332D01*
X0168281Y0055387D01*
X0168352Y0055438D01*
X0168424Y0055487D01*
X0168499Y0055532D01*
X0168576Y0055574D01*
X0168654Y0055613D01*
X0168734Y0055648D01*
X0168815Y0055679D01*
X0168898Y0055707D01*
X0168981Y0055732D01*
X0169066Y0055753D01*
X0169152Y0055770D01*
X0169238Y0055783D01*
X0169325Y0055792D01*
X0169412Y0055798D01*
X0169499Y0055800D01*
X0182499Y0055800D01*
X0182586Y0055798D01*
X0182673Y0055792D01*
X0182760Y0055783D01*
X0182846Y0055770D01*
X0182932Y0055753D01*
X0183017Y0055732D01*
X0183100Y0055707D01*
X0183183Y0055679D01*
X0183264Y0055648D01*
X0183344Y0055613D01*
X0183422Y0055574D01*
X0183499Y0055532D01*
X0183574Y0055487D01*
X0183646Y0055438D01*
X0183717Y0055387D01*
X0183785Y0055332D01*
X0183850Y0055275D01*
X0183913Y0055214D01*
X0183974Y0055151D01*
X0184031Y0055086D01*
X0184086Y0055018D01*
X0184137Y0054947D01*
X0184186Y0054875D01*
X0184231Y0054800D01*
X0184273Y0054723D01*
X0184312Y0054645D01*
X0184347Y0054565D01*
X0184378Y0054484D01*
X0184406Y0054401D01*
X0184431Y0054318D01*
X0184452Y0054233D01*
X0184469Y0054147D01*
X0184482Y0054061D01*
X0184491Y0053974D01*
X0184497Y0053887D01*
X0184499Y0053800D01*
X0160999Y0066300D02*
X0160999Y0016300D01*
X0160999Y0006300D02*
X0160999Y0001300D01*
X0085999Y0001300D02*
X0080999Y0006300D01*
X0080999Y0016300D02*
X0080999Y0036300D01*
X0075999Y0036300D01*
X0075999Y0046300D01*
X0080999Y0046300D01*
X0080999Y0066300D01*
X0080999Y0076300D02*
X0080999Y0081300D01*
X0038499Y0057800D02*
X0038345Y0057802D01*
X0038191Y0057808D01*
X0038037Y0057818D01*
X0037883Y0057832D01*
X0037730Y0057849D01*
X0037578Y0057871D01*
X0037426Y0057897D01*
X0037274Y0057926D01*
X0037124Y0057960D01*
X0036974Y0057997D01*
X0036826Y0058038D01*
X0036678Y0058083D01*
X0036532Y0058132D01*
X0036387Y0058184D01*
X0036244Y0058240D01*
X0036101Y0058300D01*
X0035961Y0058363D01*
X0035822Y0058430D01*
X0035685Y0058501D01*
X0035550Y0058575D01*
X0035417Y0058652D01*
X0035285Y0058733D01*
X0035156Y0058817D01*
X0035029Y0058905D01*
X0034905Y0058996D01*
X0034783Y0059089D01*
X0034663Y0059187D01*
X0034546Y0059287D01*
X0034431Y0059390D01*
X0034319Y0059496D01*
X0034210Y0059604D01*
X0034104Y0059716D01*
X0034000Y0059830D01*
X0033900Y0059947D01*
X0033802Y0060066D01*
X0033708Y0060188D01*
X0033617Y0060313D01*
X0038499Y0069800D02*
X0038651Y0069798D01*
X0038802Y0069792D01*
X0038953Y0069783D01*
X0039105Y0069769D01*
X0039255Y0069752D01*
X0039405Y0069731D01*
X0039555Y0069706D01*
X0039704Y0069678D01*
X0039852Y0069645D01*
X0039999Y0069609D01*
X0040146Y0069570D01*
X0040291Y0069526D01*
X0040435Y0069479D01*
X0040578Y0069428D01*
X0040719Y0069374D01*
X0040860Y0069316D01*
X0040998Y0069255D01*
X0041135Y0069190D01*
X0041271Y0069121D01*
X0041404Y0069050D01*
X0041536Y0068975D01*
X0041666Y0068896D01*
X0041793Y0068815D01*
X0041919Y0068730D01*
X0042043Y0068642D01*
X0042164Y0068551D01*
X0042283Y0068457D01*
X0042399Y0068359D01*
X0042513Y0068259D01*
X0042625Y0068157D01*
X0042733Y0068051D01*
X0042839Y0067943D01*
X0042943Y0067832D01*
X0043043Y0067718D01*
X0043141Y0067602D01*
X0043235Y0067483D01*
X0038499Y0069800D02*
X0038347Y0069798D01*
X0038196Y0069792D01*
X0038045Y0069783D01*
X0037893Y0069769D01*
X0037743Y0069752D01*
X0037593Y0069731D01*
X0037443Y0069706D01*
X0037294Y0069678D01*
X0037146Y0069645D01*
X0036999Y0069609D01*
X0036852Y0069570D01*
X0036707Y0069526D01*
X0036563Y0069479D01*
X0036420Y0069428D01*
X0036279Y0069374D01*
X0036138Y0069316D01*
X0036000Y0069255D01*
X0035863Y0069190D01*
X0035727Y0069121D01*
X0035594Y0069050D01*
X0035462Y0068975D01*
X0035332Y0068896D01*
X0035205Y0068815D01*
X0035079Y0068730D01*
X0034955Y0068642D01*
X0034834Y0068551D01*
X0034715Y0068457D01*
X0034599Y0068359D01*
X0034485Y0068259D01*
X0034373Y0068157D01*
X0034265Y0068051D01*
X0034159Y0067943D01*
X0034055Y0067832D01*
X0033955Y0067718D01*
X0033857Y0067602D01*
X0033763Y0067483D01*
X0038499Y0057800D02*
X0038649Y0057802D01*
X0038800Y0057808D01*
X0038950Y0057817D01*
X0039099Y0057830D01*
X0039249Y0057847D01*
X0039398Y0057868D01*
X0039546Y0057892D01*
X0039694Y0057920D01*
X0039841Y0057952D01*
X0039987Y0057987D01*
X0040132Y0058027D01*
X0040276Y0058069D01*
X0040419Y0058116D01*
X0040561Y0058166D01*
X0040702Y0058219D01*
X0040841Y0058276D01*
X0040979Y0058336D01*
X0041115Y0058400D01*
X0041249Y0058467D01*
X0041382Y0058538D01*
X0041513Y0058612D01*
X0041642Y0058689D01*
X0041769Y0058770D01*
X0041894Y0058853D01*
X0042017Y0058940D01*
X0042138Y0059029D01*
X0042256Y0059122D01*
X0042372Y0059218D01*
X0042486Y0059316D01*
X0042597Y0059417D01*
X0042706Y0059522D01*
X0042811Y0059628D01*
X0042915Y0059738D01*
X0043015Y0059850D01*
X0043113Y0059964D01*
X0043207Y0060081D01*
X0043299Y0060200D01*
X0054499Y0055800D02*
X0067499Y0055800D01*
X0067586Y0055798D01*
X0067673Y0055792D01*
X0067760Y0055783D01*
X0067846Y0055770D01*
X0067932Y0055753D01*
X0068017Y0055732D01*
X0068100Y0055707D01*
X0068183Y0055679D01*
X0068264Y0055648D01*
X0068344Y0055613D01*
X0068422Y0055574D01*
X0068499Y0055532D01*
X0068574Y0055487D01*
X0068646Y0055438D01*
X0068717Y0055387D01*
X0068785Y0055332D01*
X0068850Y0055275D01*
X0068913Y0055214D01*
X0068974Y0055151D01*
X0069031Y0055086D01*
X0069086Y0055018D01*
X0069137Y0054947D01*
X0069186Y0054875D01*
X0069231Y0054800D01*
X0069273Y0054723D01*
X0069312Y0054645D01*
X0069347Y0054565D01*
X0069378Y0054484D01*
X0069406Y0054401D01*
X0069431Y0054318D01*
X0069452Y0054233D01*
X0069469Y0054147D01*
X0069482Y0054061D01*
X0069491Y0053974D01*
X0069497Y0053887D01*
X0069499Y0053800D01*
X0065999Y0051300D02*
X0062199Y0051300D01*
X0059699Y0051300D02*
X0055999Y0051300D01*
X0052499Y0048800D02*
X0052501Y0048713D01*
X0052507Y0048626D01*
X0052516Y0048539D01*
X0052529Y0048453D01*
X0052546Y0048367D01*
X0052567Y0048282D01*
X0052592Y0048199D01*
X0052620Y0048116D01*
X0052651Y0048035D01*
X0052686Y0047955D01*
X0052725Y0047877D01*
X0052767Y0047800D01*
X0052812Y0047725D01*
X0052861Y0047653D01*
X0052912Y0047582D01*
X0052967Y0047514D01*
X0053024Y0047449D01*
X0053085Y0047386D01*
X0053148Y0047325D01*
X0053213Y0047268D01*
X0053281Y0047213D01*
X0053352Y0047162D01*
X0053424Y0047113D01*
X0053499Y0047068D01*
X0053576Y0047026D01*
X0053654Y0046987D01*
X0053734Y0046952D01*
X0053815Y0046921D01*
X0053898Y0046893D01*
X0053981Y0046868D01*
X0054066Y0046847D01*
X0054152Y0046830D01*
X0054238Y0046817D01*
X0054325Y0046808D01*
X0054412Y0046802D01*
X0054499Y0046800D01*
X0067499Y0046800D01*
X0067586Y0046802D01*
X0067673Y0046808D01*
X0067760Y0046817D01*
X0067846Y0046830D01*
X0067932Y0046847D01*
X0068017Y0046868D01*
X0068100Y0046893D01*
X0068183Y0046921D01*
X0068264Y0046952D01*
X0068344Y0046987D01*
X0068422Y0047026D01*
X0068499Y0047068D01*
X0068574Y0047113D01*
X0068646Y0047162D01*
X0068717Y0047213D01*
X0068785Y0047268D01*
X0068850Y0047325D01*
X0068913Y0047386D01*
X0068974Y0047449D01*
X0069031Y0047514D01*
X0069086Y0047582D01*
X0069137Y0047653D01*
X0069186Y0047725D01*
X0069231Y0047800D01*
X0069273Y0047877D01*
X0069312Y0047955D01*
X0069347Y0048035D01*
X0069378Y0048116D01*
X0069406Y0048199D01*
X0069431Y0048282D01*
X0069452Y0048367D01*
X0069469Y0048453D01*
X0069482Y0048539D01*
X0069491Y0048626D01*
X0069497Y0048713D01*
X0069499Y0048800D01*
X0054499Y0055800D02*
X0054412Y0055798D01*
X0054325Y0055792D01*
X0054238Y0055783D01*
X0054152Y0055770D01*
X0054066Y0055753D01*
X0053981Y0055732D01*
X0053898Y0055707D01*
X0053815Y0055679D01*
X0053734Y0055648D01*
X0053654Y0055613D01*
X0053576Y0055574D01*
X0053499Y0055532D01*
X0053424Y0055487D01*
X0053352Y0055438D01*
X0053281Y0055387D01*
X0053213Y0055332D01*
X0053148Y0055275D01*
X0053085Y0055214D01*
X0053024Y0055151D01*
X0052967Y0055086D01*
X0052912Y0055018D01*
X0052861Y0054947D01*
X0052812Y0054875D01*
X0052767Y0054800D01*
X0052725Y0054723D01*
X0052686Y0054645D01*
X0052651Y0054565D01*
X0052620Y0054484D01*
X0052592Y0054401D01*
X0052567Y0054318D01*
X0052546Y0054233D01*
X0052529Y0054147D01*
X0052516Y0054061D01*
X0052507Y0053974D01*
X0052501Y0053887D01*
X0052499Y0053800D01*
X0038499Y0051300D02*
X0038499Y0046300D01*
X0035999Y0043800D01*
X0038499Y0041300D01*
X0038499Y0036300D01*
X0035999Y0033800D01*
X0038499Y0031300D01*
X0038499Y0026300D01*
X0035999Y0023800D01*
X0030999Y0023800D01*
X0028499Y0026300D01*
X0028499Y0031300D01*
X0030999Y0033800D01*
X0028499Y0036300D01*
X0028499Y0041300D01*
X0030999Y0043800D01*
X0028499Y0046300D01*
X0028499Y0051300D01*
X0030999Y0053800D01*
X0035999Y0053800D01*
X0038499Y0051300D01*
X0025299Y0060000D02*
X0005699Y0060000D01*
X0005699Y0017600D01*
X0025299Y0017600D01*
X0025299Y0060000D01*
X0010999Y0066300D02*
X0011001Y0066441D01*
X0011007Y0066582D01*
X0011017Y0066722D01*
X0011031Y0066862D01*
X0011049Y0067002D01*
X0011070Y0067141D01*
X0011096Y0067280D01*
X0011125Y0067418D01*
X0011159Y0067554D01*
X0011196Y0067690D01*
X0011237Y0067825D01*
X0011282Y0067959D01*
X0011331Y0068091D01*
X0011383Y0068222D01*
X0011439Y0068351D01*
X0011499Y0068478D01*
X0011562Y0068604D01*
X0011628Y0068728D01*
X0011699Y0068851D01*
X0011772Y0068971D01*
X0011849Y0069089D01*
X0011929Y0069205D01*
X0012013Y0069318D01*
X0012099Y0069429D01*
X0012189Y0069538D01*
X0012282Y0069644D01*
X0012377Y0069747D01*
X0012476Y0069848D01*
X0012577Y0069946D01*
X0012681Y0070041D01*
X0012788Y0070133D01*
X0012897Y0070222D01*
X0013009Y0070307D01*
X0013123Y0070390D01*
X0013239Y0070470D01*
X0013358Y0070546D01*
X0013479Y0070618D01*
X0013601Y0070688D01*
X0013726Y0070753D01*
X0013852Y0070816D01*
X0013980Y0070874D01*
X0014110Y0070929D01*
X0014241Y0070981D01*
X0014374Y0071028D01*
X0014508Y0071072D01*
X0014643Y0071113D01*
X0014779Y0071149D01*
X0014916Y0071181D01*
X0015054Y0071210D01*
X0015192Y0071235D01*
X0015332Y0071255D01*
X0015472Y0071272D01*
X0015612Y0071285D01*
X0015753Y0071294D01*
X0015893Y0071299D01*
X0016034Y0071300D01*
X0016175Y0071297D01*
X0016316Y0071290D01*
X0016456Y0071279D01*
X0016596Y0071264D01*
X0016736Y0071245D01*
X0016875Y0071223D01*
X0017013Y0071196D01*
X0017151Y0071166D01*
X0017287Y0071131D01*
X0017423Y0071093D01*
X0017557Y0071051D01*
X0017691Y0071005D01*
X0017823Y0070956D01*
X0017953Y0070902D01*
X0018082Y0070845D01*
X0018209Y0070785D01*
X0018335Y0070721D01*
X0018458Y0070653D01*
X0018580Y0070582D01*
X0018700Y0070508D01*
X0018817Y0070430D01*
X0018932Y0070349D01*
X0019045Y0070265D01*
X0019156Y0070178D01*
X0019264Y0070087D01*
X0019369Y0069994D01*
X0019472Y0069897D01*
X0019572Y0069798D01*
X0019669Y0069696D01*
X0019763Y0069591D01*
X0019854Y0069484D01*
X0019942Y0069374D01*
X0020027Y0069262D01*
X0020109Y0069147D01*
X0020188Y0069030D01*
X0020263Y0068911D01*
X0020335Y0068790D01*
X0020403Y0068667D01*
X0020468Y0068542D01*
X0020530Y0068415D01*
X0020587Y0068286D01*
X0020642Y0068156D01*
X0020692Y0068025D01*
X0020739Y0067892D01*
X0020782Y0067758D01*
X0020821Y0067622D01*
X0020856Y0067486D01*
X0020888Y0067349D01*
X0020915Y0067211D01*
X0020939Y0067072D01*
X0020959Y0066932D01*
X0020975Y0066792D01*
X0020987Y0066652D01*
X0020995Y0066511D01*
X0020999Y0066370D01*
X0020999Y0066230D01*
X0020995Y0066089D01*
X0020987Y0065948D01*
X0020975Y0065808D01*
X0020959Y0065668D01*
X0020939Y0065528D01*
X0020915Y0065389D01*
X0020888Y0065251D01*
X0020856Y0065114D01*
X0020821Y0064978D01*
X0020782Y0064842D01*
X0020739Y0064708D01*
X0020692Y0064575D01*
X0020642Y0064444D01*
X0020587Y0064314D01*
X0020530Y0064185D01*
X0020468Y0064058D01*
X0020403Y0063933D01*
X0020335Y0063810D01*
X0020263Y0063689D01*
X0020188Y0063570D01*
X0020109Y0063453D01*
X0020027Y0063338D01*
X0019942Y0063226D01*
X0019854Y0063116D01*
X0019763Y0063009D01*
X0019669Y0062904D01*
X0019572Y0062802D01*
X0019472Y0062703D01*
X0019369Y0062606D01*
X0019264Y0062513D01*
X0019156Y0062422D01*
X0019045Y0062335D01*
X0018932Y0062251D01*
X0018817Y0062170D01*
X0018700Y0062092D01*
X0018580Y0062018D01*
X0018458Y0061947D01*
X0018335Y0061879D01*
X0018209Y0061815D01*
X0018082Y0061755D01*
X0017953Y0061698D01*
X0017823Y0061644D01*
X0017691Y0061595D01*
X0017557Y0061549D01*
X0017423Y0061507D01*
X0017287Y0061469D01*
X0017151Y0061434D01*
X0017013Y0061404D01*
X0016875Y0061377D01*
X0016736Y0061355D01*
X0016596Y0061336D01*
X0016456Y0061321D01*
X0016316Y0061310D01*
X0016175Y0061303D01*
X0016034Y0061300D01*
X0015893Y0061301D01*
X0015753Y0061306D01*
X0015612Y0061315D01*
X0015472Y0061328D01*
X0015332Y0061345D01*
X0015192Y0061365D01*
X0015054Y0061390D01*
X0014916Y0061419D01*
X0014779Y0061451D01*
X0014643Y0061487D01*
X0014508Y0061528D01*
X0014374Y0061572D01*
X0014241Y0061619D01*
X0014110Y0061671D01*
X0013980Y0061726D01*
X0013852Y0061784D01*
X0013726Y0061847D01*
X0013601Y0061912D01*
X0013479Y0061982D01*
X0013358Y0062054D01*
X0013239Y0062130D01*
X0013123Y0062210D01*
X0013009Y0062293D01*
X0012897Y0062378D01*
X0012788Y0062467D01*
X0012681Y0062559D01*
X0012577Y0062654D01*
X0012476Y0062752D01*
X0012377Y0062853D01*
X0012282Y0062956D01*
X0012189Y0063062D01*
X0012099Y0063171D01*
X0012013Y0063282D01*
X0011929Y0063395D01*
X0011849Y0063511D01*
X0011772Y0063629D01*
X0011699Y0063749D01*
X0011628Y0063872D01*
X0011562Y0063996D01*
X0011499Y0064122D01*
X0011439Y0064249D01*
X0011383Y0064378D01*
X0011331Y0064509D01*
X0011282Y0064641D01*
X0011237Y0064775D01*
X0011196Y0064910D01*
X0011159Y0065046D01*
X0011125Y0065182D01*
X0011096Y0065320D01*
X0011070Y0065459D01*
X0011049Y0065598D01*
X0011031Y0065738D01*
X0011017Y0065878D01*
X0011007Y0066018D01*
X0011001Y0066159D01*
X0010999Y0066300D01*
X0054499Y0038300D02*
X0067499Y0038300D01*
X0067586Y0038298D01*
X0067673Y0038292D01*
X0067760Y0038283D01*
X0067846Y0038270D01*
X0067932Y0038253D01*
X0068017Y0038232D01*
X0068100Y0038207D01*
X0068183Y0038179D01*
X0068264Y0038148D01*
X0068344Y0038113D01*
X0068422Y0038074D01*
X0068499Y0038032D01*
X0068574Y0037987D01*
X0068646Y0037938D01*
X0068717Y0037887D01*
X0068785Y0037832D01*
X0068850Y0037775D01*
X0068913Y0037714D01*
X0068974Y0037651D01*
X0069031Y0037586D01*
X0069086Y0037518D01*
X0069137Y0037447D01*
X0069186Y0037375D01*
X0069231Y0037300D01*
X0069273Y0037223D01*
X0069312Y0037145D01*
X0069347Y0037065D01*
X0069378Y0036984D01*
X0069406Y0036901D01*
X0069431Y0036818D01*
X0069452Y0036733D01*
X0069469Y0036647D01*
X0069482Y0036561D01*
X0069491Y0036474D01*
X0069497Y0036387D01*
X0069499Y0036300D01*
X0065999Y0033800D02*
X0062199Y0033800D01*
X0059699Y0033800D02*
X0055999Y0033800D01*
X0052499Y0031300D02*
X0052501Y0031213D01*
X0052507Y0031126D01*
X0052516Y0031039D01*
X0052529Y0030953D01*
X0052546Y0030867D01*
X0052567Y0030782D01*
X0052592Y0030699D01*
X0052620Y0030616D01*
X0052651Y0030535D01*
X0052686Y0030455D01*
X0052725Y0030377D01*
X0052767Y0030300D01*
X0052812Y0030225D01*
X0052861Y0030153D01*
X0052912Y0030082D01*
X0052967Y0030014D01*
X0053024Y0029949D01*
X0053085Y0029886D01*
X0053148Y0029825D01*
X0053213Y0029768D01*
X0053281Y0029713D01*
X0053352Y0029662D01*
X0053424Y0029613D01*
X0053499Y0029568D01*
X0053576Y0029526D01*
X0053654Y0029487D01*
X0053734Y0029452D01*
X0053815Y0029421D01*
X0053898Y0029393D01*
X0053981Y0029368D01*
X0054066Y0029347D01*
X0054152Y0029330D01*
X0054238Y0029317D01*
X0054325Y0029308D01*
X0054412Y0029302D01*
X0054499Y0029300D01*
X0067499Y0029300D01*
X0067586Y0029302D01*
X0067673Y0029308D01*
X0067760Y0029317D01*
X0067846Y0029330D01*
X0067932Y0029347D01*
X0068017Y0029368D01*
X0068100Y0029393D01*
X0068183Y0029421D01*
X0068264Y0029452D01*
X0068344Y0029487D01*
X0068422Y0029526D01*
X0068499Y0029568D01*
X0068574Y0029613D01*
X0068646Y0029662D01*
X0068717Y0029713D01*
X0068785Y0029768D01*
X0068850Y0029825D01*
X0068913Y0029886D01*
X0068974Y0029949D01*
X0069031Y0030014D01*
X0069086Y0030082D01*
X0069137Y0030153D01*
X0069186Y0030225D01*
X0069231Y0030300D01*
X0069273Y0030377D01*
X0069312Y0030455D01*
X0069347Y0030535D01*
X0069378Y0030616D01*
X0069406Y0030699D01*
X0069431Y0030782D01*
X0069452Y0030867D01*
X0069469Y0030953D01*
X0069482Y0031039D01*
X0069491Y0031126D01*
X0069497Y0031213D01*
X0069499Y0031300D01*
X0054499Y0038300D02*
X0054412Y0038298D01*
X0054325Y0038292D01*
X0054238Y0038283D01*
X0054152Y0038270D01*
X0054066Y0038253D01*
X0053981Y0038232D01*
X0053898Y0038207D01*
X0053815Y0038179D01*
X0053734Y0038148D01*
X0053654Y0038113D01*
X0053576Y0038074D01*
X0053499Y0038032D01*
X0053424Y0037987D01*
X0053352Y0037938D01*
X0053281Y0037887D01*
X0053213Y0037832D01*
X0053148Y0037775D01*
X0053085Y0037714D01*
X0053024Y0037651D01*
X0052967Y0037586D01*
X0052912Y0037518D01*
X0052861Y0037447D01*
X0052812Y0037375D01*
X0052767Y0037300D01*
X0052725Y0037223D01*
X0052686Y0037145D01*
X0052651Y0037065D01*
X0052620Y0036984D01*
X0052592Y0036901D01*
X0052567Y0036818D01*
X0052546Y0036733D01*
X0052529Y0036647D01*
X0052516Y0036561D01*
X0052507Y0036474D01*
X0052501Y0036387D01*
X0052499Y0036300D01*
X0017499Y0011400D02*
X0017443Y0011398D01*
X0017388Y0011392D01*
X0017333Y0011383D01*
X0017278Y0011369D01*
X0017225Y0011352D01*
X0017174Y0011331D01*
X0017123Y0011306D01*
X0017075Y0011278D01*
X0017029Y0011247D01*
X0016985Y0011213D01*
X0016943Y0011175D01*
X0016904Y0011135D01*
X0016869Y0011093D01*
X0016836Y0011047D01*
X0016806Y0011000D01*
X0016780Y0010951D01*
X0016757Y0010900D01*
X0016738Y0010847D01*
X0016723Y0010794D01*
X0016711Y0010739D01*
X0016703Y0010684D01*
X0016699Y0010628D01*
X0016699Y0010572D01*
X0016703Y0010516D01*
X0016711Y0010461D01*
X0016723Y0010406D01*
X0016738Y0010353D01*
X0016757Y0010300D01*
X0016780Y0010249D01*
X0016806Y0010200D01*
X0016836Y0010153D01*
X0016869Y0010107D01*
X0016904Y0010065D01*
X0016943Y0010025D01*
X0016985Y0009987D01*
X0017029Y0009953D01*
X0017075Y0009922D01*
X0017123Y0009894D01*
X0017174Y0009869D01*
X0017225Y0009848D01*
X0017278Y0009831D01*
X0017333Y0009817D01*
X0017388Y0009808D01*
X0017443Y0009802D01*
X0017499Y0009800D01*
X0017555Y0009802D01*
X0017610Y0009808D01*
X0017665Y0009817D01*
X0017720Y0009831D01*
X0017773Y0009848D01*
X0017824Y0009869D01*
X0017875Y0009894D01*
X0017923Y0009922D01*
X0017969Y0009953D01*
X0018013Y0009987D01*
X0018055Y0010025D01*
X0018094Y0010065D01*
X0018129Y0010107D01*
X0018162Y0010153D01*
X0018192Y0010200D01*
X0018218Y0010249D01*
X0018241Y0010300D01*
X0018260Y0010353D01*
X0018275Y0010406D01*
X0018287Y0010461D01*
X0018295Y0010516D01*
X0018299Y0010572D01*
X0018299Y0010628D01*
X0018295Y0010684D01*
X0018287Y0010739D01*
X0018275Y0010794D01*
X0018260Y0010847D01*
X0018241Y0010900D01*
X0018218Y0010951D01*
X0018192Y0011000D01*
X0018162Y0011047D01*
X0018129Y0011093D01*
X0018094Y0011135D01*
X0018055Y0011175D01*
X0018013Y0011213D01*
X0017969Y0011247D01*
X0017923Y0011278D01*
X0017875Y0011306D01*
X0017824Y0011331D01*
X0017773Y0011352D01*
X0017720Y0011369D01*
X0017665Y0011383D01*
X0017610Y0011392D01*
X0017555Y0011398D01*
X0017499Y0011400D01*
X0160999Y0076300D02*
X0160999Y0081300D01*
D13*
X0174799Y0054300D02*
X0174799Y0051300D01*
X0174799Y0048300D01*
X0177299Y0048300D02*
X0177299Y0051300D01*
X0177299Y0054300D01*
X0177299Y0036800D02*
X0177299Y0033800D01*
X0177299Y0030800D01*
X0174799Y0030800D02*
X0174799Y0033800D01*
X0174799Y0036800D01*
X0062199Y0036800D02*
X0062199Y0033800D01*
X0062199Y0030800D01*
X0059699Y0030800D02*
X0059699Y0033800D01*
X0059699Y0036800D01*
X0059699Y0048300D02*
X0059699Y0051300D01*
X0059699Y0054300D01*
X0062199Y0054300D02*
X0062199Y0051300D01*
X0062199Y0048300D01*
D14*
X0114745Y0048364D02*
X0114745Y0045362D01*
X0116997Y0045362D01*
X0116247Y0046863D01*
X0116247Y0047614D01*
X0116997Y0048364D01*
X0118499Y0048364D01*
X0119249Y0047614D01*
X0119249Y0046112D01*
X0118499Y0045362D01*
X0118499Y0043760D02*
X0115496Y0043760D01*
X0114745Y0043010D01*
X0114745Y0041508D01*
X0115496Y0040758D01*
X0116247Y0040758D01*
X0116997Y0041508D01*
X0116997Y0043760D01*
X0118499Y0043760D02*
X0119249Y0043010D01*
X0119249Y0041508D01*
X0118499Y0040758D01*
X0118499Y0039156D02*
X0119249Y0038406D01*
X0119249Y0036905D01*
X0118499Y0036154D01*
X0115496Y0036154D01*
X0114745Y0036905D01*
X0114745Y0038406D01*
X0115496Y0039156D01*
X0114745Y0034553D02*
X0119249Y0031550D01*
X0119249Y0034553D02*
X0114745Y0031550D01*
X0114745Y0049966D02*
X0114745Y0052968D01*
X0115496Y0052968D01*
X0118499Y0049966D01*
X0119249Y0049966D01*
X0119249Y0054570D02*
X0116247Y0057572D01*
X0115496Y0057572D01*
X0114745Y0056822D01*
X0114745Y0055320D01*
X0115496Y0054570D01*
X0119249Y0054570D02*
X0119249Y0057572D01*
D15*
X0227102Y0069843D02*
X0227102Y0012757D01*
X0004897Y0011300D02*
X0004897Y0069843D01*
D16*
X0019999Y0066300D02*
X0021999Y0066300D01*
D17*
X0038499Y0055800D02*
X0038691Y0055802D01*
X0038883Y0055809D01*
X0039075Y0055821D01*
X0039267Y0055837D01*
X0039458Y0055858D01*
X0039648Y0055883D01*
X0039838Y0055913D01*
X0040027Y0055947D01*
X0040215Y0055986D01*
X0040402Y0056030D01*
X0040588Y0056078D01*
X0040773Y0056130D01*
X0040957Y0056187D01*
X0041139Y0056248D01*
X0041319Y0056314D01*
X0041498Y0056384D01*
X0041676Y0056458D01*
X0041851Y0056536D01*
X0042025Y0056619D01*
X0042196Y0056706D01*
X0042365Y0056796D01*
X0042532Y0056891D01*
X0042697Y0056990D01*
X0042860Y0057093D01*
X0043019Y0057200D01*
X0043177Y0057310D01*
X0043331Y0057424D01*
X0043483Y0057542D01*
X0043632Y0057664D01*
X0043778Y0057789D01*
X0043920Y0057917D01*
X0044060Y0058049D01*
X0044197Y0058184D01*
X0044330Y0058323D01*
X0044460Y0058464D01*
X0044586Y0058609D01*
X0044709Y0058757D01*
X0044828Y0058907D01*
X0044944Y0059061D01*
X0045056Y0059217D01*
X0045164Y0059376D01*
X0045269Y0059537D01*
X0045369Y0059701D01*
X0045465Y0059867D01*
X0045558Y0060035D01*
X0045445Y0067769D02*
X0045346Y0067938D01*
X0045242Y0068104D01*
X0045135Y0068268D01*
X0045024Y0068429D01*
X0044909Y0068587D01*
X0044790Y0068742D01*
X0044667Y0068895D01*
X0044541Y0069044D01*
X0044411Y0069190D01*
X0044277Y0069333D01*
X0044140Y0069473D01*
X0044000Y0069609D01*
X0043856Y0069742D01*
X0043709Y0069871D01*
X0043559Y0069997D01*
X0043406Y0070118D01*
X0043250Y0070237D01*
X0043091Y0070351D01*
X0042930Y0070461D01*
X0042765Y0070567D01*
X0042599Y0070670D01*
X0042429Y0070768D01*
X0042258Y0070862D01*
X0042084Y0070952D01*
X0041908Y0071037D01*
X0041730Y0071119D01*
X0041550Y0071195D01*
X0041368Y0071268D01*
X0041185Y0071336D01*
X0041000Y0071399D01*
X0040813Y0071458D01*
X0040625Y0071512D01*
X0040436Y0071562D01*
X0040246Y0071607D01*
X0040054Y0071647D01*
X0039862Y0071683D01*
X0039669Y0071714D01*
X0039475Y0071740D01*
X0039280Y0071762D01*
X0039085Y0071778D01*
X0038890Y0071790D01*
X0038694Y0071798D01*
X0038499Y0071800D01*
X0038306Y0071798D01*
X0038113Y0071791D01*
X0037921Y0071779D01*
X0037728Y0071763D01*
X0037536Y0071742D01*
X0037345Y0071716D01*
X0037155Y0071686D01*
X0036965Y0071651D01*
X0036776Y0071612D01*
X0036588Y0071568D01*
X0036401Y0071520D01*
X0036215Y0071467D01*
X0036031Y0071410D01*
X0035848Y0071348D01*
X0035667Y0071282D01*
X0035487Y0071211D01*
X0035309Y0071137D01*
X0035133Y0071058D01*
X0034959Y0070974D01*
X0034787Y0070887D01*
X0034617Y0070795D01*
X0034450Y0070699D01*
X0034284Y0070600D01*
X0034121Y0070496D01*
X0033961Y0070389D01*
X0033804Y0070277D01*
X0033649Y0070162D01*
X0033497Y0070043D01*
X0033348Y0069921D01*
X0033201Y0069795D01*
X0033058Y0069665D01*
X0032918Y0069532D01*
X0032782Y0069396D01*
X0032648Y0069256D01*
X0032519Y0069114D01*
X0032392Y0068968D01*
X0032353Y0058678D02*
X0032480Y0058530D01*
X0032610Y0058385D01*
X0032743Y0058244D01*
X0032880Y0058105D01*
X0033020Y0057970D01*
X0033164Y0057839D01*
X0033311Y0057711D01*
X0033460Y0057586D01*
X0033613Y0057465D01*
X0033768Y0057348D01*
X0033927Y0057235D01*
X0034088Y0057126D01*
X0034252Y0057021D01*
X0034418Y0056919D01*
X0034587Y0056822D01*
X0034757Y0056729D01*
X0034931Y0056640D01*
X0035106Y0056555D01*
X0035283Y0056475D01*
X0035462Y0056399D01*
X0035643Y0056327D01*
X0035826Y0056260D01*
X0036010Y0056197D01*
X0036196Y0056139D01*
X0036383Y0056085D01*
X0036571Y0056036D01*
X0036761Y0055991D01*
X0036951Y0055951D01*
X0037143Y0055916D01*
X0037335Y0055885D01*
X0037528Y0055859D01*
X0037722Y0055838D01*
X0037916Y0055821D01*
X0038110Y0055809D01*
X0038304Y0055802D01*
X0038499Y0055800D01*
M02*
