G75*
%MOIN*%
%OFA0B0*%
%FSLAX25Y25*%
%IPPOS*%
%LPD*%
%AMOC8*
5,1,8,0,0,1.08239X$1,22.5*
%
%ADD10C,0.00000*%
%ADD11R,0.08100X0.08100*%
%ADD12C,0.08100*%
%ADD13OC8,0.05200*%
%ADD14C,0.06000*%
%ADD15C,0.03200*%
%ADD16C,0.01600*%
%ADD17C,0.04000*%
%ADD18C,0.01000*%
D10*
X0001000Y0001301D02*
X0001000Y0081261D01*
X0230999Y0081260D01*
X0230999Y0001300D01*
X0001000Y0001301D01*
D11*
X0017499Y0031300D03*
D12*
X0017499Y0041300D03*
X0017499Y0051300D03*
D13*
X0050999Y0051300D03*
X0070999Y0051300D03*
X0085999Y0046300D03*
X0095999Y0046300D03*
X0095999Y0056300D03*
X0085999Y0056300D03*
X0085999Y0066300D03*
X0095999Y0066300D03*
X0105999Y0066300D03*
X0115999Y0066300D03*
X0125999Y0066300D03*
X0135999Y0066300D03*
X0145999Y0066300D03*
X0155999Y0066300D03*
X0150999Y0071300D03*
X0160999Y0071300D03*
X0170999Y0071300D03*
X0180999Y0071300D03*
X0190999Y0071300D03*
X0200999Y0071300D03*
X0210999Y0071300D03*
X0220999Y0071300D03*
X0185999Y0051300D03*
X0165999Y0051300D03*
X0155999Y0046300D03*
X0145999Y0046300D03*
X0145999Y0056300D03*
X0155999Y0056300D03*
X0140999Y0071300D03*
X0130999Y0071300D03*
X0120999Y0071300D03*
X0110999Y0071300D03*
X0100999Y0071300D03*
X0090999Y0071300D03*
X0080999Y0071300D03*
X0070999Y0071300D03*
X0060999Y0071300D03*
X0050999Y0071300D03*
X0040999Y0071300D03*
X0030999Y0071300D03*
X0020999Y0071300D03*
X0010999Y0071300D03*
X0095999Y0076300D03*
X0105999Y0076300D03*
X0115999Y0076300D03*
X0125999Y0076300D03*
X0135999Y0076300D03*
X0145999Y0076300D03*
X0145999Y0036300D03*
X0155999Y0036300D03*
X0165999Y0033800D03*
X0155999Y0026300D03*
X0145999Y0026300D03*
X0145999Y0016300D03*
X0135999Y0016300D03*
X0125999Y0016300D03*
X0115999Y0016300D03*
X0105999Y0016300D03*
X0095999Y0016300D03*
X0085999Y0016300D03*
X0080999Y0011300D03*
X0070999Y0011300D03*
X0060999Y0011300D03*
X0050999Y0011300D03*
X0040999Y0011300D03*
X0030999Y0011300D03*
X0020999Y0011300D03*
X0010999Y0011300D03*
X0050999Y0033800D03*
X0070999Y0033800D03*
X0085999Y0036300D03*
X0095999Y0036300D03*
X0095999Y0026300D03*
X0085999Y0026300D03*
X0090999Y0011300D03*
X0100999Y0011300D03*
X0110999Y0011300D03*
X0120999Y0011300D03*
X0130999Y0011300D03*
X0140999Y0011300D03*
X0150999Y0011300D03*
X0160999Y0011300D03*
X0170999Y0011300D03*
X0180999Y0011300D03*
X0190999Y0011300D03*
X0200999Y0011300D03*
X0210999Y0011300D03*
X0220999Y0011300D03*
X0185999Y0033800D03*
X0155999Y0016300D03*
X0145999Y0006300D03*
X0135999Y0006300D03*
X0125999Y0006300D03*
X0115999Y0006300D03*
X0105999Y0006300D03*
X0095999Y0006300D03*
D14*
X0036499Y0031300D02*
X0030499Y0031300D01*
X0030499Y0041300D02*
X0036499Y0041300D01*
X0036499Y0051300D02*
X0030499Y0051300D01*
X0207999Y0051300D02*
X0213999Y0051300D01*
X0213999Y0041300D02*
X0207999Y0041300D01*
X0207999Y0031300D02*
X0213999Y0031300D01*
X0213999Y0021300D02*
X0207999Y0021300D01*
X0207999Y0061300D02*
X0213999Y0061300D01*
D15*
X0165999Y0051300D02*
X0130999Y0051300D01*
X0130999Y0061300D01*
X0130999Y0066300D01*
X0135999Y0066300D01*
X0130999Y0066300D02*
X0130999Y0071300D01*
X0113499Y0051300D02*
X0098499Y0066300D01*
X0095999Y0066300D01*
X0090999Y0061300D01*
X0080999Y0061300D01*
X0070999Y0051300D01*
X0063499Y0043800D01*
X0043499Y0043800D01*
X0040999Y0041300D01*
X0040999Y0048163D01*
X0041899Y0049063D01*
X0041899Y0053537D01*
X0040999Y0054437D01*
X0040999Y0071300D01*
X0033499Y0051300D02*
X0017499Y0051300D01*
X0033499Y0041300D02*
X0040999Y0041300D01*
X0033499Y0031300D02*
X0017499Y0031300D01*
X0033499Y0031300D02*
X0035999Y0028800D01*
X0065999Y0028800D01*
X0070999Y0033800D01*
X0076428Y0033800D01*
X0083928Y0041300D01*
X0100999Y0041300D01*
X0100999Y0011300D01*
X0145999Y0026300D02*
X0150999Y0031300D01*
X0158070Y0031300D01*
X0160570Y0033800D01*
X0165999Y0033800D01*
X0178928Y0033800D01*
X0183928Y0028800D01*
X0190999Y0028800D01*
X0208499Y0011300D01*
X0210999Y0011300D01*
X0130999Y0051300D02*
X0120999Y0041300D01*
X0100999Y0041300D01*
D16*
X0099656Y0044300D02*
X0099999Y0044643D01*
X0099999Y0047957D01*
X0097656Y0050300D01*
X0094342Y0050300D01*
X0091999Y0047957D01*
X0091999Y0044643D01*
X0092342Y0044300D01*
X0089656Y0044300D01*
X0089999Y0044643D01*
X0089999Y0047957D01*
X0087656Y0050300D01*
X0084342Y0050300D01*
X0081999Y0047957D01*
X0081999Y0044643D01*
X0082632Y0044010D01*
X0082229Y0043843D01*
X0081385Y0042999D01*
X0075185Y0036800D01*
X0073656Y0036800D01*
X0072656Y0037800D01*
X0069342Y0037800D01*
X0066999Y0035457D01*
X0066999Y0034043D01*
X0064757Y0031800D01*
X0055222Y0031800D01*
X0055399Y0031977D01*
X0055399Y0033800D01*
X0055399Y0035623D01*
X0052822Y0038200D01*
X0050999Y0038200D01*
X0049177Y0038200D01*
X0046599Y0035623D01*
X0046599Y0033800D01*
X0050999Y0033800D01*
X0050999Y0033800D01*
X0050999Y0033800D01*
X0046599Y0033800D01*
X0046599Y0035623D01*
X0049177Y0038200D01*
X0050999Y0038200D01*
X0050999Y0033800D01*
X0046599Y0033800D01*
X0046599Y0031977D01*
X0046777Y0031800D01*
X0040899Y0031800D01*
X0040899Y0032175D01*
X0040229Y0033792D01*
X0038992Y0035030D01*
X0037374Y0035700D01*
X0029624Y0035700D01*
X0028007Y0035030D01*
X0027277Y0034300D01*
X0022949Y0034300D01*
X0022949Y0035930D01*
X0022129Y0036750D01*
X0021189Y0036750D01*
X0021310Y0036838D01*
X0021961Y0037489D01*
X0022503Y0038234D01*
X0022921Y0039054D01*
X0023205Y0039930D01*
X0023335Y0040750D01*
X0018049Y0040750D01*
X0018049Y0041850D01*
X0023335Y0041850D01*
X0023205Y0042670D01*
X0022921Y0043546D01*
X0022503Y0044366D01*
X0021961Y0045111D01*
X0021310Y0045762D01*
X0020565Y0046303D01*
X0020167Y0046506D01*
X0020586Y0046680D01*
X0022119Y0048213D01*
X0022156Y0048300D01*
X0027277Y0048300D01*
X0028007Y0047570D01*
X0029624Y0046900D01*
X0037374Y0046900D01*
X0037999Y0047159D01*
X0037999Y0045441D01*
X0037374Y0045700D01*
X0029624Y0045700D01*
X0028007Y0045030D01*
X0026769Y0043792D01*
X0026099Y0042175D01*
X0026099Y0040425D01*
X0026769Y0038808D01*
X0028007Y0037570D01*
X0029624Y0036900D01*
X0037374Y0036900D01*
X0038992Y0037570D01*
X0039722Y0038300D01*
X0041596Y0038300D01*
X0042699Y0038757D01*
X0043542Y0039601D01*
X0044742Y0040800D01*
X0064096Y0040800D01*
X0065199Y0041257D01*
X0066042Y0042101D01*
X0071242Y0047300D01*
X0072656Y0047300D01*
X0074999Y0049643D01*
X0074999Y0051057D01*
X0082242Y0058300D01*
X0082342Y0058300D01*
X0081999Y0057957D01*
X0081999Y0054643D01*
X0084342Y0052300D01*
X0087656Y0052300D01*
X0089999Y0054643D01*
X0089999Y0057957D01*
X0089656Y0058300D01*
X0091596Y0058300D01*
X0092699Y0058757D01*
X0096242Y0062300D01*
X0097656Y0062300D01*
X0097956Y0062600D01*
X0110217Y0050340D01*
X0110617Y0049374D01*
X0111573Y0048418D01*
X0112823Y0047900D01*
X0114176Y0047900D01*
X0115425Y0048418D01*
X0116382Y0049374D01*
X0116899Y0050624D01*
X0116899Y0051976D01*
X0116382Y0053226D01*
X0115425Y0054182D01*
X0114459Y0054582D01*
X0114364Y0054678D01*
X0115425Y0055118D01*
X0116382Y0056074D01*
X0116899Y0057324D01*
X0116899Y0058676D01*
X0116475Y0059700D01*
X0117886Y0059700D01*
X0118999Y0060813D01*
X0122386Y0064200D01*
X0122442Y0064200D01*
X0124342Y0062300D01*
X0127656Y0062300D01*
X0127999Y0062643D01*
X0127999Y0052543D01*
X0119757Y0044300D01*
X0099656Y0044300D01*
X0099999Y0044643D01*
X0099999Y0047957D01*
X0097656Y0050300D01*
X0094342Y0050300D01*
X0091999Y0047957D01*
X0091999Y0044643D01*
X0092342Y0044300D01*
X0089656Y0044300D01*
X0089999Y0044643D01*
X0089999Y0047957D01*
X0087656Y0050300D01*
X0084342Y0050300D01*
X0081999Y0047957D01*
X0081999Y0044643D01*
X0082632Y0044010D01*
X0082229Y0043843D01*
X0081385Y0042999D01*
X0081385Y0042999D01*
X0075185Y0036800D01*
X0073656Y0036800D01*
X0072656Y0037800D01*
X0069342Y0037800D01*
X0066999Y0035457D01*
X0066999Y0034043D01*
X0064757Y0031800D01*
X0055222Y0031800D01*
X0055399Y0031977D01*
X0055399Y0033800D01*
X0050999Y0033800D01*
X0046599Y0033800D01*
X0046599Y0031977D01*
X0046777Y0031800D01*
X0040899Y0031800D01*
X0040899Y0032175D01*
X0040229Y0033792D01*
X0038992Y0035030D01*
X0037374Y0035700D01*
X0029624Y0035700D01*
X0028007Y0035030D01*
X0027277Y0034300D01*
X0022949Y0034300D01*
X0022949Y0035930D01*
X0022129Y0036750D01*
X0021189Y0036750D01*
X0021310Y0036838D01*
X0021961Y0037489D01*
X0022503Y0038234D01*
X0022921Y0039054D01*
X0023205Y0039930D01*
X0023335Y0040750D01*
X0018049Y0040750D01*
X0018049Y0041850D01*
X0023335Y0041850D01*
X0023205Y0042670D01*
X0022921Y0043546D01*
X0022503Y0044366D01*
X0021961Y0045111D01*
X0021310Y0045762D01*
X0020565Y0046303D01*
X0020167Y0046506D01*
X0020586Y0046680D01*
X0022119Y0048213D01*
X0022156Y0048300D01*
X0027277Y0048300D01*
X0028007Y0047570D01*
X0029624Y0046900D01*
X0037374Y0046900D01*
X0037999Y0047159D01*
X0037999Y0045441D01*
X0037374Y0045700D01*
X0029624Y0045700D01*
X0028007Y0045030D01*
X0026769Y0043792D01*
X0026099Y0042175D01*
X0026099Y0040425D01*
X0026769Y0038808D01*
X0028007Y0037570D01*
X0029624Y0036900D01*
X0037374Y0036900D01*
X0038992Y0037570D01*
X0039722Y0038300D01*
X0041596Y0038300D01*
X0042699Y0038757D01*
X0043542Y0039601D01*
X0043542Y0039601D01*
X0044742Y0040800D01*
X0064096Y0040800D01*
X0065199Y0041257D01*
X0066042Y0042101D01*
X0071242Y0047300D01*
X0072656Y0047300D01*
X0074999Y0049643D01*
X0074999Y0051057D01*
X0082242Y0058300D01*
X0082342Y0058300D01*
X0081999Y0057957D01*
X0081999Y0054643D01*
X0084342Y0052300D01*
X0087656Y0052300D01*
X0089999Y0054643D01*
X0089999Y0057957D01*
X0089656Y0058300D01*
X0091596Y0058300D01*
X0092699Y0058757D01*
X0096242Y0062300D01*
X0097656Y0062300D01*
X0097956Y0062600D01*
X0110217Y0050340D01*
X0110617Y0049374D01*
X0111573Y0048418D01*
X0112823Y0047900D01*
X0114176Y0047900D01*
X0115425Y0048418D01*
X0116382Y0049374D01*
X0116899Y0050624D01*
X0116899Y0051976D01*
X0116382Y0053226D01*
X0115425Y0054182D01*
X0114459Y0054582D01*
X0114364Y0054678D01*
X0115425Y0055118D01*
X0116382Y0056074D01*
X0116899Y0057324D01*
X0116899Y0058676D01*
X0116475Y0059700D01*
X0117886Y0059700D01*
X0118999Y0060813D01*
X0122386Y0064200D01*
X0122442Y0064200D01*
X0124342Y0062300D01*
X0127656Y0062300D01*
X0127999Y0062643D01*
X0127999Y0052543D01*
X0119757Y0044300D01*
X0099656Y0044300D01*
X0099816Y0044460D02*
X0119916Y0044460D01*
X0099816Y0044460D01*
X0099999Y0046058D02*
X0121515Y0046058D01*
X0099999Y0046058D01*
X0099999Y0047657D02*
X0123113Y0047657D01*
X0099999Y0047657D01*
X0098701Y0049255D02*
X0110736Y0049255D01*
X0098701Y0049255D01*
X0093298Y0049255D02*
X0088701Y0049255D01*
X0093298Y0049255D01*
X0091999Y0047657D02*
X0089999Y0047657D01*
X0091999Y0047657D01*
X0091999Y0046058D02*
X0089999Y0046058D01*
X0091999Y0046058D01*
X0092183Y0044460D02*
X0089816Y0044460D01*
X0092183Y0044460D01*
X0082183Y0044460D02*
X0068402Y0044460D01*
X0082183Y0044460D01*
X0081385Y0042999D02*
X0081385Y0042999D01*
X0081247Y0042861D02*
X0066803Y0042861D01*
X0081247Y0042861D01*
X0079648Y0041263D02*
X0065205Y0041263D01*
X0079648Y0041263D01*
X0078050Y0039664D02*
X0043606Y0039664D01*
X0078050Y0039664D01*
X0076451Y0038066D02*
X0052956Y0038066D01*
X0076451Y0038066D01*
X0068010Y0036467D02*
X0054554Y0036467D01*
X0068010Y0036467D01*
X0066999Y0034869D02*
X0055399Y0034869D01*
X0066999Y0034869D01*
X0066227Y0033270D02*
X0055399Y0033270D01*
X0066227Y0033270D01*
X0055399Y0033800D02*
X0050999Y0033800D01*
X0050999Y0033800D01*
X0050999Y0038200D01*
X0050999Y0033800D01*
X0050999Y0033800D01*
X0050999Y0038200D01*
X0052822Y0038200D01*
X0055399Y0035623D01*
X0055399Y0033800D01*
X0050999Y0033800D01*
X0050999Y0033800D01*
X0050999Y0033800D01*
X0055399Y0033800D01*
X0050999Y0034869D02*
X0050999Y0034869D01*
X0050999Y0034869D01*
X0046599Y0034869D02*
X0039153Y0034869D01*
X0046599Y0034869D01*
X0046599Y0033270D02*
X0040446Y0033270D01*
X0046599Y0033270D01*
X0047444Y0036467D02*
X0022412Y0036467D01*
X0047444Y0036467D01*
X0050999Y0036467D02*
X0050999Y0036467D01*
X0050999Y0036467D01*
X0050999Y0038066D02*
X0050999Y0038066D01*
X0050999Y0038066D01*
X0049042Y0038066D02*
X0039488Y0038066D01*
X0049042Y0038066D01*
X0043542Y0039601D02*
X0043542Y0039601D01*
X0027845Y0034869D02*
X0022949Y0034869D01*
X0027845Y0034869D01*
X0027511Y0038066D02*
X0022380Y0038066D01*
X0027511Y0038066D01*
X0026414Y0039664D02*
X0023119Y0039664D01*
X0026414Y0039664D01*
X0026099Y0041263D02*
X0018049Y0041263D01*
X0026099Y0041263D01*
X0026383Y0042861D02*
X0023143Y0042861D01*
X0026383Y0042861D01*
X0027436Y0044460D02*
X0022434Y0044460D01*
X0027436Y0044460D01*
X0020903Y0046058D02*
X0037999Y0046058D01*
X0020903Y0046058D01*
X0021563Y0047657D02*
X0027920Y0047657D01*
X0021563Y0047657D01*
X0014831Y0046506D02*
X0014433Y0046303D01*
X0013688Y0045762D01*
X0013037Y0045111D01*
X0012496Y0044366D01*
X0012078Y0043546D01*
X0011793Y0042670D01*
X0011663Y0041850D01*
X0016949Y0041850D01*
X0016949Y0040750D01*
X0011663Y0040750D01*
X0011793Y0039930D01*
X0012078Y0039054D01*
X0012496Y0038234D01*
X0013037Y0037489D01*
X0013688Y0036838D01*
X0013809Y0036750D01*
X0012869Y0036750D01*
X0012049Y0035930D01*
X0012049Y0026670D01*
X0012869Y0025850D01*
X0022129Y0025850D01*
X0022949Y0026670D01*
X0022949Y0028300D01*
X0027277Y0028300D01*
X0028007Y0027570D01*
X0029624Y0026900D01*
X0033657Y0026900D01*
X0034300Y0026257D01*
X0035402Y0025800D01*
X0037212Y0025800D01*
X0025412Y0014000D01*
X0023956Y0014000D01*
X0022656Y0015300D01*
X0019342Y0015300D01*
X0016999Y0012957D01*
X0016999Y0009643D01*
X0019342Y0007300D01*
X0022656Y0007300D01*
X0024999Y0009643D01*
X0024999Y0010200D01*
X0026986Y0010200D01*
X0026999Y0010213D01*
X0026999Y0009643D01*
X0029342Y0007300D01*
X0032656Y0007300D01*
X0034999Y0009643D01*
X0034999Y0010200D01*
X0036886Y0010200D01*
X0036999Y0010313D01*
X0036999Y0009643D01*
X0039342Y0007300D01*
X0042656Y0007300D01*
X0044999Y0009643D01*
X0044999Y0012957D01*
X0042656Y0015300D01*
X0041986Y0015300D01*
X0048586Y0021900D01*
X0063012Y0021900D01*
X0055112Y0014000D01*
X0053956Y0014000D01*
X0052656Y0015300D01*
X0049342Y0015300D01*
X0046999Y0012957D01*
X0046999Y0009643D01*
X0049342Y0007300D01*
X0052656Y0007300D01*
X0054999Y0009643D01*
X0054999Y0010200D01*
X0056686Y0010200D01*
X0056999Y0010513D01*
X0056999Y0009643D01*
X0059342Y0007300D01*
X0062656Y0007300D01*
X0064999Y0009643D01*
X0064999Y0010200D01*
X0066586Y0010200D01*
X0066999Y0010613D01*
X0066999Y0009643D01*
X0069342Y0007300D01*
X0072412Y0007300D01*
X0073612Y0006100D01*
X0005800Y0006100D01*
X0005800Y0076461D01*
X0067173Y0076461D01*
X0064334Y0073622D01*
X0062656Y0075300D01*
X0059342Y0075300D01*
X0056999Y0072957D01*
X0056999Y0069643D01*
X0059327Y0067315D01*
X0059099Y0067087D01*
X0059099Y0060513D01*
X0060212Y0059400D01*
X0060299Y0059313D01*
X0060299Y0059124D01*
X0060817Y0057874D01*
X0061773Y0056918D01*
X0063023Y0056400D01*
X0064376Y0056400D01*
X0065625Y0056918D01*
X0066582Y0057874D01*
X0067099Y0059124D01*
X0067099Y0060476D01*
X0066582Y0061726D01*
X0065625Y0062682D01*
X0064376Y0063200D01*
X0063023Y0063200D01*
X0062899Y0063149D01*
X0062899Y0065513D01*
X0063086Y0065700D01*
X0064049Y0065700D01*
X0067496Y0069147D01*
X0069342Y0067300D01*
X0072656Y0067300D01*
X0074999Y0069643D01*
X0074999Y0072957D01*
X0073856Y0074100D01*
X0078142Y0074100D01*
X0076999Y0072957D01*
X0076999Y0069643D01*
X0079342Y0067300D01*
X0081999Y0067300D01*
X0081999Y0064643D01*
X0082342Y0064300D01*
X0080402Y0064300D01*
X0079300Y0063843D01*
X0078456Y0062999D01*
X0070757Y0055300D01*
X0069342Y0055300D01*
X0066999Y0052957D01*
X0066999Y0051543D01*
X0062257Y0046800D01*
X0043999Y0046800D01*
X0043999Y0046921D01*
X0044442Y0047364D01*
X0044899Y0048466D01*
X0044899Y0054134D01*
X0044442Y0055236D01*
X0043999Y0055679D01*
X0043999Y0068643D01*
X0044999Y0069643D01*
X0044999Y0072957D01*
X0042656Y0075300D01*
X0039342Y0075300D01*
X0036999Y0072957D01*
X0036999Y0069643D01*
X0037999Y0068643D01*
X0037999Y0055441D01*
X0037374Y0055700D01*
X0029624Y0055700D01*
X0028007Y0055030D01*
X0027277Y0054300D01*
X0022156Y0054300D01*
X0022119Y0054387D01*
X0020586Y0055920D01*
X0018583Y0056750D01*
X0016415Y0056750D01*
X0014412Y0055920D01*
X0012879Y0054387D01*
X0012049Y0052384D01*
X0012049Y0050216D01*
X0012879Y0048213D01*
X0014412Y0046680D01*
X0014831Y0046506D01*
X0014433Y0046303D01*
X0013688Y0045762D01*
X0013037Y0045111D01*
X0012496Y0044366D01*
X0012078Y0043546D01*
X0011793Y0042670D01*
X0011663Y0041850D01*
X0016949Y0041850D01*
X0016949Y0040750D01*
X0011663Y0040750D01*
X0011793Y0039930D01*
X0012078Y0039054D01*
X0012496Y0038234D01*
X0013037Y0037489D01*
X0013688Y0036838D01*
X0013809Y0036750D01*
X0012869Y0036750D01*
X0012049Y0035930D01*
X0012049Y0026670D01*
X0012869Y0025850D01*
X0022129Y0025850D01*
X0022949Y0026670D01*
X0022949Y0028300D01*
X0027277Y0028300D01*
X0028007Y0027570D01*
X0029624Y0026900D01*
X0033657Y0026900D01*
X0034300Y0026257D01*
X0035402Y0025800D01*
X0037212Y0025800D01*
X0025412Y0014000D01*
X0023956Y0014000D01*
X0022656Y0015300D01*
X0019342Y0015300D01*
X0016999Y0012957D01*
X0016999Y0009643D01*
X0019342Y0007300D01*
X0022656Y0007300D01*
X0024999Y0009643D01*
X0024999Y0010200D01*
X0026986Y0010200D01*
X0026999Y0010213D01*
X0026999Y0009643D01*
X0029342Y0007300D01*
X0032656Y0007300D01*
X0034999Y0009643D01*
X0034999Y0010200D01*
X0036886Y0010200D01*
X0036999Y0010313D01*
X0036999Y0009643D01*
X0039342Y0007300D01*
X0042656Y0007300D01*
X0044999Y0009643D01*
X0044999Y0012957D01*
X0042656Y0015300D01*
X0041986Y0015300D01*
X0048586Y0021900D01*
X0063012Y0021900D01*
X0055112Y0014000D01*
X0053956Y0014000D01*
X0052656Y0015300D01*
X0049342Y0015300D01*
X0046999Y0012957D01*
X0046999Y0009643D01*
X0049342Y0007300D01*
X0052656Y0007300D01*
X0054999Y0009643D01*
X0054999Y0010200D01*
X0056686Y0010200D01*
X0056999Y0010513D01*
X0056999Y0009643D01*
X0059342Y0007300D01*
X0062656Y0007300D01*
X0064999Y0009643D01*
X0064999Y0010200D01*
X0066586Y0010200D01*
X0066999Y0010613D01*
X0066999Y0009643D01*
X0069342Y0007300D01*
X0072412Y0007300D01*
X0073612Y0006100D01*
X0005800Y0006100D01*
X0005800Y0076461D01*
X0067173Y0076461D01*
X0064334Y0073622D01*
X0062656Y0075300D01*
X0059342Y0075300D01*
X0056999Y0072957D01*
X0056999Y0069643D01*
X0059327Y0067315D01*
X0059099Y0067087D01*
X0059099Y0060513D01*
X0060212Y0059400D01*
X0060299Y0059313D01*
X0060299Y0059124D01*
X0060817Y0057874D01*
X0061773Y0056918D01*
X0063023Y0056400D01*
X0064376Y0056400D01*
X0065625Y0056918D01*
X0066582Y0057874D01*
X0067099Y0059124D01*
X0067099Y0060476D01*
X0066582Y0061726D01*
X0065625Y0062682D01*
X0064376Y0063200D01*
X0063023Y0063200D01*
X0062899Y0063149D01*
X0062899Y0065513D01*
X0063086Y0065700D01*
X0064049Y0065700D01*
X0067496Y0069147D01*
X0069342Y0067300D01*
X0072656Y0067300D01*
X0074999Y0069643D01*
X0074999Y0072957D01*
X0073856Y0074100D01*
X0078142Y0074100D01*
X0076999Y0072957D01*
X0076999Y0069643D01*
X0079342Y0067300D01*
X0081999Y0067300D01*
X0081999Y0064643D01*
X0082342Y0064300D01*
X0080402Y0064300D01*
X0079300Y0063843D01*
X0078456Y0062999D01*
X0078456Y0062999D01*
X0070757Y0055300D01*
X0069342Y0055300D01*
X0066999Y0052957D01*
X0066999Y0051543D01*
X0062257Y0046800D01*
X0043999Y0046800D01*
X0043999Y0046921D01*
X0044442Y0047364D01*
X0044899Y0048466D01*
X0044899Y0054134D01*
X0044442Y0055236D01*
X0043999Y0055679D01*
X0043999Y0068643D01*
X0044999Y0069643D01*
X0044999Y0072957D01*
X0042656Y0075300D01*
X0039342Y0075300D01*
X0036999Y0072957D01*
X0036999Y0069643D01*
X0037999Y0068643D01*
X0037999Y0055441D01*
X0037374Y0055700D01*
X0029624Y0055700D01*
X0028007Y0055030D01*
X0027277Y0054300D01*
X0022156Y0054300D01*
X0022119Y0054387D01*
X0020586Y0055920D01*
X0018583Y0056750D01*
X0016415Y0056750D01*
X0014412Y0055920D01*
X0012879Y0054387D01*
X0012049Y0052384D01*
X0012049Y0050216D01*
X0012879Y0048213D01*
X0014412Y0046680D01*
X0014831Y0046506D01*
X0014096Y0046058D02*
X0005800Y0046058D01*
X0014096Y0046058D01*
X0013435Y0047657D02*
X0005800Y0047657D01*
X0013435Y0047657D01*
X0012447Y0049255D02*
X0005800Y0049255D01*
X0012447Y0049255D01*
X0012049Y0050854D02*
X0005800Y0050854D01*
X0012049Y0050854D01*
X0012078Y0052452D02*
X0005800Y0052452D01*
X0012078Y0052452D01*
X0012740Y0054051D02*
X0005800Y0054051D01*
X0012740Y0054051D01*
X0014141Y0055649D02*
X0005800Y0055649D01*
X0014141Y0055649D01*
X0020857Y0055649D02*
X0029502Y0055649D01*
X0020857Y0055649D01*
X0005800Y0057248D02*
X0037999Y0057248D01*
X0005800Y0057248D01*
X0005800Y0058846D02*
X0037999Y0058846D01*
X0005800Y0058846D01*
X0005800Y0060445D02*
X0037999Y0060445D01*
X0005800Y0060445D01*
X0005800Y0062043D02*
X0037999Y0062043D01*
X0005800Y0062043D01*
X0005800Y0063642D02*
X0037999Y0063642D01*
X0005800Y0063642D01*
X0005800Y0065240D02*
X0037999Y0065240D01*
X0005800Y0065240D01*
X0005800Y0066839D02*
X0037999Y0066839D01*
X0005800Y0066839D01*
X0005800Y0068437D02*
X0008205Y0068437D01*
X0005800Y0068437D01*
X0005800Y0070036D02*
X0006999Y0070036D01*
X0005800Y0070036D01*
X0006999Y0069643D02*
X0009342Y0067300D01*
X0012656Y0067300D01*
X0014999Y0069643D01*
X0014999Y0072957D01*
X0012656Y0075300D01*
X0009342Y0075300D01*
X0006999Y0072957D01*
X0006999Y0069643D01*
X0009342Y0067300D01*
X0012656Y0067300D01*
X0014999Y0069643D01*
X0014999Y0072957D01*
X0012656Y0075300D01*
X0009342Y0075300D01*
X0006999Y0072957D01*
X0006999Y0069643D01*
X0006999Y0071634D02*
X0005800Y0071634D01*
X0006999Y0071634D01*
X0007275Y0073233D02*
X0005800Y0073233D01*
X0007275Y0073233D01*
X0005800Y0074832D02*
X0008874Y0074832D01*
X0005800Y0074832D01*
X0005800Y0076430D02*
X0067142Y0076430D01*
X0005800Y0076430D01*
X0013125Y0074832D02*
X0018874Y0074832D01*
X0013125Y0074832D01*
X0014723Y0073233D02*
X0017275Y0073233D01*
X0014723Y0073233D01*
X0016999Y0072957D02*
X0016999Y0069643D01*
X0019342Y0067300D01*
X0022656Y0067300D01*
X0024999Y0069643D01*
X0024999Y0072957D01*
X0022656Y0075300D01*
X0019342Y0075300D01*
X0016999Y0072957D01*
X0016999Y0069643D01*
X0019342Y0067300D01*
X0022656Y0067300D01*
X0024999Y0069643D01*
X0024999Y0072957D01*
X0022656Y0075300D01*
X0019342Y0075300D01*
X0016999Y0072957D01*
X0016999Y0071634D02*
X0014999Y0071634D01*
X0016999Y0071634D01*
X0016999Y0070036D02*
X0014999Y0070036D01*
X0016999Y0070036D01*
X0018205Y0068437D02*
X0013794Y0068437D01*
X0018205Y0068437D01*
X0023794Y0068437D02*
X0028205Y0068437D01*
X0023794Y0068437D01*
X0024999Y0070036D02*
X0026999Y0070036D01*
X0024999Y0070036D01*
X0026999Y0069643D02*
X0029342Y0067300D01*
X0032656Y0067300D01*
X0034999Y0069643D01*
X0034999Y0072957D01*
X0032656Y0075300D01*
X0029342Y0075300D01*
X0026999Y0072957D01*
X0026999Y0069643D01*
X0029342Y0067300D01*
X0032656Y0067300D01*
X0034999Y0069643D01*
X0034999Y0072957D01*
X0032656Y0075300D01*
X0029342Y0075300D01*
X0026999Y0072957D01*
X0026999Y0069643D01*
X0026999Y0071634D02*
X0024999Y0071634D01*
X0026999Y0071634D01*
X0027275Y0073233D02*
X0024723Y0073233D01*
X0027275Y0073233D01*
X0028874Y0074832D02*
X0023125Y0074832D01*
X0028874Y0074832D01*
X0033125Y0074832D02*
X0038874Y0074832D01*
X0033125Y0074832D01*
X0034723Y0073233D02*
X0037275Y0073233D01*
X0034723Y0073233D01*
X0034999Y0071634D02*
X0036999Y0071634D01*
X0034999Y0071634D01*
X0034999Y0070036D02*
X0036999Y0070036D01*
X0034999Y0070036D01*
X0033794Y0068437D02*
X0037999Y0068437D01*
X0033794Y0068437D01*
X0043999Y0068437D02*
X0048205Y0068437D01*
X0043999Y0068437D01*
X0043999Y0066839D02*
X0059099Y0066839D01*
X0043999Y0066839D01*
X0043999Y0065240D02*
X0059099Y0065240D01*
X0043999Y0065240D01*
X0043999Y0063642D02*
X0059099Y0063642D01*
X0043999Y0063642D01*
X0043999Y0062043D02*
X0059099Y0062043D01*
X0043999Y0062043D01*
X0043999Y0060445D02*
X0059167Y0060445D01*
X0043999Y0060445D01*
X0043999Y0058846D02*
X0060414Y0058846D01*
X0043999Y0058846D01*
X0043999Y0057248D02*
X0061443Y0057248D01*
X0043999Y0057248D01*
X0044029Y0055649D02*
X0049126Y0055649D01*
X0044029Y0055649D01*
X0044899Y0054051D02*
X0047528Y0054051D01*
X0044899Y0054051D01*
X0046599Y0053123D02*
X0046599Y0051300D01*
X0050999Y0051300D01*
X0050999Y0051300D01*
X0050999Y0051300D01*
X0046599Y0051300D01*
X0046599Y0053123D01*
X0049177Y0055700D01*
X0050999Y0055700D01*
X0050999Y0051300D01*
X0046599Y0051300D01*
X0046599Y0049477D01*
X0049177Y0046900D01*
X0050999Y0046900D01*
X0050999Y0051300D01*
X0046599Y0051300D01*
X0046599Y0049477D01*
X0049177Y0046900D01*
X0050999Y0046900D01*
X0050999Y0051300D01*
X0050999Y0051300D01*
X0050999Y0055700D01*
X0049177Y0055700D01*
X0046599Y0053123D01*
X0046599Y0052452D02*
X0044899Y0052452D01*
X0046599Y0052452D01*
X0050999Y0052452D02*
X0050999Y0052452D01*
X0050999Y0052452D01*
X0050999Y0051300D02*
X0050999Y0055700D01*
X0052822Y0055700D01*
X0055399Y0053123D01*
X0055399Y0051300D01*
X0050999Y0051300D01*
X0050999Y0051300D01*
X0050999Y0051300D01*
X0050999Y0051300D01*
X0050999Y0046900D01*
X0052822Y0046900D01*
X0055399Y0049477D01*
X0055399Y0051300D01*
X0055399Y0053123D01*
X0052822Y0055700D01*
X0050999Y0055700D01*
X0050999Y0051300D01*
X0050999Y0046900D01*
X0052822Y0046900D01*
X0055399Y0049477D01*
X0055399Y0051300D01*
X0050999Y0051300D01*
X0050999Y0051300D01*
X0055399Y0051300D01*
X0050999Y0051300D01*
X0050999Y0051300D01*
X0050999Y0050854D02*
X0050999Y0050854D01*
X0050999Y0050854D01*
X0046599Y0050854D02*
X0044899Y0050854D01*
X0046599Y0050854D01*
X0046821Y0049255D02*
X0044899Y0049255D01*
X0046821Y0049255D01*
X0050999Y0049255D02*
X0050999Y0049255D01*
X0050999Y0049255D01*
X0050999Y0047657D02*
X0050999Y0047657D01*
X0050999Y0047657D01*
X0048420Y0047657D02*
X0044564Y0047657D01*
X0048420Y0047657D01*
X0053579Y0047657D02*
X0063113Y0047657D01*
X0053579Y0047657D01*
X0055177Y0049255D02*
X0064712Y0049255D01*
X0055177Y0049255D01*
X0055399Y0050854D02*
X0066310Y0050854D01*
X0055399Y0050854D01*
X0055399Y0052452D02*
X0066999Y0052452D01*
X0055399Y0052452D01*
X0054471Y0054051D02*
X0068093Y0054051D01*
X0054471Y0054051D01*
X0052872Y0055649D02*
X0071106Y0055649D01*
X0052872Y0055649D01*
X0050999Y0055649D02*
X0050999Y0055649D01*
X0050999Y0055649D01*
X0050999Y0054051D02*
X0050999Y0054051D01*
X0050999Y0054051D01*
X0037999Y0055649D02*
X0037497Y0055649D01*
X0037999Y0055649D01*
X0062899Y0063642D02*
X0079099Y0063642D01*
X0062899Y0063642D01*
X0062899Y0065240D02*
X0081999Y0065240D01*
X0062899Y0065240D01*
X0065188Y0066839D02*
X0081999Y0066839D01*
X0065188Y0066839D01*
X0066786Y0068437D02*
X0068205Y0068437D01*
X0066786Y0068437D01*
X0073794Y0068437D02*
X0078205Y0068437D01*
X0073794Y0068437D01*
X0074999Y0070036D02*
X0076999Y0070036D01*
X0074999Y0070036D01*
X0074999Y0071634D02*
X0076999Y0071634D01*
X0074999Y0071634D01*
X0074723Y0073233D02*
X0077275Y0073233D01*
X0074723Y0073233D01*
X0065544Y0074832D02*
X0063125Y0074832D01*
X0065544Y0074832D01*
X0058874Y0074832D02*
X0053125Y0074832D01*
X0058874Y0074832D01*
X0057275Y0073233D02*
X0054723Y0073233D01*
X0057275Y0073233D01*
X0054999Y0072957D02*
X0052656Y0075300D01*
X0049342Y0075300D01*
X0046999Y0072957D01*
X0046999Y0069643D01*
X0049342Y0067300D01*
X0052656Y0067300D01*
X0054999Y0069643D01*
X0054999Y0072957D01*
X0052656Y0075300D01*
X0049342Y0075300D01*
X0046999Y0072957D01*
X0046999Y0069643D01*
X0049342Y0067300D01*
X0052656Y0067300D01*
X0054999Y0069643D01*
X0054999Y0072957D01*
X0054999Y0071634D02*
X0056999Y0071634D01*
X0054999Y0071634D01*
X0054999Y0070036D02*
X0056999Y0070036D01*
X0054999Y0070036D01*
X0053794Y0068437D02*
X0058205Y0068437D01*
X0053794Y0068437D01*
X0046999Y0070036D02*
X0044999Y0070036D01*
X0046999Y0070036D01*
X0046999Y0071634D02*
X0044999Y0071634D01*
X0046999Y0071634D01*
X0047275Y0073233D02*
X0044723Y0073233D01*
X0047275Y0073233D01*
X0048874Y0074832D02*
X0043125Y0074832D01*
X0048874Y0074832D01*
X0078456Y0062999D02*
X0078456Y0062999D01*
X0077500Y0062043D02*
X0066264Y0062043D01*
X0077500Y0062043D01*
X0075902Y0060445D02*
X0067099Y0060445D01*
X0075902Y0060445D01*
X0074303Y0058846D02*
X0066984Y0058846D01*
X0074303Y0058846D01*
X0072704Y0057248D02*
X0065955Y0057248D01*
X0072704Y0057248D01*
X0079591Y0055649D02*
X0081999Y0055649D01*
X0079591Y0055649D01*
X0077993Y0054051D02*
X0082591Y0054051D01*
X0077993Y0054051D01*
X0076394Y0052452D02*
X0084190Y0052452D01*
X0076394Y0052452D01*
X0074999Y0050854D02*
X0109703Y0050854D01*
X0074999Y0050854D01*
X0074611Y0049255D02*
X0083298Y0049255D01*
X0074611Y0049255D01*
X0073013Y0047657D02*
X0081999Y0047657D01*
X0073013Y0047657D01*
X0070000Y0046058D02*
X0081999Y0046058D01*
X0070000Y0046058D01*
X0087808Y0052452D02*
X0094190Y0052452D01*
X0087808Y0052452D01*
X0089407Y0054051D02*
X0092591Y0054051D01*
X0089407Y0054051D01*
X0091999Y0054643D02*
X0094342Y0052300D01*
X0097656Y0052300D01*
X0099999Y0054643D01*
X0099999Y0057957D01*
X0097656Y0060300D01*
X0094342Y0060300D01*
X0091999Y0057957D01*
X0091999Y0054643D01*
X0094342Y0052300D01*
X0097656Y0052300D01*
X0099999Y0054643D01*
X0099999Y0057957D01*
X0097656Y0060300D01*
X0094342Y0060300D01*
X0091999Y0057957D01*
X0091999Y0054643D01*
X0091999Y0055649D02*
X0089999Y0055649D01*
X0091999Y0055649D01*
X0091999Y0057248D02*
X0089999Y0057248D01*
X0091999Y0057248D01*
X0092788Y0058846D02*
X0092889Y0058846D01*
X0092788Y0058846D01*
X0094387Y0060445D02*
X0100112Y0060445D01*
X0094387Y0060445D01*
X0095985Y0062043D02*
X0098513Y0062043D01*
X0095985Y0062043D01*
X0099110Y0058846D02*
X0101710Y0058846D01*
X0099110Y0058846D01*
X0099999Y0057248D02*
X0103309Y0057248D01*
X0099999Y0057248D01*
X0099999Y0055649D02*
X0104907Y0055649D01*
X0099999Y0055649D01*
X0099407Y0054051D02*
X0106506Y0054051D01*
X0099407Y0054051D01*
X0097808Y0052452D02*
X0108104Y0052452D01*
X0097808Y0052452D01*
X0081999Y0057248D02*
X0081190Y0057248D01*
X0081999Y0057248D01*
X0115557Y0054051D02*
X0127999Y0054051D01*
X0115557Y0054051D01*
X0115957Y0055649D02*
X0127999Y0055649D01*
X0115957Y0055649D01*
X0116868Y0057248D02*
X0127999Y0057248D01*
X0116868Y0057248D01*
X0116829Y0058846D02*
X0127999Y0058846D01*
X0116829Y0058846D01*
X0118631Y0060445D02*
X0127999Y0060445D01*
X0118631Y0060445D01*
X0120230Y0062043D02*
X0127999Y0062043D01*
X0120230Y0062043D01*
X0121828Y0063642D02*
X0123000Y0063642D01*
X0121828Y0063642D01*
X0133999Y0062643D02*
X0134342Y0062300D01*
X0137656Y0062300D01*
X0139999Y0064643D01*
X0139999Y0066900D01*
X0140999Y0066900D01*
X0140999Y0071300D01*
X0140999Y0071300D01*
X0136599Y0071300D01*
X0136599Y0071900D01*
X0135999Y0071900D01*
X0134999Y0071900D01*
X0134999Y0070300D01*
X0136599Y0070300D01*
X0136599Y0071300D01*
X0140999Y0071300D01*
X0140999Y0071300D01*
X0136599Y0071300D01*
X0136599Y0071900D01*
X0135999Y0071900D01*
X0135999Y0076300D01*
X0135999Y0076300D01*
X0131599Y0076300D01*
X0131599Y0076461D01*
X0129999Y0076461D01*
X0129999Y0075300D01*
X0131599Y0075300D01*
X0131599Y0076300D01*
X0135999Y0076300D01*
X0135999Y0076300D01*
X0131599Y0076300D01*
X0131599Y0076461D01*
X0129999Y0076461D01*
X0129999Y0075300D01*
X0131599Y0075300D01*
X0131599Y0076300D01*
X0135999Y0076300D01*
X0135999Y0076300D01*
X0135999Y0076300D01*
X0135999Y0071900D01*
X0134999Y0071900D01*
X0134999Y0070300D01*
X0136599Y0070300D01*
X0136599Y0071300D01*
X0140999Y0071300D01*
X0140999Y0075700D01*
X0140399Y0075700D01*
X0140399Y0076300D01*
X0140399Y0076461D01*
X0141999Y0076461D01*
X0141999Y0075700D01*
X0140999Y0075700D01*
X0140999Y0071300D01*
X0140999Y0071300D01*
X0140999Y0071300D01*
X0140999Y0071300D01*
X0140999Y0071300D01*
X0140999Y0066900D01*
X0139999Y0066900D01*
X0139999Y0064643D01*
X0137656Y0062300D01*
X0134342Y0062300D01*
X0133999Y0062643D01*
X0133999Y0054300D01*
X0142342Y0054300D01*
X0141999Y0054643D01*
X0141999Y0057957D01*
X0144342Y0060300D01*
X0147656Y0060300D01*
X0148956Y0059000D01*
X0149612Y0059000D01*
X0152999Y0062387D01*
X0153627Y0063015D01*
X0151999Y0064643D01*
X0151999Y0067300D01*
X0149999Y0067300D01*
X0149999Y0064643D01*
X0147656Y0062300D01*
X0144342Y0062300D01*
X0141999Y0064643D01*
X0141999Y0066900D01*
X0140999Y0066900D01*
X0140999Y0071300D01*
X0140999Y0075700D01*
X0140399Y0075700D01*
X0140399Y0076300D01*
X0135999Y0076300D01*
X0135999Y0071900D01*
X0135999Y0076300D01*
X0135999Y0076300D01*
X0140399Y0076300D01*
X0140399Y0076461D01*
X0141999Y0076461D01*
X0141999Y0075700D01*
X0140999Y0075700D01*
X0140999Y0071300D01*
X0140999Y0066900D01*
X0141999Y0066900D01*
X0141999Y0064643D01*
X0144342Y0062300D01*
X0147656Y0062300D01*
X0149999Y0064643D01*
X0149999Y0067300D01*
X0151999Y0067300D01*
X0151999Y0064643D01*
X0153627Y0063015D01*
X0152999Y0062387D01*
X0149612Y0059000D01*
X0148956Y0059000D01*
X0147656Y0060300D01*
X0144342Y0060300D01*
X0141999Y0057957D01*
X0141999Y0054643D01*
X0142342Y0054300D01*
X0133999Y0054300D01*
X0133999Y0062643D01*
X0133999Y0062043D02*
X0152656Y0062043D01*
X0133999Y0062043D01*
X0133999Y0060445D02*
X0151057Y0060445D01*
X0133999Y0060445D01*
X0133999Y0058846D02*
X0142889Y0058846D01*
X0133999Y0058846D01*
X0133999Y0057248D02*
X0141999Y0057248D01*
X0133999Y0057248D01*
X0133999Y0055649D02*
X0141999Y0055649D01*
X0133999Y0055649D01*
X0127909Y0052452D02*
X0116702Y0052452D01*
X0127909Y0052452D01*
X0126310Y0050854D02*
X0116899Y0050854D01*
X0126310Y0050854D01*
X0124712Y0049255D02*
X0116263Y0049255D01*
X0124712Y0049255D01*
X0131599Y0047657D02*
X0141999Y0047657D01*
X0131599Y0047657D01*
X0132242Y0048300D02*
X0142342Y0048300D01*
X0141999Y0047957D01*
X0141999Y0044643D01*
X0144342Y0042300D01*
X0147656Y0042300D01*
X0149684Y0044328D01*
X0152999Y0041013D01*
X0154027Y0039985D01*
X0151999Y0037957D01*
X0151999Y0034643D01*
X0152342Y0034300D01*
X0150402Y0034300D01*
X0150094Y0034172D01*
X0150399Y0034477D01*
X0150399Y0036300D01*
X0150399Y0038123D01*
X0147822Y0040700D01*
X0145999Y0040700D01*
X0144177Y0040700D01*
X0141599Y0038123D01*
X0141599Y0036300D01*
X0145999Y0036300D01*
X0145999Y0036300D01*
X0145999Y0036300D01*
X0141599Y0036300D01*
X0141599Y0038123D01*
X0144177Y0040700D01*
X0145999Y0040700D01*
X0145999Y0036300D01*
X0141599Y0036300D01*
X0141599Y0034477D01*
X0144177Y0031900D01*
X0145999Y0031900D01*
X0145999Y0036300D01*
X0141599Y0036300D01*
X0141599Y0034477D01*
X0144177Y0031900D01*
X0145999Y0031900D01*
X0145999Y0036300D01*
X0145999Y0036300D01*
X0145999Y0040700D01*
X0145999Y0036300D01*
X0145999Y0036300D01*
X0145999Y0036300D01*
X0145999Y0036300D01*
X0145999Y0031900D01*
X0147357Y0031900D01*
X0145757Y0030300D01*
X0144342Y0030300D01*
X0141999Y0027957D01*
X0141999Y0024643D01*
X0142142Y0024500D01*
X0141623Y0024500D01*
X0140373Y0023982D01*
X0139417Y0023026D01*
X0138899Y0021776D01*
X0138899Y0020811D01*
X0138022Y0019934D01*
X0137656Y0020300D01*
X0134342Y0020300D01*
X0131999Y0017957D01*
X0131999Y0015300D01*
X0129999Y0015300D01*
X0129999Y0017957D01*
X0127656Y0020300D01*
X0124342Y0020300D01*
X0121999Y0017957D01*
X0121999Y0015300D01*
X0120186Y0015300D01*
X0119999Y0015487D01*
X0119999Y0017957D01*
X0117656Y0020300D01*
X0114342Y0020300D01*
X0111999Y0017957D01*
X0111999Y0015300D01*
X0110399Y0015300D01*
X0110399Y0016300D01*
X0110399Y0018123D01*
X0107822Y0020700D01*
X0105999Y0020700D01*
X0104177Y0020700D01*
X0103999Y0020523D01*
X0103999Y0038300D01*
X0121596Y0038300D01*
X0122699Y0038757D01*
X0123542Y0039601D01*
X0132242Y0048300D01*
X0142342Y0048300D01*
X0141999Y0047957D01*
X0141999Y0044643D01*
X0144342Y0042300D01*
X0147656Y0042300D01*
X0149684Y0044328D01*
X0152999Y0041013D01*
X0154027Y0039985D01*
X0151999Y0037957D01*
X0151999Y0034643D01*
X0152342Y0034300D01*
X0150402Y0034300D01*
X0150094Y0034172D01*
X0150399Y0034477D01*
X0150399Y0036300D01*
X0145999Y0036300D01*
X0145999Y0031900D01*
X0147357Y0031900D01*
X0145757Y0030300D01*
X0144342Y0030300D01*
X0141999Y0027957D01*
X0141999Y0024643D01*
X0142142Y0024500D01*
X0141623Y0024500D01*
X0140373Y0023982D01*
X0139417Y0023026D01*
X0138899Y0021776D01*
X0138899Y0020811D01*
X0138022Y0019934D01*
X0137656Y0020300D01*
X0134342Y0020300D01*
X0131999Y0017957D01*
X0131999Y0015300D01*
X0129999Y0015300D01*
X0129999Y0017957D01*
X0127656Y0020300D01*
X0124342Y0020300D01*
X0121999Y0017957D01*
X0121999Y0015300D01*
X0120186Y0015300D01*
X0119999Y0015487D01*
X0119999Y0017957D01*
X0117656Y0020300D01*
X0114342Y0020300D01*
X0111999Y0017957D01*
X0111999Y0015300D01*
X0110399Y0015300D01*
X0110399Y0016300D01*
X0105999Y0016300D01*
X0105999Y0020700D01*
X0104177Y0020700D01*
X0103999Y0020523D01*
X0103999Y0038300D01*
X0121596Y0038300D01*
X0122699Y0038757D01*
X0123542Y0039601D01*
X0123542Y0039601D01*
X0132242Y0048300D01*
X0130000Y0046058D02*
X0141999Y0046058D01*
X0130000Y0046058D01*
X0128402Y0044460D02*
X0142183Y0044460D01*
X0128402Y0044460D01*
X0126803Y0042861D02*
X0143781Y0042861D01*
X0126803Y0042861D01*
X0125205Y0041263D02*
X0152749Y0041263D01*
X0125205Y0041263D01*
X0123606Y0039664D02*
X0143141Y0039664D01*
X0123606Y0039664D01*
X0123542Y0039601D02*
X0123542Y0039601D01*
X0141599Y0038066D02*
X0103999Y0038066D01*
X0141599Y0038066D01*
X0145999Y0038066D02*
X0145999Y0038066D01*
X0145999Y0038066D01*
X0145999Y0039664D02*
X0145999Y0039664D01*
X0145999Y0039664D01*
X0145999Y0040700D02*
X0145999Y0036300D01*
X0145999Y0036300D01*
X0150399Y0036300D01*
X0150399Y0038123D01*
X0147822Y0040700D01*
X0145999Y0040700D01*
X0148857Y0039664D02*
X0153707Y0039664D01*
X0148857Y0039664D01*
X0150399Y0038066D02*
X0152108Y0038066D01*
X0150399Y0038066D01*
X0150399Y0036467D02*
X0151999Y0036467D01*
X0150399Y0036467D01*
X0150399Y0036300D02*
X0145999Y0036300D01*
X0145999Y0036300D01*
X0150399Y0036300D01*
X0150399Y0034869D02*
X0151999Y0034869D01*
X0150399Y0034869D01*
X0145999Y0034869D02*
X0145999Y0034869D01*
X0145999Y0034869D01*
X0141599Y0034869D02*
X0103999Y0034869D01*
X0141599Y0034869D01*
X0141599Y0036467D02*
X0103999Y0036467D01*
X0141599Y0036467D01*
X0145999Y0036467D02*
X0145999Y0036467D01*
X0145999Y0036467D01*
X0145999Y0033270D02*
X0145999Y0033270D01*
X0145999Y0033270D01*
X0142806Y0033270D02*
X0103999Y0033270D01*
X0142806Y0033270D01*
X0147128Y0031672D02*
X0103999Y0031672D01*
X0147128Y0031672D01*
X0144116Y0030073D02*
X0103999Y0030073D01*
X0144116Y0030073D01*
X0142517Y0028475D02*
X0103999Y0028475D01*
X0142517Y0028475D01*
X0141999Y0026876D02*
X0103999Y0026876D01*
X0141999Y0026876D01*
X0141999Y0025278D02*
X0103999Y0025278D01*
X0141999Y0025278D01*
X0140070Y0023679D02*
X0103999Y0023679D01*
X0140070Y0023679D01*
X0139025Y0022081D02*
X0103999Y0022081D01*
X0139025Y0022081D01*
X0138570Y0020482D02*
X0108040Y0020482D01*
X0138570Y0020482D01*
X0142299Y0021100D02*
X0137499Y0016300D01*
X0135999Y0016300D01*
X0131999Y0015687D02*
X0129999Y0015687D01*
X0131999Y0015687D01*
X0131999Y0017285D02*
X0129999Y0017285D01*
X0131999Y0017285D01*
X0132926Y0018884D02*
X0129072Y0018884D01*
X0132926Y0018884D01*
X0122926Y0018884D02*
X0119072Y0018884D01*
X0122926Y0018884D01*
X0121999Y0017285D02*
X0119999Y0017285D01*
X0121999Y0017285D01*
X0121999Y0015687D02*
X0119999Y0015687D01*
X0121999Y0015687D01*
X0112926Y0018884D02*
X0109638Y0018884D01*
X0112926Y0018884D01*
X0110399Y0018123D02*
X0107822Y0020700D01*
X0105999Y0020700D01*
X0105999Y0016300D01*
X0105999Y0016300D01*
X0105999Y0016300D01*
X0105999Y0016300D01*
X0105999Y0011900D01*
X0104999Y0011900D01*
X0104999Y0010300D01*
X0106999Y0010300D01*
X0106999Y0011900D01*
X0105999Y0011900D01*
X0105999Y0016300D01*
X0105999Y0016300D01*
X0105999Y0011900D01*
X0104999Y0011900D01*
X0104999Y0010300D01*
X0106999Y0010300D01*
X0106999Y0011900D01*
X0105999Y0011900D01*
X0105999Y0016300D01*
X0105999Y0020700D01*
X0105999Y0016300D01*
X0105999Y0016300D01*
X0110399Y0016300D01*
X0110399Y0018123D01*
X0110399Y0017285D02*
X0111999Y0017285D01*
X0110399Y0017285D01*
X0110399Y0016300D02*
X0105999Y0016300D01*
X0105999Y0016300D01*
X0110399Y0016300D01*
X0110399Y0015687D02*
X0111999Y0015687D01*
X0110399Y0015687D01*
X0105999Y0015687D02*
X0105999Y0015687D01*
X0105999Y0015687D01*
X0105999Y0014088D02*
X0105999Y0014088D01*
X0105999Y0014088D01*
X0105999Y0012490D02*
X0105999Y0012490D01*
X0105999Y0012490D01*
X0104999Y0010891D02*
X0106999Y0010891D01*
X0104999Y0010891D01*
X0105999Y0017285D02*
X0105999Y0017285D01*
X0105999Y0017285D01*
X0105999Y0018884D02*
X0105999Y0018884D01*
X0105999Y0018884D01*
X0105999Y0020482D02*
X0105999Y0020482D01*
X0105999Y0020482D01*
X0068948Y0007694D02*
X0063050Y0007694D01*
X0068948Y0007694D01*
X0067350Y0009293D02*
X0064649Y0009293D01*
X0067350Y0009293D01*
X0058948Y0007694D02*
X0053050Y0007694D01*
X0058948Y0007694D01*
X0057350Y0009293D02*
X0054649Y0009293D01*
X0057350Y0009293D01*
X0048948Y0007694D02*
X0043050Y0007694D01*
X0048948Y0007694D01*
X0047350Y0009293D02*
X0044649Y0009293D01*
X0047350Y0009293D01*
X0046999Y0010891D02*
X0044999Y0010891D01*
X0046999Y0010891D01*
X0046999Y0012490D02*
X0044999Y0012490D01*
X0046999Y0012490D01*
X0048130Y0014088D02*
X0043868Y0014088D01*
X0048130Y0014088D01*
X0042373Y0015687D02*
X0056799Y0015687D01*
X0042373Y0015687D01*
X0043971Y0017285D02*
X0058397Y0017285D01*
X0043971Y0017285D01*
X0045570Y0018884D02*
X0059996Y0018884D01*
X0045570Y0018884D01*
X0047168Y0020482D02*
X0061594Y0020482D01*
X0047168Y0020482D01*
X0035091Y0023679D02*
X0005800Y0023679D01*
X0035091Y0023679D01*
X0033493Y0022081D02*
X0005800Y0022081D01*
X0033493Y0022081D01*
X0031894Y0020482D02*
X0005800Y0020482D01*
X0031894Y0020482D01*
X0030296Y0018884D02*
X0005800Y0018884D01*
X0030296Y0018884D01*
X0028697Y0017285D02*
X0005800Y0017285D01*
X0028697Y0017285D01*
X0027099Y0015687D02*
X0005800Y0015687D01*
X0027099Y0015687D01*
X0025500Y0014088D02*
X0023868Y0014088D01*
X0025500Y0014088D01*
X0018130Y0014088D02*
X0013868Y0014088D01*
X0018130Y0014088D01*
X0016999Y0012490D02*
X0014999Y0012490D01*
X0016999Y0012490D01*
X0014999Y0012957D02*
X0012656Y0015300D01*
X0009342Y0015300D01*
X0006999Y0012957D01*
X0006999Y0009643D01*
X0009342Y0007300D01*
X0012656Y0007300D01*
X0014999Y0009643D01*
X0014999Y0012957D01*
X0012656Y0015300D01*
X0009342Y0015300D01*
X0006999Y0012957D01*
X0006999Y0009643D01*
X0009342Y0007300D01*
X0012656Y0007300D01*
X0014999Y0009643D01*
X0014999Y0012957D01*
X0014999Y0010891D02*
X0016999Y0010891D01*
X0014999Y0010891D01*
X0014649Y0009293D02*
X0017350Y0009293D01*
X0014649Y0009293D01*
X0013050Y0007694D02*
X0018948Y0007694D01*
X0013050Y0007694D01*
X0008948Y0007694D02*
X0005800Y0007694D01*
X0008948Y0007694D01*
X0007350Y0009293D02*
X0005800Y0009293D01*
X0007350Y0009293D01*
X0006999Y0010891D02*
X0005800Y0010891D01*
X0006999Y0010891D01*
X0006999Y0012490D02*
X0005800Y0012490D01*
X0006999Y0012490D01*
X0008130Y0014088D02*
X0005800Y0014088D01*
X0008130Y0014088D01*
X0024649Y0009293D02*
X0027350Y0009293D01*
X0024649Y0009293D01*
X0023050Y0007694D02*
X0028948Y0007694D01*
X0023050Y0007694D01*
X0033050Y0007694D02*
X0038948Y0007694D01*
X0033050Y0007694D01*
X0034649Y0009293D02*
X0037350Y0009293D01*
X0034649Y0009293D01*
X0053868Y0014088D02*
X0055200Y0014088D01*
X0053868Y0014088D01*
X0036690Y0025278D02*
X0005800Y0025278D01*
X0036690Y0025278D01*
X0033680Y0026876D02*
X0022949Y0026876D01*
X0033680Y0026876D01*
X0012049Y0026876D02*
X0005800Y0026876D01*
X0012049Y0026876D01*
X0012049Y0028475D02*
X0005800Y0028475D01*
X0012049Y0028475D01*
X0012049Y0030073D02*
X0005800Y0030073D01*
X0012049Y0030073D01*
X0012049Y0031672D02*
X0005800Y0031672D01*
X0012049Y0031672D01*
X0012049Y0033270D02*
X0005800Y0033270D01*
X0012049Y0033270D01*
X0012049Y0034869D02*
X0005800Y0034869D01*
X0012049Y0034869D01*
X0012587Y0036467D02*
X0005800Y0036467D01*
X0012587Y0036467D01*
X0012618Y0038066D02*
X0005800Y0038066D01*
X0012618Y0038066D01*
X0011880Y0039664D02*
X0005800Y0039664D01*
X0011880Y0039664D01*
X0016949Y0041263D02*
X0005800Y0041263D01*
X0016949Y0041263D01*
X0011855Y0042861D02*
X0005800Y0042861D01*
X0011855Y0042861D01*
X0012564Y0044460D02*
X0005800Y0044460D01*
X0012564Y0044460D01*
X0129999Y0076430D02*
X0131599Y0076430D01*
X0129999Y0076430D01*
X0135999Y0076300D02*
X0140399Y0076300D01*
X0135999Y0076300D01*
X0135999Y0076300D01*
X0135999Y0074832D02*
X0135999Y0074832D01*
X0135999Y0074832D01*
X0135999Y0073233D02*
X0135999Y0073233D01*
X0135999Y0073233D01*
X0136599Y0071634D02*
X0134999Y0071634D01*
X0136599Y0071634D01*
X0140999Y0071634D02*
X0140999Y0071634D01*
X0140999Y0071634D01*
X0140999Y0071300D02*
X0145399Y0071300D01*
X0145399Y0072300D01*
X0146999Y0072300D01*
X0146999Y0070300D01*
X0145399Y0070300D01*
X0145399Y0071300D01*
X0140999Y0071300D01*
X0140999Y0071300D01*
X0145399Y0071300D01*
X0145399Y0072300D01*
X0146999Y0072300D01*
X0146999Y0070300D01*
X0145399Y0070300D01*
X0145399Y0071300D01*
X0140999Y0071300D01*
X0140999Y0071300D01*
X0140999Y0070036D02*
X0140999Y0070036D01*
X0140999Y0070036D01*
X0140999Y0068437D02*
X0140999Y0068437D01*
X0140999Y0068437D01*
X0139999Y0066839D02*
X0141999Y0066839D01*
X0139999Y0066839D01*
X0139999Y0065240D02*
X0141999Y0065240D01*
X0139999Y0065240D01*
X0138998Y0063642D02*
X0143000Y0063642D01*
X0138998Y0063642D01*
X0148998Y0063642D02*
X0153000Y0063642D01*
X0148998Y0063642D01*
X0149999Y0065240D02*
X0151999Y0065240D01*
X0149999Y0065240D01*
X0149999Y0066839D02*
X0151999Y0066839D01*
X0149999Y0066839D01*
X0158856Y0063500D02*
X0159999Y0064643D01*
X0159999Y0065100D01*
X0167386Y0065100D01*
X0169586Y0067300D01*
X0172656Y0067300D01*
X0174999Y0069643D01*
X0174999Y0072957D01*
X0172656Y0075300D01*
X0169342Y0075300D01*
X0166999Y0072957D01*
X0166999Y0070087D01*
X0165812Y0068900D01*
X0164256Y0068900D01*
X0164999Y0069643D01*
X0164999Y0072957D01*
X0162656Y0075300D01*
X0159342Y0075300D01*
X0157464Y0073422D01*
X0154426Y0076461D01*
X0226199Y0076460D01*
X0226199Y0038434D01*
X0216777Y0047856D01*
X0217729Y0048808D01*
X0218399Y0050425D01*
X0218399Y0052175D01*
X0217729Y0053792D01*
X0216492Y0055030D01*
X0214874Y0055700D01*
X0207124Y0055700D01*
X0205507Y0055030D01*
X0204269Y0053792D01*
X0203599Y0052175D01*
X0203599Y0050425D01*
X0204269Y0048808D01*
X0205507Y0047570D01*
X0207124Y0046900D01*
X0211510Y0046900D01*
X0212711Y0045700D01*
X0207124Y0045700D01*
X0205507Y0045030D01*
X0204269Y0043792D01*
X0203599Y0042175D01*
X0203599Y0040425D01*
X0204269Y0038808D01*
X0205507Y0037570D01*
X0207124Y0036900D01*
X0214874Y0036900D01*
X0216492Y0037570D01*
X0217729Y0038808D01*
X0218278Y0040132D01*
X0222799Y0035611D01*
X0222799Y0015157D01*
X0222656Y0015300D01*
X0222499Y0015300D01*
X0222499Y0021887D01*
X0217099Y0027287D01*
X0216654Y0027732D01*
X0217729Y0028808D01*
X0218399Y0030425D01*
X0218399Y0032175D01*
X0217729Y0033792D01*
X0216492Y0035030D01*
X0214874Y0035700D01*
X0207124Y0035700D01*
X0205507Y0035030D01*
X0204269Y0033792D01*
X0203599Y0032175D01*
X0203599Y0030425D01*
X0204269Y0028808D01*
X0204677Y0028400D01*
X0199786Y0028400D01*
X0188086Y0040100D01*
X0171186Y0040100D01*
X0181599Y0050513D01*
X0181599Y0049477D01*
X0184177Y0046900D01*
X0185999Y0046900D01*
X0185999Y0051300D01*
X0185999Y0051300D01*
X0185999Y0051300D01*
X0185999Y0046900D01*
X0184177Y0046900D01*
X0181599Y0049477D01*
X0181599Y0050513D01*
X0171186Y0040100D01*
X0188086Y0040100D01*
X0199786Y0028400D01*
X0204677Y0028400D01*
X0204269Y0028808D01*
X0203599Y0030425D01*
X0203599Y0032175D01*
X0204269Y0033792D01*
X0205507Y0035030D01*
X0207124Y0035700D01*
X0214874Y0035700D01*
X0216492Y0035030D01*
X0217729Y0033792D01*
X0218399Y0032175D01*
X0218399Y0030425D01*
X0217729Y0028808D01*
X0216654Y0027732D01*
X0217099Y0027287D01*
X0222499Y0021887D01*
X0222499Y0015300D01*
X0222656Y0015300D01*
X0222799Y0015157D01*
X0222799Y0035611D01*
X0218278Y0040132D01*
X0217729Y0038808D01*
X0216492Y0037570D01*
X0214874Y0036900D01*
X0207124Y0036900D01*
X0205507Y0037570D01*
X0204269Y0038808D01*
X0203599Y0040425D01*
X0203599Y0042175D01*
X0204269Y0043792D01*
X0205507Y0045030D01*
X0207124Y0045700D01*
X0212711Y0045700D01*
X0211510Y0046900D01*
X0207124Y0046900D01*
X0205507Y0047570D01*
X0204269Y0048808D01*
X0203599Y0050425D01*
X0203599Y0052175D01*
X0204269Y0053792D01*
X0205507Y0055030D01*
X0207124Y0055700D01*
X0214874Y0055700D01*
X0216492Y0055030D01*
X0217729Y0053792D01*
X0218399Y0052175D01*
X0218399Y0050425D01*
X0217729Y0048808D01*
X0216777Y0047856D01*
X0226199Y0038434D01*
X0226199Y0076460D01*
X0154426Y0076461D01*
X0157464Y0073422D01*
X0159342Y0075300D01*
X0162656Y0075300D01*
X0164999Y0072957D01*
X0164999Y0069643D01*
X0164256Y0068900D01*
X0165812Y0068900D01*
X0166999Y0070087D01*
X0166999Y0072957D01*
X0169342Y0075300D01*
X0172656Y0075300D01*
X0174999Y0072957D01*
X0174999Y0069643D01*
X0172656Y0067300D01*
X0169586Y0067300D01*
X0167386Y0065100D01*
X0159999Y0065100D01*
X0159999Y0064643D01*
X0158856Y0063500D01*
X0171212Y0063500D01*
X0177177Y0069465D01*
X0176999Y0069643D01*
X0176999Y0072957D01*
X0179342Y0075300D01*
X0182656Y0075300D01*
X0184999Y0072957D01*
X0184999Y0069643D01*
X0182656Y0067300D01*
X0180386Y0067300D01*
X0172786Y0059700D01*
X0158256Y0059700D01*
X0158956Y0059000D01*
X0176612Y0059000D01*
X0187127Y0069515D01*
X0186999Y0069643D01*
X0186999Y0072957D01*
X0189342Y0075300D01*
X0192656Y0075300D01*
X0194999Y0072957D01*
X0194999Y0069643D01*
X0192656Y0067300D01*
X0190286Y0067300D01*
X0178186Y0055200D01*
X0167756Y0055200D01*
X0169999Y0052957D01*
X0169999Y0049643D01*
X0167656Y0047300D01*
X0164342Y0047300D01*
X0163342Y0048300D01*
X0159656Y0048300D01*
X0159999Y0047957D01*
X0159999Y0044643D01*
X0159056Y0043700D01*
X0169412Y0043700D01*
X0196999Y0071287D01*
X0196999Y0072957D01*
X0199342Y0075300D01*
X0202656Y0075300D01*
X0204999Y0072957D01*
X0204999Y0069643D01*
X0202656Y0067300D01*
X0199342Y0067300D01*
X0198864Y0067778D01*
X0186786Y0055700D01*
X0187822Y0055700D01*
X0190399Y0053123D01*
X0190399Y0051300D01*
X0185999Y0051300D01*
X0185999Y0046900D01*
X0187822Y0046900D01*
X0190399Y0049477D01*
X0190399Y0051300D01*
X0190399Y0053123D01*
X0187822Y0055700D01*
X0186786Y0055700D01*
X0198864Y0067778D01*
X0199342Y0067300D01*
X0202656Y0067300D01*
X0204999Y0069643D01*
X0204999Y0072957D01*
X0202656Y0075300D01*
X0199342Y0075300D01*
X0196999Y0072957D01*
X0196999Y0071287D01*
X0169412Y0043700D01*
X0159056Y0043700D01*
X0159999Y0044643D01*
X0159999Y0047957D01*
X0159656Y0048300D01*
X0163342Y0048300D01*
X0164342Y0047300D01*
X0167656Y0047300D01*
X0169999Y0049643D01*
X0169999Y0052957D01*
X0167756Y0055200D01*
X0178186Y0055200D01*
X0190286Y0067300D01*
X0192656Y0067300D01*
X0194999Y0069643D01*
X0194999Y0072957D01*
X0192656Y0075300D01*
X0189342Y0075300D01*
X0186999Y0072957D01*
X0186999Y0069643D01*
X0187127Y0069515D01*
X0176612Y0059000D01*
X0158956Y0059000D01*
X0158256Y0059700D01*
X0172786Y0059700D01*
X0180386Y0067300D01*
X0182656Y0067300D01*
X0184999Y0069643D01*
X0184999Y0072957D01*
X0182656Y0075300D01*
X0179342Y0075300D01*
X0176999Y0072957D01*
X0176999Y0069643D01*
X0177177Y0069465D01*
X0171212Y0063500D01*
X0158856Y0063500D01*
X0158998Y0063642D02*
X0171354Y0063642D01*
X0158998Y0063642D01*
X0167527Y0065240D02*
X0172953Y0065240D01*
X0167527Y0065240D01*
X0169125Y0066839D02*
X0174551Y0066839D01*
X0169125Y0066839D01*
X0173794Y0068437D02*
X0176150Y0068437D01*
X0173794Y0068437D01*
X0174999Y0070036D02*
X0176999Y0070036D01*
X0174999Y0070036D01*
X0174999Y0071634D02*
X0176999Y0071634D01*
X0174999Y0071634D01*
X0174723Y0073233D02*
X0177275Y0073233D01*
X0174723Y0073233D01*
X0173125Y0074832D02*
X0178874Y0074832D01*
X0173125Y0074832D01*
X0168874Y0074832D02*
X0163125Y0074832D01*
X0168874Y0074832D01*
X0167275Y0073233D02*
X0164723Y0073233D01*
X0167275Y0073233D01*
X0166999Y0071634D02*
X0164999Y0071634D01*
X0166999Y0071634D01*
X0166948Y0070036D02*
X0164999Y0070036D01*
X0166948Y0070036D01*
X0158874Y0074832D02*
X0156055Y0074832D01*
X0158874Y0074832D01*
X0154456Y0076430D02*
X0226199Y0076430D01*
X0154456Y0076430D01*
X0141999Y0076430D02*
X0140399Y0076430D01*
X0141999Y0076430D01*
X0140999Y0074832D02*
X0140999Y0074832D01*
X0140999Y0074832D01*
X0140999Y0073233D02*
X0140999Y0073233D01*
X0140999Y0073233D01*
X0145399Y0071634D02*
X0146999Y0071634D01*
X0145399Y0071634D01*
X0173531Y0060445D02*
X0178057Y0060445D01*
X0173531Y0060445D01*
X0175130Y0062043D02*
X0179656Y0062043D01*
X0175130Y0062043D01*
X0176728Y0063642D02*
X0181254Y0063642D01*
X0176728Y0063642D01*
X0178327Y0065240D02*
X0182853Y0065240D01*
X0178327Y0065240D01*
X0179925Y0066839D02*
X0184451Y0066839D01*
X0179925Y0066839D01*
X0183794Y0068437D02*
X0186050Y0068437D01*
X0183794Y0068437D01*
X0184999Y0070036D02*
X0186999Y0070036D01*
X0184999Y0070036D01*
X0184999Y0071634D02*
X0186999Y0071634D01*
X0184999Y0071634D01*
X0184723Y0073233D02*
X0187275Y0073233D01*
X0184723Y0073233D01*
X0183125Y0074832D02*
X0188874Y0074832D01*
X0183125Y0074832D01*
X0193125Y0074832D02*
X0198874Y0074832D01*
X0193125Y0074832D01*
X0194723Y0073233D02*
X0197275Y0073233D01*
X0194723Y0073233D01*
X0194999Y0071634D02*
X0196999Y0071634D01*
X0194999Y0071634D01*
X0194999Y0070036D02*
X0195748Y0070036D01*
X0194999Y0070036D01*
X0194150Y0068437D02*
X0193794Y0068437D01*
X0194150Y0068437D01*
X0192551Y0066839D02*
X0189825Y0066839D01*
X0192551Y0066839D01*
X0190953Y0065240D02*
X0188227Y0065240D01*
X0190953Y0065240D01*
X0189354Y0063642D02*
X0186628Y0063642D01*
X0189354Y0063642D01*
X0187756Y0062043D02*
X0185030Y0062043D01*
X0187756Y0062043D01*
X0186157Y0060445D02*
X0183431Y0060445D01*
X0186157Y0060445D01*
X0184559Y0058846D02*
X0181833Y0058846D01*
X0184559Y0058846D01*
X0182960Y0057248D02*
X0180234Y0057248D01*
X0182960Y0057248D01*
X0181362Y0055649D02*
X0178636Y0055649D01*
X0181362Y0055649D01*
X0179763Y0054051D02*
X0168905Y0054051D01*
X0179763Y0054051D01*
X0178165Y0052452D02*
X0169999Y0052452D01*
X0178165Y0052452D01*
X0176566Y0050854D02*
X0169999Y0050854D01*
X0176566Y0050854D01*
X0174968Y0049255D02*
X0169611Y0049255D01*
X0174968Y0049255D01*
X0173369Y0047657D02*
X0168013Y0047657D01*
X0173369Y0047657D01*
X0171771Y0046058D02*
X0159999Y0046058D01*
X0171771Y0046058D01*
X0170172Y0044460D02*
X0159816Y0044460D01*
X0170172Y0044460D01*
X0173947Y0042861D02*
X0203883Y0042861D01*
X0173947Y0042861D01*
X0172349Y0041263D02*
X0203599Y0041263D01*
X0172349Y0041263D01*
X0175546Y0044460D02*
X0204936Y0044460D01*
X0175546Y0044460D01*
X0177145Y0046058D02*
X0212352Y0046058D01*
X0177145Y0046058D01*
X0178743Y0047657D02*
X0183420Y0047657D01*
X0178743Y0047657D01*
X0180342Y0049255D02*
X0181821Y0049255D01*
X0180342Y0049255D01*
X0185999Y0049255D02*
X0185999Y0049255D01*
X0185999Y0049255D01*
X0190177Y0049255D02*
X0204084Y0049255D01*
X0190177Y0049255D01*
X0190399Y0049477D02*
X0190399Y0051300D01*
X0185999Y0051300D01*
X0185999Y0046900D01*
X0187822Y0046900D01*
X0190399Y0049477D01*
X0190399Y0050854D02*
X0203599Y0050854D01*
X0190399Y0050854D01*
X0190399Y0051300D02*
X0185999Y0051300D01*
X0185999Y0051300D01*
X0185999Y0051300D01*
X0190399Y0051300D01*
X0190399Y0052452D02*
X0203714Y0052452D01*
X0190399Y0052452D01*
X0189471Y0054051D02*
X0204528Y0054051D01*
X0189471Y0054051D01*
X0187872Y0055649D02*
X0207002Y0055649D01*
X0187872Y0055649D01*
X0188334Y0057248D02*
X0205410Y0057248D01*
X0188334Y0057248D01*
X0189933Y0058846D02*
X0203862Y0058846D01*
X0189933Y0058846D01*
X0191531Y0060445D02*
X0203275Y0060445D01*
X0191531Y0060445D01*
X0193130Y0062043D02*
X0203257Y0062043D01*
X0193130Y0062043D01*
X0194728Y0063642D02*
X0203805Y0063642D01*
X0194728Y0063642D01*
X0196327Y0065240D02*
X0205257Y0065240D01*
X0196327Y0065240D01*
X0197925Y0066839D02*
X0226199Y0066839D01*
X0197925Y0066839D01*
X0203794Y0068437D02*
X0208205Y0068437D01*
X0203794Y0068437D01*
X0204999Y0070036D02*
X0206999Y0070036D01*
X0204999Y0070036D01*
X0206999Y0069643D02*
X0209342Y0067300D01*
X0212656Y0067300D01*
X0214999Y0069643D01*
X0214999Y0072957D01*
X0212656Y0075300D01*
X0209342Y0075300D01*
X0206999Y0072957D01*
X0206999Y0069643D01*
X0209342Y0067300D01*
X0212656Y0067300D01*
X0214999Y0069643D01*
X0214999Y0072957D01*
X0212656Y0075300D01*
X0209342Y0075300D01*
X0206999Y0072957D01*
X0206999Y0069643D01*
X0206999Y0071634D02*
X0204999Y0071634D01*
X0206999Y0071634D01*
X0207275Y0073233D02*
X0204723Y0073233D01*
X0207275Y0073233D01*
X0208874Y0074832D02*
X0203125Y0074832D01*
X0208874Y0074832D01*
X0213125Y0074832D02*
X0218308Y0074832D01*
X0213125Y0074832D01*
X0214723Y0073233D02*
X0216710Y0073233D01*
X0214723Y0073233D01*
X0216599Y0073123D02*
X0216599Y0071300D01*
X0220999Y0071300D01*
X0220999Y0071300D01*
X0220999Y0071300D01*
X0216599Y0071300D01*
X0216599Y0073123D01*
X0219177Y0075700D01*
X0220999Y0075700D01*
X0220999Y0071300D01*
X0216599Y0071300D01*
X0216599Y0069477D01*
X0219177Y0066900D01*
X0220999Y0066900D01*
X0220999Y0071300D01*
X0216599Y0071300D01*
X0216599Y0069477D01*
X0219177Y0066900D01*
X0220999Y0066900D01*
X0220999Y0071300D01*
X0220999Y0071300D01*
X0220999Y0075700D01*
X0219177Y0075700D01*
X0216599Y0073123D01*
X0216599Y0071634D02*
X0214999Y0071634D01*
X0216599Y0071634D01*
X0216599Y0070036D02*
X0214999Y0070036D01*
X0216599Y0070036D01*
X0217639Y0068437D02*
X0213794Y0068437D01*
X0217639Y0068437D01*
X0220999Y0068437D02*
X0220999Y0068437D01*
X0220999Y0068437D01*
X0224359Y0068437D02*
X0226199Y0068437D01*
X0224359Y0068437D01*
X0225399Y0069477D02*
X0222822Y0066900D01*
X0220999Y0066900D01*
X0220999Y0071300D01*
X0220999Y0071300D01*
X0220999Y0071300D01*
X0220999Y0071300D01*
X0220999Y0075700D01*
X0222822Y0075700D01*
X0225399Y0073123D01*
X0225399Y0071300D01*
X0220999Y0071300D01*
X0220999Y0066900D01*
X0222822Y0066900D01*
X0225399Y0069477D01*
X0225399Y0071300D01*
X0225399Y0073123D01*
X0222822Y0075700D01*
X0220999Y0075700D01*
X0220999Y0071300D01*
X0220999Y0071300D01*
X0225399Y0071300D01*
X0220999Y0071300D01*
X0220999Y0071300D01*
X0225399Y0071300D01*
X0225399Y0069477D01*
X0225399Y0070036D02*
X0226199Y0070036D01*
X0225399Y0070036D01*
X0225399Y0071634D02*
X0226199Y0071634D01*
X0225399Y0071634D01*
X0225289Y0073233D02*
X0226199Y0073233D01*
X0225289Y0073233D01*
X0226199Y0074832D02*
X0223690Y0074832D01*
X0226199Y0074832D01*
X0220999Y0074832D02*
X0220999Y0074832D01*
X0220999Y0074832D01*
X0220999Y0073233D02*
X0220999Y0073233D01*
X0220999Y0073233D01*
X0220999Y0071634D02*
X0220999Y0071634D01*
X0220999Y0071634D01*
X0220999Y0070036D02*
X0220999Y0070036D01*
X0220999Y0070036D01*
X0215123Y0065982D02*
X0214377Y0066100D01*
X0211199Y0066100D01*
X0211199Y0061500D01*
X0210799Y0061500D01*
X0210799Y0061100D01*
X0203199Y0061100D01*
X0203199Y0060922D01*
X0203317Y0060176D01*
X0203551Y0059457D01*
X0203894Y0058784D01*
X0204338Y0058173D01*
X0204872Y0057639D01*
X0205483Y0057195D01*
X0206157Y0056852D01*
X0206875Y0056618D01*
X0207621Y0056500D01*
X0210799Y0056500D01*
X0210799Y0061100D01*
X0203199Y0061100D01*
X0203199Y0060922D01*
X0203317Y0060176D01*
X0203551Y0059457D01*
X0203894Y0058784D01*
X0204338Y0058173D01*
X0204872Y0057639D01*
X0205483Y0057195D01*
X0206157Y0056852D01*
X0206875Y0056618D01*
X0207621Y0056500D01*
X0210799Y0056500D01*
X0210799Y0061100D01*
X0210799Y0061500D01*
X0203199Y0061500D01*
X0203199Y0061678D01*
X0203317Y0062424D01*
X0203551Y0063143D01*
X0203894Y0063816D01*
X0204338Y0064427D01*
X0204872Y0064961D01*
X0205483Y0065405D01*
X0206157Y0065748D01*
X0206875Y0065982D01*
X0207621Y0066100D01*
X0210799Y0066100D01*
X0210799Y0061500D01*
X0203199Y0061500D01*
X0203199Y0061678D01*
X0203317Y0062424D01*
X0203551Y0063143D01*
X0203894Y0063816D01*
X0204338Y0064427D01*
X0204872Y0064961D01*
X0205483Y0065405D01*
X0206157Y0065748D01*
X0206875Y0065982D01*
X0207621Y0066100D01*
X0210799Y0066100D01*
X0210799Y0061500D01*
X0211199Y0061500D01*
X0211199Y0066100D01*
X0214377Y0066100D01*
X0215123Y0065982D01*
X0215842Y0065748D01*
X0216515Y0065405D01*
X0217126Y0064961D01*
X0217660Y0064427D01*
X0218105Y0063816D01*
X0218448Y0063143D01*
X0218681Y0062424D01*
X0218799Y0061678D01*
X0218799Y0061500D01*
X0211199Y0061500D01*
X0211199Y0061100D01*
X0211199Y0056500D01*
X0214377Y0056500D01*
X0215123Y0056618D01*
X0215842Y0056852D01*
X0216515Y0057195D01*
X0217126Y0057639D01*
X0217660Y0058173D01*
X0218105Y0058784D01*
X0218448Y0059457D01*
X0218681Y0060176D01*
X0218799Y0060922D01*
X0218799Y0061100D01*
X0211199Y0061100D01*
X0210799Y0061100D01*
X0211199Y0061100D01*
X0211199Y0056500D01*
X0214377Y0056500D01*
X0215123Y0056618D01*
X0215842Y0056852D01*
X0216515Y0057195D01*
X0217126Y0057639D01*
X0217660Y0058173D01*
X0218105Y0058784D01*
X0218448Y0059457D01*
X0218681Y0060176D01*
X0218799Y0060922D01*
X0218799Y0061100D01*
X0211199Y0061100D01*
X0211199Y0061500D01*
X0218799Y0061500D01*
X0218799Y0061678D01*
X0218681Y0062424D01*
X0218448Y0063143D01*
X0218105Y0063816D01*
X0217660Y0064427D01*
X0217126Y0064961D01*
X0216515Y0065405D01*
X0215842Y0065748D01*
X0215123Y0065982D01*
X0216742Y0065240D02*
X0226199Y0065240D01*
X0216742Y0065240D01*
X0218193Y0063642D02*
X0226199Y0063642D01*
X0218193Y0063642D01*
X0218741Y0062043D02*
X0226199Y0062043D01*
X0218741Y0062043D01*
X0218724Y0060445D02*
X0226199Y0060445D01*
X0218724Y0060445D01*
X0218136Y0058846D02*
X0226199Y0058846D01*
X0218136Y0058846D01*
X0216588Y0057248D02*
X0226199Y0057248D01*
X0216588Y0057248D01*
X0214997Y0055649D02*
X0226199Y0055649D01*
X0214997Y0055649D01*
X0217471Y0054051D02*
X0226199Y0054051D01*
X0217471Y0054051D01*
X0218284Y0052452D02*
X0226199Y0052452D01*
X0218284Y0052452D01*
X0218399Y0050854D02*
X0226199Y0050854D01*
X0218399Y0050854D01*
X0217915Y0049255D02*
X0226199Y0049255D01*
X0217915Y0049255D01*
X0216976Y0047657D02*
X0226199Y0047657D01*
X0216976Y0047657D01*
X0218575Y0046058D02*
X0226199Y0046058D01*
X0218575Y0046058D01*
X0220173Y0044460D02*
X0226199Y0044460D01*
X0220173Y0044460D01*
X0221772Y0042861D02*
X0226199Y0042861D01*
X0221772Y0042861D01*
X0223370Y0041263D02*
X0226199Y0041263D01*
X0223370Y0041263D01*
X0224969Y0039664D02*
X0226199Y0039664D01*
X0224969Y0039664D01*
X0220345Y0038066D02*
X0216988Y0038066D01*
X0220345Y0038066D01*
X0221943Y0036467D02*
X0191719Y0036467D01*
X0221943Y0036467D01*
X0224999Y0036523D02*
X0210999Y0050523D01*
X0210999Y0051300D01*
X0205420Y0047657D02*
X0188579Y0047657D01*
X0205420Y0047657D01*
X0185999Y0047657D02*
X0185999Y0047657D01*
X0185999Y0047657D01*
X0185999Y0050854D02*
X0185999Y0050854D01*
X0185999Y0050854D01*
X0163986Y0047657D02*
X0159999Y0047657D01*
X0163986Y0047657D01*
X0151151Y0042861D02*
X0148217Y0042861D01*
X0151151Y0042861D01*
X0188522Y0039664D02*
X0203914Y0039664D01*
X0188522Y0039664D01*
X0190120Y0038066D02*
X0205011Y0038066D01*
X0190120Y0038066D01*
X0193317Y0034869D02*
X0205345Y0034869D01*
X0193317Y0034869D01*
X0194916Y0033270D02*
X0204053Y0033270D01*
X0194916Y0033270D01*
X0196514Y0031672D02*
X0203599Y0031672D01*
X0196514Y0031672D01*
X0198113Y0030073D02*
X0203745Y0030073D01*
X0198113Y0030073D01*
X0199712Y0028475D02*
X0204602Y0028475D01*
X0199712Y0028475D01*
X0217396Y0028475D02*
X0222799Y0028475D01*
X0217396Y0028475D01*
X0217510Y0026876D02*
X0222799Y0026876D01*
X0217510Y0026876D01*
X0219109Y0025278D02*
X0222799Y0025278D01*
X0219109Y0025278D01*
X0220707Y0023679D02*
X0222799Y0023679D01*
X0220707Y0023679D01*
X0222306Y0022081D02*
X0222799Y0022081D01*
X0222306Y0022081D01*
X0222499Y0020482D02*
X0222799Y0020482D01*
X0222499Y0020482D01*
X0222499Y0018884D02*
X0222799Y0018884D01*
X0222499Y0018884D01*
X0222499Y0017285D02*
X0222799Y0017285D01*
X0222499Y0017285D01*
X0222499Y0015687D02*
X0222799Y0015687D01*
X0222499Y0015687D01*
X0224999Y0011300D02*
X0224999Y0009643D01*
X0221656Y0006300D01*
X0155999Y0006300D01*
X0150999Y0011300D01*
X0217946Y0033270D02*
X0222799Y0033270D01*
X0217946Y0033270D01*
X0218399Y0031672D02*
X0222799Y0031672D01*
X0218399Y0031672D01*
X0218254Y0030073D02*
X0222799Y0030073D01*
X0218254Y0030073D01*
X0216653Y0034869D02*
X0222799Y0034869D01*
X0216653Y0034869D01*
X0224999Y0036523D02*
X0224999Y0011300D01*
X0224999Y0009643D01*
X0218746Y0039664D02*
X0218084Y0039664D01*
X0218746Y0039664D01*
X0211199Y0057248D02*
X0210799Y0057248D01*
X0211199Y0057248D01*
X0211199Y0058846D02*
X0210799Y0058846D01*
X0211199Y0058846D01*
X0211199Y0060445D02*
X0210799Y0060445D01*
X0211199Y0060445D01*
X0211199Y0062043D02*
X0210799Y0062043D01*
X0211199Y0062043D01*
X0211199Y0063642D02*
X0210799Y0063642D01*
X0211199Y0063642D01*
X0211199Y0065240D02*
X0210799Y0065240D01*
X0211199Y0065240D01*
D17*
X0125999Y0053800D03*
X0113499Y0051300D03*
X0113499Y0058000D03*
X0063699Y0059800D03*
X0142299Y0021100D03*
D18*
X0146799Y0016600D02*
X0150399Y0020200D01*
X0178299Y0020200D01*
X0186399Y0012100D01*
X0190899Y0012100D01*
X0190999Y0011300D01*
X0196299Y0012100D02*
X0182799Y0025600D01*
X0156699Y0025600D01*
X0155999Y0026300D01*
X0146799Y0016600D02*
X0145999Y0016300D01*
X0155999Y0016300D02*
X0156699Y0015700D01*
X0172899Y0015700D01*
X0176499Y0012100D01*
X0180999Y0012100D01*
X0180999Y0011300D01*
X0196299Y0012100D02*
X0200799Y0012100D01*
X0200999Y0011300D01*
X0220599Y0012100D02*
X0220999Y0011300D01*
X0220599Y0012100D02*
X0220599Y0021100D01*
X0215199Y0026500D01*
X0198999Y0026500D01*
X0187299Y0038200D01*
X0158499Y0038200D01*
X0156699Y0036400D01*
X0155999Y0036300D01*
X0154899Y0041800D02*
X0170199Y0041800D01*
X0198999Y0070600D01*
X0200799Y0070600D01*
X0200999Y0071300D01*
X0190999Y0071300D02*
X0190899Y0070600D01*
X0177399Y0057100D01*
X0156699Y0057100D01*
X0155999Y0056300D01*
X0154899Y0061600D02*
X0150399Y0057100D01*
X0146799Y0057100D01*
X0145999Y0056300D01*
X0154899Y0061600D02*
X0171999Y0061600D01*
X0180999Y0070600D01*
X0180999Y0071300D01*
X0170999Y0071300D02*
X0170199Y0070600D01*
X0166599Y0067000D01*
X0156699Y0067000D01*
X0155999Y0066300D01*
X0156699Y0071500D02*
X0152199Y0076000D01*
X0146799Y0076000D01*
X0145999Y0076300D01*
X0156699Y0071500D02*
X0160299Y0071500D01*
X0160999Y0071300D01*
X0126099Y0076000D02*
X0125999Y0076300D01*
X0126099Y0076000D02*
X0121599Y0071500D01*
X0120999Y0071300D01*
X0111699Y0070600D02*
X0110999Y0071300D01*
X0111699Y0070600D02*
X0111699Y0064300D01*
X0114399Y0061600D01*
X0117099Y0061600D01*
X0121599Y0066100D01*
X0125199Y0066100D01*
X0125999Y0066300D01*
X0113499Y0060237D02*
X0107436Y0066300D01*
X0105999Y0066300D01*
X0113499Y0060237D02*
X0113499Y0058000D01*
X0145999Y0046300D02*
X0150399Y0046300D01*
X0154899Y0041800D01*
X0095999Y0036300D02*
X0095499Y0035500D01*
X0091899Y0031900D01*
X0085599Y0031900D01*
X0077499Y0023800D01*
X0047799Y0023800D01*
X0036099Y0012100D01*
X0031599Y0012100D01*
X0030999Y0011300D01*
X0026199Y0012100D02*
X0039699Y0025600D01*
X0075699Y0025600D01*
X0085599Y0035500D01*
X0085999Y0036300D01*
X0095999Y0026300D02*
X0095499Y0025600D01*
X0091899Y0022000D01*
X0065799Y0022000D01*
X0055899Y0012100D01*
X0051399Y0012100D01*
X0050999Y0011300D01*
X0060999Y0011300D02*
X0061299Y0012100D01*
X0065799Y0012100D01*
X0069399Y0015700D01*
X0085599Y0015700D01*
X0085999Y0016300D01*
X0075699Y0006700D02*
X0071199Y0011200D01*
X0070999Y0011300D01*
X0075699Y0006700D02*
X0095499Y0006700D01*
X0095999Y0006300D01*
X0110999Y0011300D02*
X0111699Y0011200D01*
X0116199Y0006700D01*
X0115999Y0006300D01*
X0125999Y0006300D02*
X0126099Y0006700D01*
X0130599Y0011200D01*
X0130999Y0011300D01*
X0120999Y0011300D02*
X0120699Y0012100D01*
X0116199Y0016600D01*
X0115999Y0016300D01*
X0026199Y0012100D02*
X0021699Y0012100D01*
X0020999Y0011300D01*
X0062499Y0059800D02*
X0060999Y0061300D01*
X0060999Y0066300D01*
X0062299Y0067600D01*
X0063262Y0067600D01*
X0066962Y0071300D01*
X0070999Y0071300D01*
X0069399Y0076000D02*
X0064899Y0071500D01*
X0061299Y0071500D01*
X0060999Y0071300D01*
X0069399Y0076000D02*
X0095499Y0076000D01*
X0095999Y0076300D01*
X0063699Y0059800D02*
X0062499Y0059800D01*
M02*
