G75*
%MOIN*%
%OFA0B0*%
%FSLAX25Y25*%
%IPPOS*%
%LPD*%
%AMOC8*
5,1,8,0,0,1.08239X$1,22.5*
%
%ADD10C,0.00000*%
%ADD11R,0.08900X0.08900*%
%ADD12C,0.08900*%
%ADD13OC8,0.06000*%
%ADD14C,0.06800*%
%ADD15C,0.04800*%
D10*
X0001000Y0001301D02*
X0001000Y0081261D01*
X0230999Y0081260D01*
X0230999Y0001300D01*
X0001000Y0001301D01*
D11*
X0017499Y0031300D03*
D12*
X0017499Y0041300D03*
X0017499Y0051300D03*
D13*
X0050999Y0051300D03*
X0070999Y0051300D03*
X0085999Y0046300D03*
X0095999Y0046300D03*
X0095999Y0056300D03*
X0085999Y0056300D03*
X0085999Y0066300D03*
X0095999Y0066300D03*
X0105999Y0066300D03*
X0115999Y0066300D03*
X0125999Y0066300D03*
X0135999Y0066300D03*
X0145999Y0066300D03*
X0155999Y0066300D03*
X0150999Y0071300D03*
X0160999Y0071300D03*
X0170999Y0071300D03*
X0180999Y0071300D03*
X0190999Y0071300D03*
X0200999Y0071300D03*
X0210999Y0071300D03*
X0220999Y0071300D03*
X0185999Y0051300D03*
X0165999Y0051300D03*
X0155999Y0046300D03*
X0145999Y0046300D03*
X0145999Y0056300D03*
X0155999Y0056300D03*
X0140999Y0071300D03*
X0130999Y0071300D03*
X0120999Y0071300D03*
X0110999Y0071300D03*
X0100999Y0071300D03*
X0090999Y0071300D03*
X0080999Y0071300D03*
X0070999Y0071300D03*
X0060999Y0071300D03*
X0050999Y0071300D03*
X0040999Y0071300D03*
X0030999Y0071300D03*
X0020999Y0071300D03*
X0010999Y0071300D03*
X0095999Y0076300D03*
X0105999Y0076300D03*
X0115999Y0076300D03*
X0125999Y0076300D03*
X0135999Y0076300D03*
X0145999Y0076300D03*
X0145999Y0036300D03*
X0155999Y0036300D03*
X0165999Y0033800D03*
X0155999Y0026300D03*
X0145999Y0026300D03*
X0145999Y0016300D03*
X0135999Y0016300D03*
X0125999Y0016300D03*
X0115999Y0016300D03*
X0105999Y0016300D03*
X0095999Y0016300D03*
X0085999Y0016300D03*
X0080999Y0011300D03*
X0070999Y0011300D03*
X0060999Y0011300D03*
X0050999Y0011300D03*
X0040999Y0011300D03*
X0030999Y0011300D03*
X0020999Y0011300D03*
X0010999Y0011300D03*
X0050999Y0033800D03*
X0070999Y0033800D03*
X0085999Y0036300D03*
X0095999Y0036300D03*
X0095999Y0026300D03*
X0085999Y0026300D03*
X0090999Y0011300D03*
X0100999Y0011300D03*
X0110999Y0011300D03*
X0120999Y0011300D03*
X0130999Y0011300D03*
X0140999Y0011300D03*
X0150999Y0011300D03*
X0160999Y0011300D03*
X0170999Y0011300D03*
X0180999Y0011300D03*
X0190999Y0011300D03*
X0200999Y0011300D03*
X0210999Y0011300D03*
X0220999Y0011300D03*
X0185999Y0033800D03*
X0155999Y0016300D03*
X0145999Y0006300D03*
X0135999Y0006300D03*
X0125999Y0006300D03*
X0115999Y0006300D03*
X0105999Y0006300D03*
X0095999Y0006300D03*
D14*
X0036499Y0031300D02*
X0030499Y0031300D01*
X0030499Y0041300D02*
X0036499Y0041300D01*
X0036499Y0051300D02*
X0030499Y0051300D01*
X0207999Y0051300D02*
X0213999Y0051300D01*
X0213999Y0041300D02*
X0207999Y0041300D01*
X0207999Y0031300D02*
X0213999Y0031300D01*
X0213999Y0021300D02*
X0207999Y0021300D01*
X0207999Y0061300D02*
X0213999Y0061300D01*
D15*
X0125999Y0053800D03*
X0113499Y0051300D03*
X0113499Y0058000D03*
X0063699Y0059800D03*
X0142299Y0021100D03*
M02*
